<svg width="34" height="34" viewBox="0 0 34 34" fill="none" xmlns="http://www.w3.org/2000/svg">
<path d="M9.11264 19.9554L8.1264 23.6372L4.5217 23.7134C3.44442 21.7153 2.83337 19.4292 2.83337 16.9999C2.83337 14.6507 3.40469 12.4354 4.41739 10.4848H4.41816L7.62735 11.0731L9.03317 14.2631C8.73894 15.1209 8.57857 16.0417 8.57857 16.9999C8.57868 18.0398 8.76705 19.0362 9.11264 19.9554Z" fill="#FBBB00"/>
<path d="M30.9193 14.3534C31.082 15.2104 31.1669 16.0954 31.1669 16.9999C31.1669 18.0142 31.0602 19.0035 30.8571 19.9578C30.1675 23.2053 28.3655 26.0409 25.8692 28.0476L25.8684 28.0468L21.8263 27.8406L21.2542 24.2693C22.9106 23.2979 24.2051 21.7777 24.8869 19.9578H17.3116V14.3534H24.9975H30.9193Z" fill="#518EF8"/>
<path d="M25.8686 28.0469L25.8694 28.0477C23.4416 29.9991 20.3576 31.1667 17.0004 31.1667C11.6054 31.1667 6.91488 28.1512 4.52209 23.7136L9.11304 19.9556C10.3094 23.1485 13.3895 25.4214 17.0004 25.4214C18.5525 25.4214 20.0066 25.0018 21.2543 24.2694L25.8686 28.0469Z" fill="#28B446"/>
<path d="M26.0427 6.09476L21.4533 9.85203C20.162 9.04486 18.6355 8.57858 17.0001 8.57858C13.3075 8.57858 10.1698 10.9558 9.03333 14.2632L4.41826 10.4849H4.41748C6.77523 5.9391 11.5249 2.83333 17.0001 2.83333C20.4375 2.83333 23.5892 4.05775 26.0427 6.09476Z" fill="#F14336"/>
</svg>
