<svg width="82" height="69" viewBox="0 0 82 69" fill="none" xmlns="http://www.w3.org/2000/svg">
<rect width="82" height="69" rx="16" fill="white"/>
<rect x="10" width="62" height="62" rx="8" fill="#F9EDF6"/>
<mask id="mask0_901_6897" style="mask-type:luminance" maskUnits="userSpaceOnUse" x="29" y="19" width="24" height="24">
<path d="M29 19H53V43H29V19Z" fill="white"/>
</mask>
<g mask="url(#mask0_901_6897)">
<path d="M29.7031 23.1968V35.3606L33.569 32.6029C34.0105 32.2879 34.5394 32.1186 35.0818 32.1186H43.584C44.6947 32.1186 45.5951 31.2182 45.5951 30.1076V21.1858H31.7142C30.6035 21.1858 29.7031 22.0862 29.7031 23.1968Z" stroke="#B2489B" stroke-width="1.3" stroke-miterlimit="10" stroke-linecap="round" stroke-linejoin="round"/>
<path d="M48.4076 26.6392H50.2859C51.3964 26.6392 52.2969 27.5397 52.2969 28.6506V40.8142L48.4311 38.0566C47.9895 37.7416 47.4608 37.5723 46.9184 37.5723H38.4158C37.3053 37.5723 36.4048 36.6719 36.4048 35.5609V34.931" stroke="#B2489B" stroke-width="1.3" stroke-miterlimit="10" stroke-linecap="round" stroke-linejoin="round"/>
<path d="M42.1798 25.0161H34.0562" stroke="#B2489B" stroke-width="1.3" stroke-miterlimit="10" stroke-linecap="round" stroke-linejoin="round"/>
<path d="M42.1798 28.2973H34.0562" stroke="#B2489B" stroke-width="1.3" stroke-miterlimit="10" stroke-linecap="round" stroke-linejoin="round"/>
</g>
</svg>
