<svg width="34" height="34" viewBox="0 0 34 34" fill="none" xmlns="http://www.w3.org/2000/svg">
<path d="M26.9167 9.91667C26.9167 10.2 26.9167 10.3417 26.9167 10.625C26.775 12.75 25.7834 14.5917 24.5084 15.8667C22.95 17.425 20.825 18.4167 18.4167 18.4167H14.025C13.3167 18.4167 12.75 18.9833 12.6084 19.6917L11.475 27.2C11.3334 27.7667 11.05 28.1917 10.4834 28.3333C10.3417 28.3333 10.2 28.3333 10.0584 28.3333H7.36669C6.51669 28.3333 5.80836 27.625 5.95003 26.6333L9.35003 6.375C9.63336 4.39167 11.475 2.83334 13.4584 2.83334H19.8334C23.8 2.83334 26.9167 5.95 26.9167 9.91667Z" fill="#002987"/>
<path d="M29.75 15.5833C29.75 17.5667 28.9 19.2667 27.625 20.5417C26.35 21.8167 24.65 22.6667 22.6667 22.6667H19.6917C18.9834 22.6667 18.4167 23.0917 18.275 23.8L17.2834 29.8917C17.1417 30.6 16.575 31.025 15.8667 31.025H11.6167C10.7667 31.025 10.0584 30.175 10.2 29.325L10.4834 28.3333C11.05 28.1917 11.475 27.7667 11.475 27.2L12.6084 19.6917C12.75 18.9833 13.3167 18.4167 14.025 18.4167H18.4167C20.825 18.4167 22.95 17.425 24.3667 15.8667C25.7834 14.45 26.6334 12.6083 26.775 10.625C28.6167 11.6167 29.75 13.4583 29.75 15.5833Z" fill="#0085CC"/>
</svg>
