<svg width="82" height="69" viewBox="0 0 82 69" fill="none" xmlns="http://www.w3.org/2000/svg">
<rect width="82" height="69" rx="16" fill="white"/>
<rect x="10" width="62" height="62" rx="8" fill="#E6F4F4"/>
<path d="M49.3873 21.1624C48.9007 20.6748 48.2537 20.4062 47.5652 20.4062H46.4023V20.1719C46.4023 19.5257 45.8766 19 45.2305 19H36.793C36.1468 19 35.6211 19.5257 35.6211 20.1719V20.4062H34.454C33.0356 20.4062 31.8802 21.5615 31.8786 22.9815L31.8594 40.419C31.8586 41.1082 32.1261 41.7563 32.6127 42.2439C33.0992 42.7315 33.7463 43 34.4348 43H47.5459C48.9644 43 50.1198 41.8447 50.1213 40.4247L50.1406 22.9872C50.1414 22.298 49.8739 21.6499 49.3873 21.1624ZM37.0273 20.4062H44.9961V21.8125H37.0273V20.4062ZM48.7166 40.4231C48.7158 41.0687 48.1907 41.5938 47.5459 41.5938H34.4348C34.1218 41.5938 33.8277 41.4717 33.6065 41.2501C33.3854 41.0284 33.2638 40.7338 33.2641 40.4206L33.2834 22.9831C33.2841 22.3376 33.8092 21.8125 34.454 21.8125H35.6211V22.0469C35.6211 22.693 36.1468 23.2188 36.793 23.2188H45.2305C45.8766 23.2188 46.4023 22.693 46.4023 22.0469V21.8125H47.5652C47.8782 21.8125 48.1723 21.9346 48.3935 22.1562C48.6146 22.3778 48.7363 22.6724 48.7359 22.9856L48.7166 40.4231Z" fill="#06958C"/>
<path d="M41.239 28.375H46.2345C46.6228 28.375 46.9377 28.0602 46.9377 27.6719C46.9377 27.2836 46.6228 26.9688 46.2345 26.9688H41.239C40.8507 26.9688 40.5359 27.2836 40.5359 27.6719C40.5359 28.0602 40.8507 28.375 41.239 28.375Z" fill="#06958C"/>
<path d="M41.239 33.0625H46.2345C46.6228 33.0625 46.9377 32.7477 46.9377 32.3594C46.9377 31.9711 46.6228 31.6562 46.2345 31.6562H41.239C40.8507 31.6562 40.5359 31.9711 40.5359 32.3594C40.5359 32.7477 40.8507 33.0625 41.239 33.0625Z" fill="#06958C"/>
<path d="M46.2546 36.3438H41.239C40.8507 36.3438 40.5359 36.6586 40.5359 37.0469C40.5359 37.4352 40.8507 37.75 41.239 37.75H46.2546C46.643 37.75 46.9578 37.4352 46.9578 37.0469C46.9578 36.6586 46.643 36.3438 46.2546 36.3438Z" fill="#06958C"/>
<path d="M38.2464 25.7574L36.6249 27.3789L36.2425 26.9965C35.9679 26.7219 35.5228 26.7219 35.2482 26.9965C34.9736 27.271 34.9736 27.7163 35.2482 27.9909L36.1277 28.8704C36.2596 29.0023 36.4384 29.0764 36.6249 29.0764C36.8114 29.0764 36.9902 29.0023 37.1221 28.8704L39.2408 26.7518C39.5154 26.4772 39.5154 26.032 39.2408 25.7574C38.9662 25.4828 38.521 25.4828 38.2464 25.7574Z" fill="#06958C"/>
<path d="M38.2464 30.8028L36.6249 32.4243L36.2425 32.042C35.9679 31.7674 35.5228 31.7674 35.2482 32.042C34.9736 32.3166 34.9736 32.7617 35.2482 33.0364L36.1277 33.916C36.2596 34.0478 36.4384 34.1219 36.6249 34.1219C36.8114 34.1219 36.9902 34.0479 37.1221 33.916L39.2408 31.7972C39.5154 31.5227 39.5154 31.0775 39.2408 30.8029C38.9662 30.5283 38.5209 30.5283 38.2464 30.8028Z" fill="#06958C"/>
<path d="M38.2464 35.4903L36.6249 37.1118L36.2425 36.7295C35.9679 36.4549 35.5228 36.4549 35.2482 36.7295C34.9736 37.0041 34.9736 37.4492 35.2482 37.7239L36.1277 38.6035C36.2596 38.7353 36.4384 38.8094 36.6249 38.8094C36.8114 38.8094 36.9902 38.7354 37.1221 38.6035L39.2408 36.4847C39.5154 36.2102 39.5154 35.765 39.2408 35.4904C38.9662 35.2158 38.5209 35.2158 38.2464 35.4903Z" fill="#06958C"/>
</svg>
