<svg width="85" height="72" viewBox="0 0 85 72" fill="none" xmlns="http://www.w3.org/2000/svg">
<path d="M-8.66824e-05 24.6995L68.2206 1.00086L70.3079 0.548019L85.0001 44.815L48.8278 57.5493L13.3899 69.3848L-8.66824e-05 24.6995Z" fill="#6E96A0"/>
<path d="M82.979 43.2202L82.7622 44.5324L14.7582 67.7353L14.125 66.3566L39.4662 53.7826L75.9388 39.9314L82.979 43.2202Z" fill="#E0E0E0"/>
<path d="M68.6752 0.816808C68.6752 0.816808 56.2667 -4.40785 34.2071 11.837C34.2071 11.837 14.6754 9.34087 1.07209 23.7014L14.125 66.3567C14.125 66.3567 35.2442 55.4492 44.591 57.2738L53.4371 54.1386C53.4371 54.1386 70.9626 40.2871 82.979 43.2202L68.6752 0.816808Z" fill="#FAFAFA"/>
<path d="M68.6752 0.816926C68.6752 0.816926 68.7587 1.07783 68.9259 1.58134C69.0942 2.08519 69.3435 2.83132 69.6696 3.808C70.3255 5.76134 71.2901 8.6345 72.5259 12.3179C75.0038 19.6797 78.5709 30.2801 82.9307 43.2369L82.9912 43.1719C81.818 42.9013 80.5956 42.772 79.3513 42.765C78.1062 42.7671 76.8457 42.9098 75.582 43.1257C73.0555 43.5856 70.5297 44.4103 68.0343 45.4613C65.5374 46.5147 63.0639 47.7946 60.6184 49.239C58.1773 50.6907 55.7497 52.2901 53.3989 54.0924L53.4167 54.0826C50.6354 55.0678 47.6292 56.1326 44.5699 57.2163L44.6025 57.2137C43.364 56.976 42.0814 56.9693 40.807 57.0655C39.5302 57.1638 38.2523 57.3653 36.9767 57.6218C34.4272 58.1519 31.8876 58.9076 29.3541 59.7793C26.8217 60.6564 24.2933 61.6489 21.771 62.7298C19.2498 63.8128 16.7292 64.9697 14.2324 66.2293C14.1859 66.2528 14.1403 66.2765 14.0951 66.2993L14.1865 66.337C9.56055 51.2263 5.14855 36.814 1.12874 23.6842L1.11478 23.7431C2.30144 22.5277 3.5207 21.3684 4.82319 20.3398C5.13719 20.0687 5.48067 19.837 5.80716 19.5855C6.13711 19.3391 6.4622 19.0883 6.80603 18.8643C7.1443 18.6344 7.48222 18.4056 7.81875 18.1775C8.16535 17.9641 8.5102 17.7525 8.85436 17.5413C11.6236 15.8761 14.5327 14.6341 17.4337 13.7258C20.3417 12.8347 23.24 12.2584 26.0577 11.9703C28.873 11.6842 31.6123 11.6246 34.2001 11.8838L34.2196 11.8861L34.2342 11.8753C38.8854 8.45988 43.3976 5.77732 47.5758 3.88516C51.7501 1.9837 55.5814 0.884111 58.7689 0.395991C61.9596 -0.101479 64.4889 -0.000137525 66.1628 0.23675C67.002 0.354491 67.6323 0.502286 68.0498 0.618329C68.4683 0.734716 68.6752 0.816926 68.6752 0.816926C68.6752 0.816926 68.4717 0.726056 68.0543 0.60483C67.6372 0.484292 67.0069 0.331319 66.1673 0.209435C64.4921 -0.0371142 61.9594 -0.147068 58.7617 0.343535C55.5682 0.825135 51.7287 1.91856 47.5456 3.81662C43.3584 5.70642 38.8376 8.38559 34.1787 11.7996L34.2127 11.7911C31.6117 11.5283 28.8714 11.5858 26.0481 11.8698C23.2241 12.1559 20.3186 12.7316 17.4026 13.6224C14.4935 14.5304 11.575 15.7745 8.7961 17.4429C8.45055 17.6548 8.10431 17.8671 7.75702 18.0808C7.4191 18.3096 7.08048 18.5388 6.74047 18.7687C6.39561 18.9924 6.06947 19.2446 5.73813 19.4917C5.41095 19.7436 5.06607 19.9759 4.75068 20.2477C3.44333 21.2788 2.21955 22.4412 1.02872 23.6604L1.00402 23.6858L1.01406 23.7195C5.03109 36.8507 9.43996 51.2637 14.0624 66.3762L14.0846 66.4496L14.1537 66.4139C14.1996 66.3908 14.2451 66.367 14.291 66.3439C16.784 65.0871 19.3035 63.9299 21.822 62.8483C24.3411 61.7681 26.8671 60.776 29.3957 59.8999C31.9254 59.0293 34.4601 58.2743 37.0016 57.7456C38.273 57.4895 39.5461 57.2887 40.8152 57.1908C42.0823 57.094 43.3555 57.1011 44.5774 57.3351L44.5947 57.3384L44.6111 57.3328C47.6697 56.2477 50.6755 55.1822 53.4561 54.1956L53.4652 54.1928L53.4732 54.1862C55.8152 52.3891 58.2408 50.789 60.6773 49.3388C63.1183 47.8958 65.5863 46.617 68.0765 45.5643C70.5661 44.5137 73.0839 43.6905 75.5992 43.231C76.8574 43.0144 78.1109 42.8717 79.3494 42.8687C80.5865 42.8749 81.8009 43.0023 82.9647 43.2698L83.0543 43.2903L83.0249 43.2042C78.6436 30.2478 75.0594 19.6466 72.5701 12.2844C71.3235 8.60733 70.3512 5.73976 69.6898 3.78922C69.3588 2.81671 69.1056 2.07338 68.9349 1.57162C68.7659 1.07157 68.6752 0.816926 68.6752 0.816926Z" fill="#263238"/>
<path d="M48.3228 56.1585C48.3572 56.1473 45.2475 46.2288 41.3792 34.0075C37.5095 21.7817 34.3452 11.883 34.3112 11.8932C34.2775 11.9041 37.3854 21.8209 41.2558 34.0463C45.1241 46.2676 48.2888 56.1688 48.3228 56.1585Z" fill="#263238"/>
<path d="M6.48778 26.9725C6.48952 26.9743 6.51038 26.9603 6.55105 26.932C6.59625 26.8989 6.65501 26.8564 6.72767 26.8034C6.8883 26.6829 7.1136 26.5142 7.3994 26.2995C7.54508 26.1891 7.70676 26.0671 7.88269 25.9337C8.06209 25.8036 8.26338 25.6704 8.4758 25.5229C8.90411 25.233 9.37905 24.8834 9.93873 24.5498C10.2154 24.3777 10.5047 24.1976 10.8064 24.0094C11.1089 23.8226 11.4373 23.6512 11.769 23.4618C12.4291 23.0733 13.167 22.7182 13.9359 22.3311C15.4927 21.5965 17.2461 20.8768 19.138 20.2712C21.0362 19.6815 22.8851 19.2658 24.5797 18.9744C25.4306 18.8506 26.2381 18.7185 27.0007 18.6582C27.3815 18.6236 27.7477 18.5755 28.1024 18.5549C28.4564 18.5363 28.7966 18.5178 29.1214 18.5001C29.7707 18.4519 30.3589 18.4674 30.8755 18.4584C31.1339 18.4577 31.374 18.4517 31.5953 18.455C31.8155 18.4632 32.0173 18.4712 32.1994 18.478C32.5558 18.4901 32.8358 18.4993 33.0366 18.5052C33.1262 18.5067 33.1984 18.5083 33.2547 18.5093C33.3037 18.5097 33.3294 18.5088 33.3291 18.5064C33.3291 18.5047 33.3044 18.5007 33.2551 18.4962C33.1988 18.4917 33.1273 18.4863 33.0376 18.4796C32.8372 18.4675 32.5572 18.4497 32.2012 18.4279C32.0181 18.4173 31.8163 18.4059 31.5964 18.3932C31.3747 18.3857 31.134 18.3887 30.8755 18.3859C30.3586 18.3872 29.7684 18.3659 29.1177 18.4079C28.7922 18.4225 28.4506 18.4382 28.0952 18.4541C27.7398 18.4716 27.3715 18.5172 26.9897 18.5498C26.224 18.6057 25.4144 18.7337 24.5597 18.855C22.8578 19.1406 21.0026 19.5542 19.0979 20.1464C17.199 20.7538 15.4411 21.4801 13.8829 22.2223C13.1133 22.6132 12.375 22.9728 11.7152 23.3672C11.3833 23.5593 11.0555 23.7339 10.7534 23.9231C10.453 24.114 10.1634 24.2969 9.88809 24.4718C9.32945 24.8109 8.85764 25.1666 8.43244 25.4627C8.22175 25.6136 8.02254 25.7493 7.84488 25.8828C7.67068 26.0197 7.51178 26.1454 7.36749 26.2586C7.08758 26.4815 6.86784 26.6561 6.71033 26.7811C6.64078 26.8385 6.58515 26.8838 6.54134 26.9197C6.50517 26.9534 6.48604 26.9708 6.48778 26.9725Z" fill="#263238"/>
<path d="M8.18029 32.0115C8.18133 32.0135 8.20358 31.9989 8.24426 31.9706C8.29085 31.9368 8.3503 31.894 8.42505 31.8399C8.58916 31.7176 8.81863 31.5468 9.11103 31.3297C9.26019 31.2175 9.42534 31.0938 9.60474 30.9586C9.78762 30.8268 9.99308 30.6914 10.2097 30.5418C10.6474 30.2481 11.1324 29.8926 11.7032 29.5534C11.9855 29.3785 12.281 29.1952 12.5883 29.0043C12.897 28.8143 13.231 28.6401 13.5703 28.4468C14.2436 28.0517 14.9954 27.6896 15.7782 27.2955C17.3642 26.5462 19.1496 25.8087 21.0759 25.1866C23.0078 24.579 24.8894 24.1451 26.6153 23.838C27.4818 23.7073 28.3036 23.5671 29.0804 23.5005C29.4682 23.4623 29.8413 23.4125 30.2027 23.3877C30.5636 23.3656 30.9097 23.345 31.2411 23.3248C31.9026 23.2714 32.5015 23.2806 33.0278 23.2684C33.2912 23.2653 33.5364 23.2575 33.7612 23.2591C33.986 23.2659 34.1913 23.2721 34.3778 23.2774C34.7412 23.2861 35.0271 23.2932 35.231 23.2984C35.323 23.2995 35.3957 23.3 35.4533 23.3003C35.5037 23.3 35.5294 23.2991 35.5291 23.2967C35.5287 23.2943 35.5037 23.2914 35.4537 23.2872C35.3967 23.2831 35.3238 23.2784 35.2317 23.2721C35.0275 23.261 34.7419 23.246 34.3786 23.227C34.1927 23.2179 33.9864 23.2078 33.7616 23.1976C33.5358 23.1922 33.2905 23.1966 33.0265 23.1966C32.4992 23.2015 31.8982 23.1865 31.2353 23.2337C30.9035 23.2514 30.5561 23.2693 30.1944 23.2883C29.8328 23.3107 29.4575 23.3581 29.0687 23.3942C28.2895 23.456 27.4646 23.5934 26.5949 23.7214C24.8628 24.0231 22.9739 24.4546 21.0361 25.0642C19.1032 25.6888 17.3136 26.4318 15.7255 27.1891C14.9414 27.5874 14.1895 27.9547 13.5165 28.3539C13.178 28.5503 12.8432 28.7266 12.5359 28.9193C12.2293 29.1134 11.9341 29.2991 11.6532 29.4767C11.0835 29.8214 10.6012 30.1824 10.167 30.4831C9.95215 30.6361 9.74808 30.7742 9.56693 30.9095C9.38926 31.0481 9.22654 31.1749 9.07911 31.2906C8.79295 31.5166 8.56764 31.6939 8.40666 31.8207C8.33573 31.8789 8.2787 31.9248 8.2342 31.961C8.19768 31.9924 8.17856 32.0098 8.18029 32.0115Z" fill="#263238"/>
<path d="M9.05863 37.4146C9.06037 37.4163 9.08192 37.402 9.1226 37.3738C9.16919 37.3399 9.22864 37.2971 9.30269 37.2434C9.4668 37.1211 9.69627 36.9503 9.98867 36.7332C10.1378 36.621 10.303 36.4973 10.4824 36.3621C10.6653 36.2303 10.8707 36.0949 11.0873 35.9453C11.525 35.6516 12.01 35.296 12.5808 34.9569C12.8631 34.782 13.1586 34.5987 13.4659 34.4077C13.7746 34.2178 14.1087 34.0435 14.4479 33.8503C15.1213 33.4552 15.8731 33.0931 16.6566 32.6986C18.2426 31.9493 20.028 31.2118 21.9543 30.5897C23.8861 29.9821 25.7678 29.5483 27.4936 29.2411C28.3602 29.1104 29.1819 28.9702 29.9588 28.9036C30.3465 28.8654 30.7204 28.8153 31.0807 28.7901C31.4416 28.768 31.7877 28.7474 32.1191 28.7273C32.7799 28.6742 33.3795 28.683 33.9058 28.6708C34.1692 28.6677 34.4137 28.6602 34.6392 28.6615C34.8639 28.6683 35.0693 28.6745 35.2558 28.6798C35.6192 28.6885 35.9051 28.6956 36.109 28.7008C36.201 28.7019 36.2736 28.7025 36.3313 28.7028C36.3817 28.7024 36.4074 28.7016 36.4071 28.6992C36.4074 28.6964 36.3817 28.6938 36.3317 28.6896C36.2747 28.6855 36.2018 28.6808 36.1104 28.6742C35.9061 28.6631 35.6206 28.6481 35.2572 28.6291C35.0714 28.6199 34.8654 28.6106 34.6403 28.5997C34.4145 28.5942 34.1692 28.5986 33.9059 28.5983C33.3785 28.6032 32.7776 28.5882 32.1147 28.6354C31.7829 28.6532 31.4355 28.671 31.0731 28.6903C30.7115 28.7128 30.3362 28.7602 29.9474 28.7962C29.1682 28.858 28.3433 28.9955 27.4736 29.1235C25.7415 29.4251 23.8526 29.8566 21.9148 30.4663C19.9819 31.0908 18.1923 31.8339 16.6042 32.5912C15.8194 32.9898 15.0682 33.3568 14.3956 33.7567C14.0566 33.9524 13.7223 34.1293 13.4149 34.322C13.108 34.5154 12.8132 34.7018 12.5323 34.8795C11.9632 35.2238 11.481 35.5849 11.046 35.8858C10.8312 36.0389 10.6271 36.177 10.446 36.3122C10.2683 36.4509 10.1056 36.5777 9.95814 36.6933C9.67199 36.9194 9.44668 37.0967 9.28569 37.2235C9.21476 37.2816 9.15774 37.3276 9.11323 37.3638C9.07602 37.3955 9.0569 37.4129 9.05863 37.4146Z" fill="#263238"/>
<path d="M10.8801 42.3822C10.8812 42.3843 10.9027 42.37 10.9441 42.3414C10.9907 42.3075 11.0501 42.2647 11.1242 42.211C11.2883 42.0887 11.5178 41.9179 11.8109 41.7004C11.96 41.5882 12.1252 41.4645 12.3046 41.3293C12.4881 41.1972 12.6929 41.0622 12.9102 40.9122C13.3479 40.6185 13.8329 40.263 14.4037 39.9238C14.686 39.7489 14.9815 39.5656 15.2888 39.3746C15.5975 39.1847 15.9315 39.0104 16.2708 38.8172C16.9441 38.4221 17.696 38.06 18.4794 37.6655C20.0654 36.9162 21.8508 36.1787 23.7771 35.5566C25.709 34.949 27.5906 34.5152 29.3165 34.208C30.1831 34.0773 31.0048 33.9371 31.7817 33.8705C32.1694 33.8323 32.5432 33.7822 32.9035 33.757C33.2645 33.7349 33.6105 33.7143 33.942 33.6942C34.6028 33.6411 35.2024 33.6499 35.7287 33.6377C35.992 33.6346 36.2373 33.6268 36.4621 33.6284C36.6868 33.6352 36.8921 33.6414 37.0787 33.6468C37.442 33.6554 37.7279 33.6625 37.9319 33.6677C38.0239 33.6688 38.0965 33.6694 38.1542 33.6697C38.2046 33.6693 38.2303 33.6685 38.2306 33.6657C38.2303 33.6633 38.2053 33.6603 38.1552 33.6562C38.0983 33.6521 38.0253 33.6474 37.9333 33.6411C37.729 33.63 37.4435 33.615 37.0801 33.596C36.8943 33.5868 36.6879 33.5768 36.4632 33.5666C36.2374 33.5611 35.9921 33.5655 35.7288 33.5652C35.2014 33.5701 34.6004 33.5551 33.9376 33.6023C33.6058 33.6201 33.2584 33.6379 32.896 33.6572C32.5343 33.6797 32.1591 33.7271 31.7703 33.7631C30.991 33.825 30.1662 33.9624 29.2965 34.0904C27.5644 34.392 25.6754 34.8235 23.7377 35.4332C21.8048 36.0577 20.0152 36.8008 18.4271 37.5581C17.6429 37.9563 16.8911 38.3237 16.2184 38.7236C15.8795 38.9193 15.5458 39.0959 15.2378 39.2889C14.9308 39.4823 14.636 39.6687 14.3552 39.8464C13.7854 40.1911 13.3032 40.5521 12.8689 40.8527C12.6541 41.0058 12.45 41.1439 12.2688 41.2791C12.0912 41.4178 11.9284 41.5446 11.781 41.6602C11.4949 41.8863 11.2696 42.0636 11.1086 42.1904C11.0376 42.2485 10.9806 42.2945 10.9361 42.3307C10.8979 42.3638 10.8794 42.3808 10.8801 42.3822Z" fill="#263238"/>
<path d="M12.1394 47.6097C12.1411 47.6114 12.1626 47.5971 12.2033 47.5689C12.2499 47.535 12.3094 47.4922 12.3841 47.4381C12.5482 47.3158 12.7777 47.145 13.0701 46.9279C13.2192 46.8157 13.3844 46.692 13.5638 46.5568C13.7467 46.425 13.9521 46.2897 14.1687 46.14C14.6064 45.8463 15.0914 45.4908 15.6626 45.1523C15.9449 44.9774 16.2404 44.7941 16.5477 44.6031C16.8564 44.4132 17.1904 44.239 17.5297 44.0457C18.203 43.6506 18.9549 43.2885 19.7376 42.8944C21.3236 42.1451 23.109 41.4075 25.0353 40.7855C26.9672 40.1779 28.8488 39.744 30.5747 39.4369C31.4412 39.3062 32.263 39.166 33.0398 39.0994C33.4276 39.0612 33.8007 39.0114 34.1617 38.9859C34.5227 38.9638 34.8687 38.9432 35.2002 38.923C35.861 38.87 36.4606 38.8788 36.9869 38.8666C37.2502 38.8635 37.4955 38.8557 37.7203 38.8573C37.945 38.8641 38.1503 38.8703 38.3369 38.8756C38.7006 38.885 38.9861 38.8914 39.19 38.8966C39.2821 38.8977 39.3547 38.8982 39.4124 38.8985C39.4628 38.8982 39.4885 38.8974 39.4881 38.8949C39.4881 38.8932 39.4628 38.8896 39.4127 38.8854C39.3558 38.8813 39.2828 38.8766 39.1915 38.87C38.9872 38.8589 38.7017 38.8439 38.3383 38.8249C38.1525 38.8157 37.9461 38.8057 37.7214 38.7954C37.4956 38.79 37.2503 38.7944 36.987 38.7941C36.4596 38.799 35.8586 38.784 35.1957 38.8312C34.864 38.8489 34.5165 38.8668 34.1549 38.8858C33.7932 38.9082 33.418 38.9556 33.0292 38.9917C32.2499 39.0535 31.425 39.1909 30.5554 39.3189C28.8233 39.6206 26.9343 40.0521 24.9966 40.6618C23.0637 41.2863 21.2741 42.0293 19.686 42.7866C18.9011 43.1852 18.15 43.5522 17.477 43.9514C17.1381 44.1471 16.8044 44.3237 16.4964 44.5168C16.1894 44.7102 15.8946 44.8966 15.6137 45.0742C15.0446 45.4186 14.5617 45.78 14.1275 46.0806C13.9126 46.2336 13.7085 46.3717 13.5274 46.507C13.3497 46.6456 13.187 46.7724 13.0396 46.8881C12.7534 47.1141 12.5281 47.2914 12.3671 47.4182C12.2962 47.4764 12.2392 47.5223 12.1946 47.5585C12.1567 47.5906 12.1376 47.608 12.1394 47.6097Z" fill="#263238"/>
<path d="M13.7685 52.6676C13.7702 52.6693 13.7918 52.655 13.8324 52.6268C13.879 52.5929 13.9385 52.5501 14.0132 52.496C14.1773 52.3737 14.4068 52.2029 14.6992 51.9858C14.8484 51.8736 15.0135 51.7499 15.1929 51.6147C15.3765 51.4826 15.5813 51.3476 15.7979 51.1979C16.2355 50.9042 16.7206 50.5487 17.2917 50.2102C17.574 50.0353 17.8695 49.852 18.1768 49.661C18.4855 49.4711 18.8195 49.2969 19.1588 49.1036C19.8322 48.7085 20.584 48.3464 21.3674 47.9519C22.9534 47.2026 24.7388 46.4651 26.6652 45.843C28.597 45.2355 30.4786 44.8016 32.2045 44.4945C33.0711 44.3637 33.8928 44.2235 34.6697 44.1569C35.0574 44.1188 35.4306 44.069 35.7915 44.0434C36.1525 44.0214 36.4985 44.0008 36.83 43.9806C37.4915 43.9272 38.0904 43.9363 38.6167 43.9242C38.88 43.9211 39.1246 43.9136 39.3501 43.9148C39.5748 43.9216 39.7801 43.9279 39.9667 43.9332C40.33 43.9418 40.6159 43.9489 40.8199 43.9541C40.9119 43.9552 40.9845 43.9558 41.0422 43.9561C41.0926 43.9558 41.1183 43.9549 41.1179 43.9525C41.1179 43.9508 41.0926 43.9471 41.0426 43.943C40.9856 43.9389 40.9126 43.9342 40.8213 43.9275C40.617 43.9164 40.3315 43.9014 39.9681 43.8824C39.7823 43.8733 39.5759 43.8632 39.3512 43.853C39.1254 43.8476 38.8801 43.852 38.6168 43.8516C38.0894 43.8565 37.4884 43.8415 36.8256 43.8887C36.4938 43.9065 36.1464 43.9243 35.7847 43.9433C35.423 43.9657 35.0478 44.0131 34.659 44.0492C33.8797 44.111 33.0549 44.2484 32.1852 44.3765C30.4531 44.6781 28.5641 45.1096 26.6264 45.7193C24.6935 46.3438 22.9039 47.0869 21.3158 47.8442C20.5316 48.2424 19.7798 48.6097 19.1071 49.0097C18.7682 49.2053 18.4345 49.382 18.1265 49.575C17.8195 49.7684 17.5247 49.9548 17.2439 50.1325C16.6748 50.4768 16.1919 50.8382 15.7576 51.1388C15.5428 51.2919 15.3387 51.43 15.1575 51.5652C14.9799 51.7038 14.8171 51.8306 14.6697 51.9463C14.3836 52.1724 14.1583 52.3497 13.9973 52.4764C13.9263 52.5346 13.8693 52.5806 13.8248 52.6168C13.7859 52.6485 13.7667 52.6659 13.7685 52.6676Z" fill="#263238"/>
<path d="M15.1586 57.8344C15.1603 57.8362 15.1819 57.8218 15.2225 57.7936C15.2691 57.7598 15.3286 57.7169 15.4033 57.6629C15.5674 57.5406 15.7969 57.3698 16.0893 57.1527C16.2385 57.0405 16.4036 56.9168 16.583 56.7815C16.7659 56.6498 16.9714 56.5144 17.188 56.3648C17.6257 56.0711 18.1107 55.7155 18.6815 55.3764C18.9638 55.2015 19.2592 55.0182 19.5666 54.8272C19.8753 54.6373 20.2093 54.463 20.5486 54.2698C21.2219 53.8747 21.9737 53.5126 22.7572 53.1181C24.3432 52.3688 26.1286 51.6313 28.0549 51.0092C29.9868 50.4016 31.8684 49.9678 33.5943 49.6606C34.4608 49.5299 35.2822 49.389 36.0594 49.3231C36.4472 49.2849 36.8203 49.2351 37.1813 49.2096C37.5423 49.1875 37.8883 49.1669 38.2197 49.1468C38.8812 49.0933 39.4801 49.1025 40.0065 49.0903C40.2698 49.0872 40.5151 49.0794 40.7398 49.081C40.9646 49.0878 41.1699 49.094 41.3564 49.0993C41.7202 49.1087 42.0057 49.1151 42.2096 49.1203C42.3017 49.1214 42.3743 49.122 42.432 49.1223C42.4823 49.1219 42.508 49.1211 42.5077 49.1186C42.5077 49.1169 42.4823 49.1133 42.4323 49.1091C42.3754 49.105 42.3024 49.1003 42.2104 49.094C42.0061 49.0829 41.7206 49.0679 41.3579 49.0486C41.1713 49.0398 40.9657 49.0294 40.7409 49.0192C40.5151 49.0137 40.2699 49.0181 40.0065 49.0178C39.4792 49.0227 38.8782 49.0077 38.2153 49.0549C37.8835 49.0726 37.5361 49.0905 37.1738 49.1098C36.8121 49.1323 36.4369 49.1796 36.0481 49.2157C35.2688 49.2775 34.4439 49.415 33.5742 49.543C31.8421 49.8446 29.9532 50.2761 28.0154 50.8858C26.0825 51.5103 24.293 52.2534 22.7052 53.0114C21.921 53.4096 21.1692 53.7769 20.4962 54.1762C20.1573 54.3719 19.8236 54.5485 19.5156 54.7415C19.2086 54.9349 18.9138 55.1213 18.6329 55.299C18.0639 55.6433 17.5809 56.0047 17.1467 56.3053C16.9318 56.4584 16.7278 56.5965 16.5466 56.7317C16.3689 56.8704 16.2062 56.9972 16.0588 57.1128C15.7726 57.3389 15.5473 57.5162 15.387 57.6426C15.3161 57.7008 15.2591 57.7467 15.2146 57.7829C15.176 57.8153 15.1568 57.8327 15.1586 57.8344Z" fill="#263238"/>
<path d="M66.7775 7.87536C66.7772 7.87294 66.7529 7.86965 66.7035 7.86514C66.6473 7.86068 66.5757 7.85528 66.4864 7.84759C66.2857 7.83476 66.0057 7.81693 65.65 7.79407C65.4676 7.78319 65.2654 7.77106 65.0448 7.75871C64.8236 7.75016 64.5828 7.75314 64.324 7.74968C63.8064 7.74966 63.2172 7.72697 62.5658 7.76756C62.2399 7.78147 61.8988 7.79616 61.5437 7.81095C61.188 7.82782 60.82 7.8724 60.4385 7.90394C59.6728 7.95807 58.8632 8.08433 58.0082 8.20329C56.306 8.48468 54.4494 8.89386 52.5446 9.48088C50.6437 10.0841 48.8833 10.8056 47.3227 11.5447C46.5517 11.9346 45.8131 12.2918 45.1523 12.6841C44.82 12.8755 44.4915 13.0487 44.1894 13.2379C43.8887 13.4281 43.5987 13.6104 43.3231 13.7845C42.7637 14.1222 42.2909 14.4777 41.865 14.7724C41.654 14.9226 41.4537 15.058 41.2767 15.1911C41.1022 15.3273 40.9429 15.4523 40.7986 15.5656C40.5184 15.7878 40.2976 15.9619 40.1401 16.087C40.0702 16.1437 40.0146 16.189 39.9708 16.2249C39.9336 16.2566 39.9144 16.274 39.9158 16.275C39.9176 16.2767 39.9384 16.2627 39.9791 16.2345C40.025 16.201 40.0834 16.1595 40.1561 16.1066C40.317 15.9867 40.5423 15.818 40.8288 15.6047C40.9749 15.495 41.1365 15.373 41.3128 15.2402C41.4922 15.1102 41.6942 14.9783 41.9066 14.8308C42.3363 14.542 42.8116 14.1931 43.372 13.8609C43.649 13.6895 43.9393 13.5097 44.2407 13.3225C44.5435 13.1364 44.8723 12.9657 45.205 12.7766C45.8665 12.3892 46.6048 12.0365 47.3743 11.6508C48.9332 10.9203 50.6884 10.204 52.5827 9.60325C54.4815 9.01833 56.3308 8.60679 58.0261 8.32026C58.8774 8.19891 59.6848 8.06852 60.4475 8.00992C60.8279 7.97631 61.1948 7.92966 61.5488 7.90935C61.9032 7.89146 62.243 7.87401 62.5681 7.857C63.2175 7.81055 63.8059 7.82669 64.3218 7.81981C64.58 7.82017 64.8207 7.81373 65.0416 7.81814C65.2622 7.82704 65.4641 7.83503 65.6464 7.84245C66.0032 7.85528 66.2835 7.86516 66.484 7.87212C66.574 7.87429 66.6459 7.87519 66.7021 7.8762C66.7518 7.87794 66.7768 7.87743 66.7775 7.87536Z" fill="#263238"/>
<path d="M68.2382 12.9869C68.2385 12.9841 68.2128 12.9815 68.1635 12.977C68.1065 12.9729 68.0332 12.9675 67.9419 12.9609C67.738 12.9488 67.4521 12.9313 67.0891 12.9096C66.9025 12.8991 66.6972 12.8876 66.4725 12.8757C66.2467 12.8685 66.0014 12.8712 65.7377 12.8684C65.2104 12.8699 64.6091 12.849 63.9465 12.8917C63.6144 12.9071 63.2666 12.9225 62.9053 12.9387C62.543 12.9563 62.1681 13.0026 61.7793 13.0353C60.999 13.0916 60.1738 13.2197 59.3034 13.3411C57.5696 13.6272 55.6765 14.0401 53.7335 14.6326C51.7947 15.2402 49.9976 15.9664 48.4025 16.7099C47.6149 17.103 46.8596 17.4617 46.1835 17.8565C45.8432 18.0494 45.5077 18.2243 45.1976 18.4132C44.8896 18.6046 44.5934 18.7882 44.3108 18.9642C43.7386 19.304 43.2533 19.6606 42.8166 19.9581C42.6 20.1094 42.3959 20.2458 42.2131 20.3793C42.0347 20.5166 41.8709 20.6431 41.7225 20.7567C41.4342 20.9803 41.2082 21.1562 41.0469 21.2823C40.9749 21.3401 40.9175 21.3854 40.873 21.4216C40.8341 21.4533 40.815 21.4707 40.8167 21.4724C40.8184 21.4742 40.8403 21.4605 40.881 21.4323C40.9279 21.3992 40.9874 21.3563 41.0625 21.303C41.2273 21.182 41.4585 21.013 41.7523 20.7969C41.9021 20.686 42.0676 20.563 42.2484 20.4288C42.433 20.2988 42.6392 20.1648 42.8568 20.0172C43.2966 19.7259 43.7841 19.3752 44.358 19.0405C44.6413 18.8677 44.9382 18.6871 45.2472 18.4979C45.558 18.3121 45.8938 18.1396 46.2334 17.9487C46.9102 17.5588 47.6651 17.2046 48.4514 16.8156C50.0447 16.0808 51.837 15.3605 53.7695 14.7543C55.7062 14.1632 57.5917 13.749 59.3193 13.4574C60.1865 13.3332 61.0096 13.201 61.7872 13.1409C62.1749 13.1062 62.5488 13.0578 62.9097 13.0374C63.2704 13.0181 63.6174 12.9996 63.9485 12.9822C64.61 12.9339 65.2099 12.9486 65.7363 12.9399C65.9992 12.9396 66.2449 12.9324 66.47 12.9365C66.6944 12.9443 66.8997 12.9523 67.0862 12.9593C67.4496 12.9714 67.7355 12.9802 67.9391 12.9865C68.0304 12.9879 68.1044 12.9895 68.1614 12.9902C68.2118 12.9898 68.2375 12.989 68.2382 12.9869Z" fill="#263238"/>
<path d="M70.5738 17.9322C70.5744 17.9301 70.5484 17.9268 70.4991 17.9223C70.4421 17.9182 70.3688 17.9128 70.2775 17.9062C70.0735 17.894 69.7877 17.8766 69.4247 17.8548C69.2385 17.845 69.0328 17.8329 68.8081 17.8209C68.5823 17.8138 68.337 17.8164 68.0733 17.8137C67.546 17.8151 66.9446 17.7942 66.2821 17.837C65.95 17.8523 65.6022 17.8677 65.2409 17.884C64.8786 17.9016 64.5037 17.9479 64.1149 17.9805C63.3353 18.0365 62.5094 18.1649 61.639 18.2864C59.9052 18.5725 58.0121 18.9854 56.0691 19.5778C54.1303 20.1855 52.3331 20.9117 50.7381 21.6552C49.9505 22.0483 49.1952 22.407 48.5191 22.8017C48.1787 22.9947 47.8437 23.1703 47.5332 23.3585C47.2252 23.5498 46.929 23.7335 46.6464 23.9094C46.0742 24.2493 45.5892 24.6065 45.1525 24.904C44.9359 25.0554 44.7319 25.1918 44.549 25.3253C44.3706 25.4626 44.2069 25.589 44.0584 25.7026C43.7702 25.9263 43.5442 26.1022 43.3828 26.2283C43.3108 26.2861 43.2535 26.3314 43.209 26.3676C43.17 26.3993 43.1509 26.4167 43.1526 26.4184C43.1544 26.4201 43.1763 26.4065 43.2169 26.3783C43.2639 26.3451 43.3233 26.3022 43.3984 26.2489C43.5632 26.128 43.7944 25.9589 44.0882 25.7428C44.2381 25.632 44.4036 25.509 44.5844 25.3748C44.769 25.2447 44.9744 25.1111 45.1924 24.9625C45.6322 24.6712 46.1196 24.3205 46.6936 23.9858C46.9769 23.8129 47.2738 23.6324 47.5832 23.4438C47.8939 23.258 48.2297 23.0855 48.5693 22.8947C49.2461 22.5047 50.0011 22.1505 50.7873 21.7616C52.3806 21.0267 54.1729 20.3064 56.1055 19.7002C58.0415 19.1095 59.9276 18.695 61.6552 18.4034C62.5224 18.2792 63.3456 18.1469 64.1231 18.0869C64.5108 18.0522 64.8847 18.0038 65.2457 17.9834C65.6063 17.9641 65.9534 17.9455 66.2844 17.9282C66.9459 17.8799 67.5459 17.8946 68.0722 17.8859C68.3352 17.8855 68.5808 17.8784 68.8059 17.8824C69.0307 17.8909 69.2363 17.8979 69.4222 17.9053C69.7852 17.9167 70.0714 17.9262 70.275 17.9324C70.3664 17.9339 70.44 17.9348 70.4973 17.9361C70.548 17.9348 70.5737 17.9339 70.5738 17.9322Z" fill="#263238"/>
<path d="M71.8875 23.06C71.8872 23.0576 71.8622 23.0546 71.8125 23.0495C71.7555 23.0453 71.6823 23.04 71.5916 23.033C71.3877 23.0208 71.1021 23.0041 70.7388 22.9816C70.5522 22.9711 70.3469 22.9597 70.1222 22.9477C69.8964 22.9406 69.6511 22.9432 69.3875 22.9405C68.8601 22.9419 68.2588 22.9211 67.5963 22.9638C67.2641 22.9791 66.9171 22.9942 66.555 23.0108C66.1927 23.0284 65.8178 23.0747 65.4287 23.1067C64.6491 23.1626 63.8232 23.291 62.9528 23.4125C61.219 23.6986 59.3259 24.1115 57.3829 24.7039C55.4441 25.3116 53.6469 26.0378 52.0519 26.7813C51.2643 27.1744 50.509 27.5331 49.8329 27.9279C49.4925 28.1208 49.1575 28.2964 48.847 28.4846C48.5383 28.6763 48.2428 28.8596 47.9602 29.0355C47.388 29.3754 46.903 29.7326 46.4663 30.0302C46.2497 30.1815 46.0457 30.3179 45.8628 30.4514C45.6844 30.5887 45.5203 30.7144 45.3722 30.8287C45.0839 31.0524 44.8579 31.2283 44.6966 31.3544C44.6253 31.4119 44.5673 31.4575 44.5228 31.4937C44.4842 31.5261 44.4647 31.5428 44.4664 31.5445C44.4682 31.5462 44.4901 31.5326 44.5314 31.504C44.5784 31.4709 44.6382 31.4287 44.7129 31.3747C44.8777 31.2537 45.1089 31.0847 45.4027 30.8686C45.5526 30.7578 45.7181 30.6347 45.8989 30.5006C46.0835 30.3705 46.2896 30.2365 46.5069 30.0883C46.9467 29.7969 47.4341 29.4462 48.0081 29.1115C48.2914 28.9387 48.5883 28.7582 48.8973 28.5689C49.2081 28.3831 49.5435 28.2099 49.8835 28.0197C50.5603 27.6298 51.3152 27.2756 52.1015 26.8866C53.6944 26.1511 55.4871 25.4315 57.4196 24.8253C59.3563 24.2342 61.2418 23.82 62.97 23.5281C63.8373 23.4039 64.6604 23.2717 65.4376 23.2109C65.8253 23.1762 66.1992 23.1278 66.5602 23.1074C66.9211 23.0888 67.2678 23.0696 67.5989 23.0522C68.2604 23.0039 68.8604 23.0186 69.3867 23.0099C69.6497 23.0096 69.8953 23.0024 70.1204 23.0065C70.3448 23.0143 70.5501 23.0223 70.7367 23.0293C71.1 23.0414 71.3859 23.0502 71.5895 23.0565C71.6808 23.0579 71.7548 23.0595 71.8118 23.0602C71.8611 23.0629 71.8868 23.0621 71.8875 23.06Z" fill="#263238"/>
<path d="M73.8115 28.0789C73.8115 28.0772 73.7862 28.0736 73.7365 28.0684C73.6795 28.0643 73.6062 28.0589 73.5149 28.0522C73.311 28.0401 73.0251 28.0227 72.6621 28.0009C72.4759 27.9911 72.2702 27.979 72.0455 27.967C71.8197 27.9599 71.5744 27.9625 71.3107 27.9598C70.7834 27.9612 70.1821 27.9403 69.5195 27.9831C69.1874 27.9984 68.8396 28.0138 68.4783 28.03C68.116 28.0476 67.7411 28.094 67.3523 28.1266C66.5727 28.1826 65.7468 28.311 64.8764 28.4325C63.1426 28.7186 61.2495 29.1315 59.3066 29.7239C57.3677 30.3315 55.5706 31.0577 53.9755 31.8013C53.1879 32.1944 52.4326 32.553 51.7565 32.9478C51.4162 33.1407 51.0811 33.3164 50.7706 33.5046C50.4626 33.6959 50.1664 33.8795 49.8838 34.0555C49.3116 34.3954 48.8266 34.7526 48.39 35.0501C48.1734 35.2015 47.9693 35.3379 47.7864 35.4714C47.6073 35.609 47.4439 35.7344 47.2958 35.8487C47.0076 36.0723 46.7816 36.2483 46.6202 36.3744C46.549 36.4318 46.4909 36.4775 46.4471 36.5133C46.4081 36.545 46.389 36.5624 46.3907 36.5641C46.3918 36.5662 46.4144 36.5522 46.4551 36.524C46.502 36.4909 46.5614 36.448 46.6365 36.3946C46.8013 36.2737 47.0325 36.1046 47.3263 35.8885C47.4762 35.7777 47.6417 35.6547 47.8225 35.5205C48.0071 35.3905 48.2126 35.2568 48.4305 35.1082C48.8703 34.8169 49.3578 34.4662 49.9317 34.1315C50.215 33.9587 50.5119 33.7781 50.8209 33.5889C51.1317 33.4031 51.4671 33.2299 51.8071 33.0397C52.4839 32.6498 53.2388 32.2956 54.0251 31.9066C55.618 31.1711 57.4107 30.4515 59.3432 29.8452C61.2792 29.2546 63.1654 28.84 64.893 28.5484C65.7602 28.4242 66.5833 28.292 67.3609 28.2319C67.7486 28.1972 68.1225 28.1488 68.4834 28.1284C68.844 28.1091 69.1911 28.0906 69.5222 28.0732C70.1837 28.0249 70.7836 28.0396 71.31 28.0309C71.5729 28.0306 71.8186 28.0234 72.0437 28.0275C72.2681 28.0353 72.4734 28.0433 72.6599 28.0503C73.0229 28.0617 73.3092 28.0712 73.5134 28.0771C73.6048 28.0786 73.6788 28.0802 73.7358 28.0808C73.7851 28.0819 73.8108 28.081 73.8115 28.0789Z" fill="#263238"/>
<path d="M75.3341 33.1695C75.3338 33.1671 75.3088 33.1641 75.2595 33.1596C75.2025 33.1555 75.1292 33.1501 75.0378 33.1435C74.8339 33.1313 74.548 33.1139 74.185 33.0921C73.9985 33.0816 73.7932 33.0702 73.5684 33.0582C73.3426 33.0511 73.0974 33.0537 72.8337 33.051C72.3067 33.0531 71.705 33.0316 71.0425 33.0743C70.7104 33.0896 70.3626 33.1051 70.0013 33.1213C69.6389 33.1389 69.264 33.1852 68.8749 33.2172C68.0953 33.2731 67.2694 33.4015 66.399 33.523C64.6652 33.8091 62.7721 34.222 60.8299 34.8141C58.8911 35.4217 57.0939 36.1479 55.4988 36.8914C54.7112 37.2845 53.9559 37.6432 53.2798 38.038C52.9395 38.2309 52.6044 38.4065 52.294 38.5948C51.9853 38.7864 51.6898 38.9697 51.4068 39.145C50.8349 39.4855 50.3496 39.8421 49.9129 40.1396C49.6963 40.291 49.4923 40.4274 49.3094 40.5609C49.131 40.6981 48.9669 40.8239 48.8188 40.9382C48.5305 41.1618 48.3045 41.3378 48.1432 41.4639C48.0712 41.5217 48.0139 41.567 47.9694 41.6032C47.9304 41.6349 47.9113 41.6523 47.913 41.654C47.9148 41.6557 47.9367 41.6421 47.9773 41.6138C48.0243 41.5807 48.0837 41.5378 48.1588 41.4845C48.3236 41.3635 48.5548 41.1945 48.8486 40.9784C48.9985 40.8676 49.164 40.7445 49.3448 40.6104C49.5294 40.4803 49.7355 40.3463 49.9528 40.1981C50.3926 39.9068 50.88 39.5561 51.4543 39.222C51.7376 39.0492 52.0345 38.8687 52.3435 38.6794C52.6543 38.4936 52.9897 38.3204 53.3297 38.1302C54.0065 37.7403 54.7615 37.3861 55.5477 36.9971C57.1406 36.2616 58.9333 35.542 60.8659 34.9358C62.8019 34.3451 64.688 33.9305 66.4156 33.639C67.2828 33.5147 68.1059 33.3825 68.8835 33.3224C69.2712 33.2878 69.6451 33.2393 70.006 33.219C70.3667 33.1997 70.7137 33.1811 71.0448 33.1637C71.7063 33.1155 72.3063 33.1302 72.8326 33.1215C73.0956 33.1211 73.3412 33.114 73.5663 33.118C73.7907 33.1258 73.9967 33.1334 74.1825 33.1408C74.5456 33.1522 74.8318 33.1617 75.0354 33.168C75.1267 33.1695 75.2004 33.1704 75.2577 33.1717C75.3084 33.1721 75.3341 33.1712 75.3341 33.1695Z" fill="#263238"/>
<path d="M77.1155 38.2137C77.1162 38.2116 77.0902 38.2083 77.0409 38.2038C76.9839 38.1997 76.9113 38.194 76.8199 38.1873C76.616 38.1752 76.3301 38.1577 75.9671 38.136C75.7809 38.1262 75.5753 38.1141 75.3505 38.1021C75.1247 38.0949 74.8795 38.0976 74.6158 38.0949C74.0884 38.0963 73.4878 38.0751 72.8246 38.1181C72.4925 38.1335 72.1447 38.1489 71.7834 38.1651C71.421 38.1827 71.0461 38.2291 70.6574 38.2617C69.8777 38.3176 69.0518 38.4461 68.1815 38.5676C66.4469 38.854 64.5546 39.2665 62.6116 39.859C60.6728 40.4666 58.8756 41.1928 57.2806 41.9363C56.493 42.3294 55.7377 42.6881 55.0615 43.0829C54.7212 43.2758 54.3861 43.4514 54.0757 43.6397C53.7677 43.831 53.4715 44.0146 53.1889 44.1906C52.6167 44.5304 52.1313 44.887 51.6947 45.1845C51.4781 45.3359 51.274 45.4723 51.0911 45.6058C50.9121 45.7434 50.7486 45.8688 50.6005 45.9831C50.3123 46.2067 50.0863 46.3826 49.925 46.5088C49.853 46.5666 49.7956 46.6118 49.7511 46.6481C49.7122 46.6798 49.693 46.6971 49.6948 46.6989C49.6965 46.7006 49.7184 46.687 49.7598 46.6584C49.8067 46.6252 49.8662 46.5824 49.9413 46.529C50.1061 46.4081 50.3373 46.239 50.6311 46.0229C50.7809 45.9121 50.9464 45.7891 51.1272 45.6549C51.3118 45.5248 51.518 45.3909 51.7353 45.2426C52.175 44.9513 52.6625 44.6006 53.2367 44.2666C53.5201 44.0937 53.8166 43.9125 54.126 43.7239C54.4368 43.5381 54.7722 43.3649 55.1122 43.1748C55.7883 42.7852 56.5439 42.4306 57.3302 42.0417C58.9231 41.3061 60.7158 40.5865 62.6483 39.9803C64.585 39.3893 66.4704 38.9751 68.1987 38.6832C69.066 38.5589 69.8891 38.4267 70.6663 38.3659C71.054 38.3313 71.4279 38.2828 71.7888 38.2625C72.1495 38.2432 72.4965 38.2246 72.8276 38.2072C73.4891 38.159 74.0891 38.1736 74.6154 38.165C74.8784 38.1646 75.124 38.1575 75.3491 38.1615C75.5738 38.17 75.7788 38.1773 75.9653 38.1843C76.3284 38.1958 76.6146 38.2052 76.8189 38.2111C76.9102 38.2126 76.9842 38.2142 77.0412 38.2149C77.0898 38.2163 77.1155 38.2154 77.1155 38.2137Z" fill="#263238"/>
<path d="M20.923 64.6522C21.4448 67.1443 21.461 69.2065 21.1723 71.7415C22.4607 70.5483 23.4455 69.0324 24.0087 67.3766C24.6904 67.9741 25.4261 69.5878 25.7425 70.6229C26.9818 68.2642 27.471 65.0647 27.0688 62.4452L20.923 64.6522Z" fill="#455A64"/>
<path d="M15.9144 66.5431C15.9155 66.5452 15.9346 66.5399 15.9714 66.5282C16.0152 66.5131 16.0687 66.4948 16.1348 66.4719C16.287 66.4159 16.4955 66.3403 16.7572 66.2439C17.308 66.0399 18.0865 65.7516 19.0437 65.3974C20.9749 64.6848 23.6482 63.7169 26.6144 62.6852C29.5819 61.6546 32.2805 60.7576 34.2405 60.1315C35.2132 59.8239 36.0045 59.5731 36.5643 59.3956C36.8302 59.311 37.0415 59.2443 37.1961 59.1949C37.2618 59.1731 37.3153 59.1547 37.3591 59.1396C37.396 59.1262 37.414 59.1189 37.4137 59.1164C37.4133 59.114 37.3935 59.118 37.3553 59.1269C37.3105 59.1382 37.2552 59.1531 37.1885 59.1694C37.0318 59.2129 36.8184 59.272 36.5501 59.3467C35.9966 59.5037 35.1973 59.7387 34.2135 60.0433C32.2451 60.6477 29.5407 61.5312 26.5725 62.5622C23.6056 63.5942 20.9358 64.5759 19.0114 65.3109C18.0491 65.6772 17.2734 65.9815 16.7388 66.1953C16.4799 66.3007 16.2752 66.3839 16.1251 66.4457C16.0615 66.4734 16.0097 66.4951 15.9666 66.5134C15.9315 66.5319 15.9137 66.5417 15.9144 66.5431Z" fill="#263238"/>
</svg>
