<svg width="75" height="85" viewBox="0 0 75 85" fill="none" xmlns="http://www.w3.org/2000/svg">
<path d="M69.9122 40.3025V14.3189C69.9122 13.9294 69.8127 13.573 69.6645 13.245C69.7538 12.9795 69.9122 12.7453 69.9122 12.4512C69.9122 11.3399 69.225 10.3623 68.2269 10.0558L35.7096 0.0948779C35.2923 -0.031626 34.8523 -0.031626 34.435 0.0948779L1.91768 10.0558C0.919559 10.3623 0.232361 11.3399 0.232361 12.4512C0.232361 13.5626 0.919559 14.5402 1.91768 14.8467L14.1683 18.5993V21.5464C14.1683 24.3795 15.6359 26.9841 17.9064 28.1806C28.3175 33.6669 41.8226 33.6644 52.2383 28.183C54.5088 26.9866 55.9764 24.382 55.9764 21.5464V18.5993L65.2671 15.7535V40.3025C62.5694 41.334 60.6217 44.0722 60.6217 47.3145V52.295C60.6217 53.6714 61.6606 54.7852 62.9444 54.7852H72.235C73.5189 54.7852 74.5577 53.6714 74.5577 52.295V47.3145C74.5576 44.0722 72.6099 41.3341 69.9122 40.3025Z" fill="#7E7CF0"/>
<path d="M54.0519 32.9848C48.2135 36.0611 41.5699 37.6856 34.84 37.6856C28.1102 37.6856 21.4643 36.0586 15.6236 32.9823C15.0531 32.6817 14.5807 32.2361 14.0737 31.839C14.5699 40.8022 19.0678 48.4078 25.4244 52.3044C25.4244 52.3044 28.685 53.9561 29.7037 54.2664L29.7077 54.2582C31.3576 54.7626 33.0562 55.1174 34.8399 55.1174C36.473 55.1174 38.7992 54.7679 41.1238 53.8477C42.1945 53.4389 44.2479 52.3095 44.2479 52.3095C50.6084 48.4143 55.1094 40.8063 55.6062 31.84C55.0978 32.2378 54.624 32.6835 54.0519 32.9848Z" fill="#7E7CF0"/>
<path d="M34.8397 60.0977C32.9674 60.0977 31.1654 59.7879 29.4097 59.3335L34.8397 68.0664L40.2393 59.3418C38.4927 59.7909 36.7014 60.0977 34.8397 60.0977Z" fill="#7E7CF0"/>
<path d="M48.21 55.6312C48.1688 55.6609 48.1226 55.6814 48.0816 55.7109L46.1281 58.8526C46.1281 58.9685 37.2225 73.2491 37.1626 73.3456V85H67.3572C68.641 85 69.6799 83.8862 69.6799 82.5098C69.6799 68.9108 60.3445 57.7479 48.21 55.6312ZM53.4212 75.0391H48.7759C47.4921 75.0391 46.4532 73.9253 46.4532 72.5489C46.4532 71.1724 47.4921 70.0586 48.7759 70.0586H53.4212C54.705 70.0586 55.7439 71.1724 55.7439 72.5489C55.7439 73.9253 54.705 75.0391 53.4212 75.0391Z" fill="#7E7CF0"/>
<path d="M21.556 55.682C21.5182 55.6549 21.4761 55.6362 21.4383 55.6088C9.31666 57.7399 0 68.9192 0 82.5098C0 83.8862 1.03885 85 2.32266 85H32.5173V73.3455C21.9911 56.388 24.1391 59.85 21.556 55.682Z" fill="#7E7CF0"/>
</svg>
