<svg width="107" height="96" viewBox="0 0 107 96" fill="none" xmlns="http://www.w3.org/2000/svg">
<path d="M20.7733 15.3328C29.7233 9.9192 39.1269 3.93786 49.3866 3.83259C57.4381 3.59622 65.4311 6.32827 72.0639 10.763C81.9794 16.8778 89.9218 26.6206 95.4964 37.5902C99.9632 46.4731 107.401 63.7942 99.6605 72.905C93.2794 80.3132 81.7433 75.6478 74.1116 74.7795C70.1823 74.4876 66.547 74.9856 63.0123 77.0939C59.2171 78.9497 56.4634 81.8177 52.9622 84.4634C45.0197 90.3526 35.8681 92.545 26.6074 89.084C18.3542 86.0988 10.8738 79.8305 7.86801 70.8558C4.79568 60.8065 5.25757 48.6493 7.31432 38.5483C9.53109 27.0893 15.6519 19.4276 24.0479 12.9708" fill="#DCB8BB" fill-opacity="0.15"/>
<g opacity="0.6">
<path d="M17.1336 13.2556C24.5211 8.72611 31.9605 3.95547 40.2327 1.61775C48.8979 -0.830876 58.1701 0.293219 66.4793 3.96737C70.7404 5.85162 74.8225 8.46796 78.5671 11.3956C82.4842 14.4582 86.0295 18.0821 89.2164 22.0365C94.5667 28.6751 98.7828 36.3487 102.082 44.4148C104.74 50.9139 107.041 58.175 106.622 65.3681C106.425 68.749 105.453 72.0283 103.526 74.6745C101.435 77.5468 98.3691 79.144 95.1054 79.7275C88.6903 80.8745 82.2153 78.6503 75.8657 77.8091C72.1498 77.3168 68.2659 77.781 64.8061 79.3089C60.6153 81.1597 57.1084 84.172 53.5296 87.1131C47.3172 92.218 40.0088 95.6755 32.1175 95.6485C23.7076 95.6198 15.0211 91.4149 8.96913 84.9804C5.69144 81.4955 3.28454 77.1716 2.04849 72.3567C0.850478 67.69 0.37044 62.8265 0.30013 58.0026C0.228845 53.1115 0.639966 48.2218 1.39088 43.4146C2.17232 38.4124 3.32905 33.5181 5.39501 28.9757C8.84735 21.3851 14.5254 15.4679 20.7438 10.6259C20.8988 10.5052 20.7352 10.2307 20.58 10.3516C13.2995 16.0206 7.00189 23.1123 3.68692 32.3896C2.09094 36.856 1.26037 41.6807 0.666412 46.4329C0.0798121 51.1261 -0.13397 55.8877 0.0828585 60.6304C0.294578 65.2594 0.974373 69.887 2.2788 74.313C3.57864 78.7228 6.29477 82.6887 9.34857 85.8237C15.2287 91.8599 23.4868 95.6721 31.4778 95.9614C38.8656 96.2288 46.0896 93.2689 52.0619 88.6886C53.9782 87.2191 55.794 85.5987 57.6868 84.0936C59.5558 82.6074 61.5275 81.4287 63.5786 80.2798C67.2289 78.2349 71.5703 77.6066 75.6427 78.1077C81.9387 78.8824 88.1924 81.0048 94.5638 80.1416C97.5488 79.7371 100.367 78.5066 102.588 76.2629C104.731 74.0976 106.038 71.1082 106.611 67.9878C107.856 61.2116 105.908 53.943 103.642 47.6404C100.985 40.2493 97.4141 33.1509 93.0931 26.7744C82.369 10.9491 65.3421 -1.12687 47.017 0.0836453C36.0696 0.806574 26.278 7.27405 16.9698 12.9813C16.8033 13.0835 16.9686 13.3568 17.1336 13.2556Z" fill="#DCB8BB" fill-opacity="0.15"/>
</g>
</svg>
