<svg width="73" height="93" viewBox="0 0 73 93" fill="none" xmlns="http://www.w3.org/2000/svg">
<path d="M59.1665 49.5915C66.2826 49.5915 72.0513 43.8228 72.0513 36.7067C72.0513 29.5907 66.2826 23.8219 59.1665 23.8219C52.0504 23.8219 46.2817 29.5907 46.2817 36.7067C46.2817 43.8228 52.0504 49.5915 59.1665 49.5915Z" fill="black"/>
<path d="M59.1669 50.5399C51.539 50.5399 45.3337 44.3346 45.3337 36.7067C45.3337 29.0789 51.539 22.8736 59.1669 22.8736C66.7947 22.8736 73 29.0789 73 36.7067C73 44.3346 66.7947 50.5399 59.1669 50.5399ZM59.1669 24.7704C52.5856 24.7704 47.2305 30.1254 47.2305 36.7067C47.2305 43.288 52.5856 48.6431 59.1669 48.6431C65.7482 48.6431 71.1032 43.288 71.1032 36.7067C71.1032 30.1254 65.7482 24.7704 59.1669 24.7704Z" fill="black"/>
<path d="M58.4967 37.2569V23.3156C58.4967 10.9866 48.4817 0.952647 36.1337 0.952647C34.7857 0.952647 33.4716 1.09319 32.1884 1.32369V6.98438H39.4198V9.65566C45.5907 11.1281 50.1888 16.6806 50.1888 23.3156V36.7068H32.1884V91.8652H44.5744C56.2205 91.8652 65.6475 82.4381 65.6475 70.792V47.1961C65.6475 42.5679 62.6506 38.6416 58.4967 37.2569Z" fill="black"/>
<path d="M44.5743 92.8135H32.1878C31.6636 92.8135 31.2394 92.3893 31.2394 91.8651V36.7067C31.2394 36.1825 31.6636 35.7583 32.1878 35.7583H49.2403V23.3163C49.2403 17.2258 45.1114 11.9893 39.1988 10.5778C38.7728 10.476 38.4709 10.0944 38.4709 9.65538V7.93272H32.1878C31.6636 7.93272 31.2394 7.50854 31.2394 6.98433V1.32364C31.2394 0.864263 31.5691 0.471571 32.0211 0.390069C33.4696 0.130744 34.8144 0.00478594 36.1332 0.00478594C48.9865 0.00478594 59.4447 10.463 59.4447 23.3163V36.5955C63.7495 38.3238 66.5965 42.5007 66.5965 47.1964V70.7913C66.5965 82.9351 56.7181 92.8135 44.5743 92.8135ZM33.1362 90.9167H44.5743C55.6715 90.9167 64.6997 81.8885 64.6997 70.7913V47.1964C64.6997 43.0861 62.0861 39.4537 58.1962 38.1571C57.8091 38.0274 57.5479 37.6643 57.5479 37.2568V23.3163C57.5479 11.5077 47.9418 1.90156 36.1332 1.90156C35.1663 1.90156 34.179 1.97566 33.1362 2.1294V6.03595H39.4192C39.9435 6.03595 40.3676 6.46013 40.3676 6.98433V8.92557C46.7452 10.7834 51.137 16.5979 51.137 23.3163V36.7067C51.137 37.2309 50.7129 37.6551 50.1886 37.6551H33.1362V90.9167Z" fill="black"/>
<path d="M52.8134 23.3V37.6397C52.8134 40.0674 50.708 42.0212 48.2232 41.7746C46.0608 41.547 44.5055 39.5743 44.5055 37.4119V23.8691C44.5055 16.1871 38.5875 9.4914 30.8866 9.2638C22.9391 9.0362 16.3952 15.4283 16.3952 23.3V28.6678C16.3952 29.8818 15.4088 30.8681 14.195 30.8681H10.2876C9.09266 30.8681 8.1063 29.8818 8.1063 28.6678V23.9638C8.1063 12.3176 16.7366 2.1319 28.3259 1.05084C41.6033 -0.182114 52.8134 10.2879 52.8134 23.3Z" fill="white"/>
<path d="M48.6364 42.7434C48.4678 42.7434 48.2993 42.736 48.1289 42.7193C45.5634 42.447 43.5573 40.1168 43.5573 37.4124V23.8701C43.5573 16.546 37.8614 10.4204 30.8597 10.2129C27.2977 10.1425 23.8894 11.4317 21.3184 13.9287C18.7548 16.42 17.3433 19.7468 17.3433 23.2996V28.6676C17.3433 30.4032 15.93 31.8165 14.1943 31.8165H10.2878C8.56143 31.8165 7.15737 30.4032 7.15737 28.6676V23.9645C7.15737 11.6874 16.4171 1.20877 28.2368 0.106639C34.8922 -0.517593 41.2308 1.61443 46.1413 6.08964C50.9833 10.5037 53.7618 16.7775 53.7618 23.2996V37.6402C53.7618 39.0739 53.1487 40.4502 52.0799 41.419C51.1352 42.2729 49.9034 42.7434 48.6364 42.7434ZM30.4707 8.31057C30.6189 8.31057 30.7652 8.31242 30.9152 8.31613C38.9321 8.55322 45.4541 15.5309 45.4541 23.8701V37.4124C45.4541 39.161 46.7137 40.6614 48.3234 40.8318C49.2291 40.9207 50.122 40.6317 50.8073 40.0131C51.4797 39.4036 51.865 38.5386 51.865 37.6402V23.2996C51.865 17.3091 49.3125 11.5484 44.8632 7.49184C40.3528 3.38154 34.5236 1.42549 28.4128 1.99601C17.5582 3.00737 9.05414 12.6561 9.05414 23.9645V28.6676C9.05414 29.3585 9.60799 29.9198 10.2878 29.9198H14.1943C14.8853 29.9198 15.4465 29.3585 15.4465 28.6676V23.2996C15.4465 19.23 17.0617 15.4198 19.9958 12.5691C22.8317 9.8128 26.5364 8.31057 30.4707 8.31057Z" fill="black"/>
<path d="M59.9572 47.1961V70.792C59.9572 82.4382 50.5301 91.8652 38.884 91.8652H22.0216C10.3754 91.8652 0.948474 82.4382 0.948474 70.792V47.1961C0.948474 41.392 5.65244 36.7069 11.4376 36.7069H49.468C55.2531 36.7069 59.9572 41.392 59.9572 47.1961Z" fill="#E5E4FF"/>
<path d="M38.8839 92.8135H22.0222C9.87839 92.8135 0 82.9351 0 70.7913V47.1964C0 40.8892 5.13093 35.7583 11.4381 35.7583H49.4681C55.7753 35.7583 60.9062 40.8892 60.9062 47.1964V70.7913C60.9062 82.9351 51.0278 92.8135 38.8839 92.8135ZM11.4381 37.6551C6.17749 37.6551 1.89678 41.9358 1.89678 47.1964V70.7913C1.89678 81.8885 10.925 90.9167 22.0222 90.9167H38.8839C49.9812 90.9167 59.0094 81.8885 59.0094 70.7913V47.1964C59.0094 41.9358 54.7287 37.6551 49.4681 37.6551H11.4381Z" fill="black"/>
<path d="M38.559 57.8867C38.559 60.6882 37.1237 63.1743 34.9351 64.6276V74.3094C34.9351 76.7784 32.9389 78.7917 30.4528 78.7917C27.9668 78.7917 25.9706 76.7784 25.9706 74.3094V64.6276C23.782 63.1743 22.3466 60.6882 22.3466 57.8867C22.3466 53.4224 25.9881 49.7805 30.4528 49.7805C34.9176 49.7805 38.559 53.4224 38.559 57.8867Z" fill="#7E7CF0"/>
<path d="M30.4522 79.7398C27.4588 79.7398 25.023 77.304 25.023 74.3088V65.1176C22.7428 63.4135 21.398 60.7461 21.398 57.8862C21.398 52.8941 25.4602 48.832 30.4522 48.832C35.446 48.832 39.5082 52.8941 39.5082 57.8862C39.5082 60.7461 38.1634 63.4135 35.8832 65.1176V74.3088C35.8832 77.304 33.4474 79.7398 30.4522 79.7398ZM30.4522 50.7288C26.5049 50.7288 23.2948 53.9389 23.2948 57.8862C23.2948 60.2831 24.4914 62.5077 26.4956 63.8358C26.7605 64.0118 26.9198 64.3082 26.9198 64.6268V74.3088C26.9198 76.2575 28.5035 77.8431 30.4522 77.8431C32.4008 77.8431 33.9864 76.2575 33.9864 74.3088V64.6268C33.9864 64.3082 34.1457 64.0118 34.4106 63.8358C36.4148 62.5077 37.6114 60.2831 37.6114 57.8862C37.6114 53.9389 34.3995 50.7288 30.4522 50.7288Z" fill="black"/>
<path d="M53.4761 49.5915C60.5922 49.5915 66.3609 43.8228 66.3609 36.7067C66.3609 29.5907 60.5922 23.8219 53.4761 23.8219C46.3601 23.8219 40.5913 29.5907 40.5913 36.7067C40.5913 43.8228 46.3601 49.5915 53.4761 49.5915Z" fill="#7E7CF0"/>
<path d="M53.4765 50.5399C45.8487 50.5399 39.6434 44.3346 39.6434 36.7067C39.6434 29.0789 45.8487 22.8736 53.4765 22.8736C61.1044 22.8736 67.3097 29.0789 67.3097 36.7067C67.3097 44.3346 61.1044 50.5399 53.4765 50.5399ZM53.4765 24.7704C46.8952 24.7704 41.5402 30.1254 41.5402 36.7067C41.5402 43.288 46.8952 48.6431 53.4765 48.6431C60.0578 48.6431 65.4129 43.288 65.4129 36.7067C65.4129 30.1254 60.0578 24.7704 53.4765 24.7704Z" fill="black"/>
<path d="M51.3686 41.1003C51.1259 41.1003 50.8833 41.0077 50.698 40.8225L48.0233 38.1477C47.6528 37.7773 47.6528 37.1771 48.0233 36.8067C48.3938 36.4362 48.9939 36.4362 49.3644 36.8067L51.3686 38.8109L57.5887 32.5908C57.9591 32.2203 58.5593 32.2203 58.9298 32.5908C59.3002 32.9612 59.3002 33.5614 58.9298 33.9318L52.0391 40.8225C51.8539 41.0077 51.6112 41.1003 51.3686 41.1003Z" fill="black"/>
</svg>
