<svg width="82" height="69" viewBox="0 0 82 69" fill="none" xmlns="http://www.w3.org/2000/svg">
<rect width="82" height="69" rx="16" fill="white"/>
<rect x="10" width="62" height="62" rx="8" fill="#DFF4E4"/>
<g clip-path="url(#clip0_901_6918)">
<path d="M50.8906 19C49.8344 19 48.9571 19.7804 48.8048 20.7948L48.7468 20.8528C46.3155 23.2841 42.8814 24.6945 39.5616 24.6251C39.5584 24.6251 39.5552 24.6254 39.552 24.6254C39.5503 24.6254 39.5486 24.6252 39.547 24.6252H32.5158C30.5773 24.6252 29.0002 26.2023 29.0002 28.1407V30.9532C29.0002 32.651 30.21 34.0714 31.8127 34.3981V40.1875C31.8127 41.7383 33.0744 43 34.6252 43C36.176 43 37.4377 41.7383 37.4377 40.1875V34.4594H39.5471C43.2445 34.4594 46.4041 35.8984 48.6326 38.1268L48.805 38.2992C48.9573 39.3135 49.8345 40.0937 50.8906 40.0937C52.0537 40.0937 53 39.1474 53 37.9843V21.1094C53 19.9463 52.0537 19 50.8906 19ZM36.0314 40.1875C36.0314 40.9629 35.4006 41.5937 34.6252 41.5937C33.8498 41.5937 33.2096 40.9629 33.2096 40.1875V34.4594H36.0314V40.1875ZM38.8439 33.0626H32.5159C31.3528 33.0626 30.3971 32.1163 30.3971 30.9532V28.1407C30.3971 26.9776 31.3528 26.022 32.5159 26.022H38.8439V33.0626ZM48.7813 36.3577C46.4178 34.367 43.3776 33.1958 40.2408 33.0741V26.025C41.8599 25.9679 43.5176 25.6079 45.0589 24.9698C46.3988 24.415 47.6657 23.647 48.7812 22.7205V36.3577H48.7813ZM51.5938 37.9843C51.5938 38.372 51.2783 38.6874 50.8906 38.6874C50.5031 38.6874 50.1877 38.3722 50.1875 37.9848C50.1875 37.9843 50.1875 37.9839 50.1875 37.9835V21.1104C50.1875 21.1099 50.1875 21.1095 50.1875 21.109C50.1877 20.7215 50.503 20.4062 50.8906 20.4062C51.2783 20.4062 51.5938 20.7217 51.5938 21.1094V37.9843Z" fill="#3AA251"/>
<path d="M36.7346 27.4376H32.5159C32.1276 27.4376 31.8127 27.7524 31.8127 28.1407C31.8127 28.5291 32.1182 28.8345 32.5065 28.8345H36.7252C37.1135 28.8345 37.4377 28.5291 37.4377 28.1407C37.4377 27.7524 37.1229 27.4376 36.7346 27.4376Z" fill="#3AA251"/>
<path d="M36.7346 30.2501H32.5159C32.1276 30.2501 31.8127 30.5649 31.8127 30.9532C31.8127 31.3415 32.1182 31.6469 32.5065 31.6469H36.7252C37.1135 31.6469 37.4377 31.3415 37.4377 30.9532C37.4377 30.5649 37.1229 30.2501 36.7346 30.2501Z" fill="#3AA251"/>
</g>
<defs>
<clipPath id="clip0_901_6918">
<rect width="24" height="24" fill="white" transform="translate(29 19)"/>
</clipPath>
</defs>
</svg>
