<svg width="128" height="125" viewBox="0 0 128 125" fill="none" xmlns="http://www.w3.org/2000/svg">
<path opacity="0.2" d="M0.0149531 22.8306C-0.111595 23.2892 0.600252 23.4725 0.728616 23.0165C4.20071 10.7081 16.8813 4.26884 28.6775 2.22635C41.3512 0.0314261 55.4211 1.88778 65.948 9.67031C68.2561 11.3763 70.4359 13.605 72.2788 16.1301C68.5979 15.8786 64.8711 16.4364 61.2532 18.0546C55.5182 20.6184 50.9161 25.7666 50.4208 32.2042C49.9979 37.7103 52.4687 43.7044 57.5372 46.3348C62.62 48.9722 68.7132 47.4376 73.0026 43.9895C78.2151 39.7992 80.2227 33.2824 79.0569 26.7751C78.505 23.6915 77.4525 20.8918 76.0217 18.3553C83.3874 20.0802 90.4126 24.8697 95.2353 30.3039C101.349 37.1935 105.376 46.274 105.819 55.5158C100.802 52.1718 95.2055 49.8904 89.3681 49.2965C76.3582 47.972 65.0334 62.4167 71.9128 74.4536C78.6044 86.1627 94.4513 85.8246 101.994 75.3918C105.569 70.448 107.245 64.6728 107.45 58.7611C114.647 64.1906 120.325 71.7664 123.497 80.0393C128.593 93.3271 126.862 108.346 119.852 120.532C119.21 116.995 118.981 113.459 119.154 109.82C119.203 108.799 117.615 108.826 117.567 109.843C117.361 114.159 117.723 118.339 118.634 122.528C118.385 122.918 118.148 123.314 117.888 123.696C117.387 124.432 118.588 125.346 119.147 124.638C119.231 124.531 119.315 124.425 119.4 124.318C119.69 124.43 120.04 124.394 120.257 124.143C123.044 120.911 125.503 117.498 127.681 113.826C128.129 113.071 126.99 112.164 126.421 112.884C125.562 113.971 124.704 115.058 123.846 116.145C129.1 103.996 129.534 89.9301 124.208 77.5868C120.825 69.7489 114.849 62.0673 107.462 56.6646C107.271 48.3967 104.313 40.022 99.7058 33.4186C94.1183 25.4106 84.7848 18.1125 74.8399 16.4319C67.3977 5.46162 52.3642 0.14568 39.4615 0.00325628C23.8861 -0.16737 4.60971 6.1957 0.0149531 22.8306ZM104.811 65.5769C103.109 72.0723 98.9533 78.705 92.3604 81.0673C86.5154 83.1617 79.6975 81.0386 75.4914 76.627C70.8349 71.7431 70.3567 64.6116 73.6951 58.8528C77.8134 51.7478 85.4003 49.546 93.1126 51.631C97.6664 52.8623 101.955 54.9399 105.852 57.6267C105.819 60.2923 105.497 62.9586 104.811 65.5769ZM69.6664 44.3399C63.3789 47.8253 55.8366 45.7503 53.0363 38.9195C50.3134 32.2778 53.0387 25.1968 58.8265 21.2122C63.3809 18.0766 68.4523 17.2173 73.4652 17.8846C79.093 26.7479 80.4335 38.3722 69.6664 44.3399Z" fill="#2A6A90" fill-opacity="0.77"/>
</svg>
