<svg width="50" height="50" viewBox="0 0 50 50" fill="none" xmlns="http://www.w3.org/2000/svg">
<g opacity="0.5" clip-path="url(#clip0_901_8186)">
<path d="M0.425537 23.0011C1.11985 14.3239 6.24042 7.05875 13.398 3.23926" stroke="#263238" stroke-miterlimit="10" stroke-linecap="round" stroke-linejoin="round"/>
<path d="M19.2452 48.8973C12.9071 47.3869 7.5891 43.462 4.22559 38.2153" stroke="#263238" stroke-miterlimit="10" stroke-linecap="round" stroke-linejoin="round"/>
<path d="M49.5746 26.9192C48.4906 40.4701 36.6098 50.5778 23.0383 49.4955" stroke="#263238" stroke-miterlimit="10" stroke-linecap="round" stroke-linejoin="round"/>
<path d="M26.9619 0.424805C38.7261 1.36269 47.8986 10.3991 49.4284 21.6147" stroke="#263238" stroke-miterlimit="10" stroke-linecap="round" stroke-linejoin="round"/>
<path d="M35.634 43.9055C31.9982 45.9444 27.7379 46.963 23.2691 46.607C11.2947 45.6522 2.36305 35.1868 3.31944 23.2322" stroke="#263238" stroke-miterlimit="10" stroke-linecap="round" stroke-linejoin="round"/>
<path d="M4.70117 17.1452C8.07404 8.40181 16.8993 2.52985 26.7312 3.31397C38.7047 4.26884 47.6372 14.7342 46.6808 26.6888C46.2877 31.6051 44.2839 36.0073 41.2276 39.4207" stroke="#263238" stroke-miterlimit="10" stroke-linecap="round" stroke-linejoin="round"/>
<path d="M22.864 9.33374L24.9997 24.96L37.0353 21.2263" stroke="#263238" stroke-miterlimit="10" stroke-linecap="round" stroke-linejoin="round"/>
</g>
<defs>
<clipPath id="clip0_901_8186">
<rect width="50" height="50" fill="white"/>
</clipPath>
</defs>
</svg>
