<svg width="46" height="46" viewBox="0 0 46 46" fill="none" xmlns="http://www.w3.org/2000/svg">
<path d="M44.816 17.5625C47.8191 29.6112 40.4861 41.813 28.4374 44.8161C16.3887 47.8191 4.18685 40.4862 1.1838 28.4375C-1.81925 16.3888 5.51369 4.18692 17.5624 1.18387C29.6111 -1.81919 41.8129 5.51376 44.816 17.5625Z" fill="#F3F3F3" stroke="#B7B7B7"/>
<path d="M16.1339 20.9549C15.7291 19.7596 14.7298 19.018 13.9019 19.2984C13.074 19.5788 12.731 20.775 13.1358 21.9703C13.5406 23.1656 14.54 23.9072 15.3678 23.6268C16.1957 23.3464 16.5387 22.1502 16.1339 20.9549Z" fill="#B7B7B7"/>
<path d="M14.455 13.1589C14.4872 13.3549 12.5752 13.6441 10.6819 14.9553C8.7665 16.2348 7.79765 17.9084 7.62588 17.8062C7.46222 17.7623 8.23828 15.8043 10.3111 14.4099C12.3682 12.9937 14.4745 12.9898 14.455 13.1589Z" fill="#B7B7B7"/>
<path d="M30.0281 17.3874C29.7733 16.1513 28.8722 15.2925 28.0154 15.469C27.1586 15.6456 26.6706 16.7908 26.9253 18.0268C27.1801 19.2629 28.0812 20.1218 28.938 19.9452C29.7948 19.7686 30.2828 18.6234 30.0281 17.3874Z" fill="#B7B7B7"/>
<path d="M24.4334 10.4522C24.3314 10.3159 26.1509 9.25416 28.6424 9.43654C31.1363 9.59264 32.7943 10.8901 32.6755 11.0108C32.5791 11.185 30.8975 10.2309 28.5975 10.0958C26.3017 9.92111 24.5054 10.6383 24.4334 10.4522Z" fill="#B7B7B7"/>
<path d="M33.9505 20.0294C33.9855 20.0258 34.0761 20.4613 34.0937 21.2629C34.1149 22.0635 33.9917 23.2377 33.5519 24.614C33.1169 25.989 32.3043 27.548 31.027 28.9829C29.7596 30.4166 27.9804 31.6916 25.8465 32.3621C23.7012 32.9969 21.5125 32.9328 19.6603 32.4525C17.7987 31.9758 16.2533 31.1354 15.126 30.237C13.9925 29.3401 13.2357 28.4354 12.8055 27.7597C12.3717 27.085 12.2035 26.6727 12.2343 26.6573C12.3528 26.5662 13.1353 28.223 15.405 29.8633C16.5237 30.6805 18.0241 31.4384 19.8042 31.8609C21.5761 32.2868 23.6413 32.324 25.6531 31.7301C27.6532 31.0994 29.3447 29.9155 30.5758 28.573C31.8156 27.2297 32.6372 25.7634 33.1093 24.4599C34.0776 21.8316 33.8031 20.0199 33.9505 20.0294Z" fill="#B7B7B7"/>
</svg>
