<svg width="147" height="132" viewBox="0 0 147 132" fill="none" xmlns="http://www.w3.org/2000/svg">
<path d="M73.4999 117.772C65.718 111.434 49.036 97.9012 0 106.831C1.92152 113.004 4.80402 119.653 4.80402 119.653C4.80402 119.653 44.8974 107.609 67.1277 123.237C66.902 123.902 66.7744 124.611 66.7744 125.351C66.7744 129.023 69.7854 132 73.4999 132C77.2141 132 80.2254 129.023 80.2254 125.351C80.2254 124.611 80.098 123.902 79.8721 123.237C102.103 107.609 142.196 119.653 142.196 119.653C142.196 119.653 144.598 115.379 147 106.831C97.9638 97.9012 81.2817 111.434 73.4999 117.772Z" fill="#7E7CF0"/>
<path d="M72.9431 105.761C72.9431 105.761 43.9207 79.6381 67.6069 12.1326C66.1186 28.0632 67.3897 42.798 74.9206 53.8439C81.4182 45.4988 110.223 36.2668 122.974 37.5701C100.327 45.1089 78.3123 66.6838 72.9431 105.761Z" fill="#7E7CF0"/>
<path d="M80.5539 42.0049C83.9028 42.0049 86.6176 39.3212 86.6176 36.0106C86.6176 32.7001 83.9028 30.0164 80.5539 30.0164C77.205 30.0164 74.4902 32.7001 74.4902 36.0106C74.4902 39.3212 77.205 42.0049 80.5539 42.0049Z" fill="#7E7CF0"/>
<path d="M76.2444 46.1581C76.2834 46.1312 76.3236 46.1045 76.3628 46.0775C76.2998 46.0517 76.2369 46.0257 76.1743 45.9985C76.1978 46.0515 76.2204 46.1056 76.2444 46.1581Z" fill="#7E7CF0"/>
<path d="M110.895 48.8081C108.309 50.4722 105.618 52.4673 102.93 54.8543C120.363 63.9101 132.708 81.2444 134.613 101.574C134.783 99.7611 134.874 97.9258 134.874 96.0693C134.873 76.7262 125.451 59.5589 110.895 48.8081Z" fill="#7E7CF0"/>
<path d="M55.0811 40.564C32.0588 48.7334 15.5908 70.4988 15.5908 96.0692C15.5908 97.9257 15.6819 99.761 15.8518 101.574C17.9733 78.9253 33.0521 59.9938 53.6906 52.0865C53.9739 48.3353 54.4373 44.4921 55.0811 40.564Z" fill="#7E7CF0"/>
<path d="M65.3095 0L68.5438 1.97522L72.0229 0.461201L71.1222 4.11219L73.654 6.91537L69.8632 7.19672L67.9484 10.4434L66.5064 6.96634L62.7913 6.1695L65.691 3.73904L65.3095 0Z" fill="#7E7CF0"/>
</svg>
