<svg width="20" height="20" viewBox="0 0 20 20" fill="none" xmlns="http://www.w3.org/2000/svg">
<path d="M7.42492 17.1352C7.26659 17.1352 7.10825 17.0772 6.98325 16.9529C6.74159 16.7124 6.74159 16.3145 6.98325 16.0741L12.4166 10.6691C12.8166 10.2712 12.8166 9.62456 12.4166 9.22664L6.98325 3.82161C6.74159 3.5812 6.74159 3.18329 6.98325 2.94288C7.22492 2.70247 7.62492 2.70247 7.86658 2.94288L13.2999 8.34791C13.7249 8.7707 13.9666 9.3427 13.9666 9.94787C13.9666 10.553 13.7333 11.125 13.2999 11.5478L7.86658 16.9529C7.74158 17.0689 7.58325 17.1352 7.42492 17.1352Z" fill="#292D32"/>
</svg>
