<svg width="62" height="88" viewBox="0 0 62 88" fill="none" xmlns="http://www.w3.org/2000/svg">
<path d="M22.1442 63.3934L21.9178 61.6042C21.7834 60.5424 22.7947 59.7001 23.8151 60.0233C28.2712 61.4346 33.0313 61.4104 37.4155 60.0237C38.4372 59.7005 39.4498 60.5409 39.3152 61.604C39.0974 63.3246 39.161 63.9711 38.4376 64.4371C33.6797 67.5021 27.5531 67.5019 22.795 64.4371C22.434 64.2043 22.1981 63.8196 22.1442 63.3934ZM23.2039 70.389L25.7256 86.7566C25.8358 87.472 26.4514 88 27.1752 88H34.0576C34.7814 88 35.397 87.472 35.5072 86.7566L38.0289 70.389C38.1961 69.304 37.1563 68.4284 36.1149 68.776C32.5473 69.967 28.6866 69.9675 25.1175 68.776C24.0765 68.4283 23.0367 69.304 23.2039 70.389ZM45.1786 62.7312C44.7054 62.7312 44.2401 62.6782 43.79 62.5748C42.9606 62.3845 42.1446 62.9391 42.0151 63.7802L38.5439 86.3099C38.407 87.1985 39.0945 87.9998 39.9935 87.9998H58.8497C59.6597 87.9998 60.3164 87.3431 60.3164 86.5331V77.8688C60.3164 69.5039 53.5441 62.7312 45.1786 62.7312ZM19.2176 63.78C19.0878 62.937 18.2696 62.385 17.4384 62.5755C16.9942 62.6773 16.5309 62.7312 16.0544 62.7312C7.68927 62.7312 0.916572 69.5035 0.916572 77.869V86.5333C0.916572 87.3433 1.57327 88 2.38324 88H21.2394C22.1385 88 22.8258 87.1985 22.6891 86.31L19.2176 63.78ZM57.7149 37.3597C55.8192 34.5217 54.8164 31.1978 54.8164 27.7438V19.8C54.8164 8.86472 45.9517 0 35.0164 0H26.2164C15.2811 0 6.41639 8.86472 6.41639 19.8V27.7438C6.41639 31.1868 5.40805 34.5217 3.49772 37.3872C-1.54431 44.9583 -1.12686 55.049 4.69599 62.1456C5.16312 62.7149 5.97932 62.8421 6.60614 62.4556C9.36732 60.7528 12.6198 59.7978 16.0542 59.7978C18.4797 59.7978 18.7652 57.7489 17.6547 56.9661C11.8596 52.8807 8.06639 46.1371 8.06639 38.5222V28.2333C8.06639 25.5798 10.4048 23.5215 13.0457 23.8718C21.8828 25.0455 30.8177 22.7478 38.0231 17.2242C40.345 15.4458 43.7245 16.3883 44.7936 19.1033C45.1364 19.976 45.8129 21.2483 47.0779 22.3538C49.2671 24.264 50.4342 23.6735 51.8831 25.1277C52.6861 25.9325 53.1664 27.0398 53.1664 28.2333V38.522C53.1664 46.1367 49.3734 52.8803 43.5786 56.9657C42.4661 57.75 42.7562 59.7978 45.1786 59.7978C48.6151 59.7978 51.8671 60.7539 54.6265 62.4556C55.2531 62.8421 56.0695 62.715 56.5364 62.1458C62.3226 55.0911 62.8231 44.9935 57.7149 37.3597ZM49.2064 26.8345C45.9405 25.8088 43.3278 23.3822 42.0637 20.1795C41.7064 19.2705 40.5802 18.9611 39.8069 19.5525C31.8964 25.617 22.1678 28.039 12.6589 26.7795C11.784 26.6605 10.9997 27.3456 10.9997 28.2333V38.522C10.9997 49.3387 19.7997 58.1387 30.6164 58.1387C41.4331 58.1387 50.2331 49.3387 50.2331 38.522V28.2333C50.2331 27.5917 49.8169 27.0252 49.2064 26.8345Z" fill="#C5C5C5"/>
</svg>
