<svg width="428" height="571" viewBox="0 0 428 571" fill="none" xmlns="http://www.w3.org/2000/svg">
<path d="M0 0H428V498C428 498 299.745 462.634 214.5 462.303C131.978 461.982 0 498 0 498V0Z" fill="#EFF4FF"/>
<g filter="url(#filter0_d_901_8082)">
<rect x="80" y="116" width="268" height="403" rx="12" fill="white"/>
</g>
<path d="M124 206.959C124 192.272 124 184.928 127.32 179.319C130.24 174.384 134.9 170.372 140.631 167.858C147.147 165 155.676 165 172.735 165H254.265C271.324 165 279.853 165 286.369 167.858C292.1 170.372 296.76 174.384 299.68 179.319C303 184.928 303 192.272 303 206.959V442.041C303 456.728 303 464.072 299.68 469.681C296.76 474.616 292.1 478.628 286.369 481.142C279.853 484 271.324 484 254.265 484H172.735C155.676 484 147.147 484 140.631 481.142C134.9 478.628 130.24 474.616 127.32 469.681C124 464.072 124 456.728 124 442.041V206.959Z" fill="#181A22"/>
<path d="M124.5 206.959C124.5 199.606 124.501 194.126 124.913 189.782C125.324 185.446 126.142 182.29 127.75 179.573C130.612 174.737 135.187 170.792 140.832 168.316C144.014 166.92 147.711 166.212 152.764 165.856C157.822 165.5 164.198 165.5 172.735 165.5H254.265C262.802 165.5 269.178 165.5 274.236 165.856C279.289 166.212 282.986 166.92 286.168 168.316C291.813 170.792 296.388 174.737 299.25 179.573C300.858 182.29 301.676 185.446 302.087 189.782C302.499 194.126 302.5 199.606 302.5 206.959V442.041C302.5 449.394 302.499 454.874 302.087 459.218C301.676 463.554 300.858 466.71 299.25 469.427C296.388 474.263 291.813 478.208 286.168 480.684C282.986 482.08 279.289 482.788 274.236 483.144C269.178 483.5 262.802 483.5 254.265 483.5H172.735C164.198 483.5 157.822 483.5 152.764 483.144C147.711 482.788 144.014 482.08 140.832 480.684C135.187 478.208 130.612 474.263 127.75 469.427C126.142 466.71 125.324 463.554 124.913 459.218C124.501 454.874 124.5 449.394 124.5 442.041V206.959Z" stroke="black" stroke-opacity="0.9"/>
<mask id="path-5-inside-1_901_8082" fill="white">
<path fill-rule="evenodd" clip-rule="evenodd" d="M134.012 182.254C131.51 186.481 131.51 192.013 131.51 203.079V445.921C131.51 456.987 131.51 462.519 134.012 466.746C136.212 470.464 139.722 473.486 144.04 475.38C148.949 477.534 155.376 477.534 168.228 477.534H258.771C271.624 477.534 278.05 477.534 282.959 475.38C287.277 473.486 290.788 470.464 292.988 466.746C295.489 462.519 295.489 456.987 295.489 445.921V203.079C295.489 192.013 295.489 186.481 292.988 182.254C290.788 178.537 287.277 175.514 282.959 173.62C278.05 171.466 271.624 171.466 258.771 171.466H168.228C155.376 171.466 148.949 171.466 144.04 173.62C139.722 175.514 136.212 178.537 134.012 182.254ZM193.888 175.777C190.317 175.777 187.422 178.672 187.422 182.243C187.422 185.815 190.317 188.71 193.888 188.71H233.112C236.683 188.71 239.578 185.815 239.578 182.243C239.578 178.672 236.683 175.777 233.112 175.777H193.888Z"/>
</mask>
<path fill-rule="evenodd" clip-rule="evenodd" d="M134.012 182.254C131.51 186.481 131.51 192.013 131.51 203.079V445.921C131.51 456.987 131.51 462.519 134.012 466.746C136.212 470.464 139.722 473.486 144.04 475.38C148.949 477.534 155.376 477.534 168.228 477.534H258.771C271.624 477.534 278.05 477.534 282.959 475.38C287.277 473.486 290.788 470.464 292.988 466.746C295.489 462.519 295.489 456.987 295.489 445.921V203.079C295.489 192.013 295.489 186.481 292.988 182.254C290.788 178.537 287.277 175.514 282.959 173.62C278.05 171.466 271.624 171.466 258.771 171.466H168.228C155.376 171.466 148.949 171.466 144.04 173.62C139.722 175.514 136.212 178.537 134.012 182.254ZM193.888 175.777C190.317 175.777 187.422 178.672 187.422 182.243C187.422 185.815 190.317 188.71 193.888 188.71H233.112C236.683 188.71 239.578 185.815 239.578 182.243C239.578 178.672 236.683 175.777 233.112 175.777H193.888Z" fill="white"/>
<path d="M134.012 182.254L133.151 181.745L134.012 182.254ZM134.012 466.746L134.872 466.237H134.872L134.012 466.746ZM144.04 475.38L143.639 476.296H143.639L144.04 475.38ZM282.959 475.38L283.361 476.296H283.361L282.959 475.38ZM292.988 466.746L292.127 466.237L292.988 466.746ZM292.988 182.254L293.849 181.745V181.745L292.988 182.254ZM282.959 173.62L283.361 172.704L283.361 172.704L282.959 173.62ZM144.04 173.62L143.639 172.704L144.04 173.62ZM132.51 203.079C132.51 197.527 132.511 193.433 132.818 190.196C133.124 186.977 133.726 184.7 134.872 182.764L133.151 181.745C131.796 184.035 131.147 186.638 130.827 190.008C130.509 193.36 130.51 197.565 130.51 203.079H132.51ZM132.51 445.921V203.079H130.51V445.921H132.51ZM134.872 466.237C133.726 464.3 133.124 462.023 132.818 458.804C132.511 455.567 132.51 451.473 132.51 445.921H130.51C130.51 451.435 130.509 455.64 130.827 458.993C131.147 462.362 131.796 464.965 133.151 467.255L134.872 466.237ZM144.442 474.465C140.297 472.646 136.956 469.758 134.872 466.237L133.151 467.255C135.468 471.17 139.147 474.326 143.639 476.296L144.442 474.465ZM168.228 476.534C161.788 476.534 157.009 476.533 153.226 476.267C149.45 476.002 146.746 475.475 144.442 474.465L143.639 476.296C146.244 477.439 149.207 477.989 153.085 478.262C156.955 478.534 161.816 478.534 168.228 478.534V476.534ZM258.771 476.534H168.228V478.534H258.771V476.534ZM282.557 474.465C280.253 475.475 277.549 476.002 273.774 476.267C269.99 476.533 265.212 476.534 258.771 476.534V478.534C265.183 478.534 270.044 478.534 273.914 478.262C277.792 477.989 280.756 477.439 283.361 476.296L282.557 474.465ZM292.127 466.237C290.044 469.758 286.702 472.646 282.557 474.465L283.361 476.296C287.852 474.326 291.532 471.17 293.849 467.255L292.127 466.237ZM294.489 445.921C294.489 451.473 294.488 455.567 294.181 458.804C293.876 462.023 293.274 464.3 292.127 466.237L293.849 467.255C295.204 464.965 295.852 462.362 296.172 458.993C296.49 455.64 296.489 451.435 296.489 445.921H294.489ZM294.489 203.079V445.921H296.489V203.079H294.489ZM292.127 182.764C293.274 184.7 293.876 186.977 294.181 190.196C294.488 193.433 294.489 197.527 294.489 203.079H296.489C296.489 197.565 296.49 193.36 296.172 190.008C295.852 186.638 295.204 184.035 293.849 181.745L292.127 182.764ZM282.557 174.536C286.702 176.354 290.044 179.243 292.127 182.764L293.849 181.745C291.532 177.831 287.852 174.674 283.361 172.704L282.557 174.536ZM258.771 172.466C265.212 172.466 269.99 172.467 273.774 172.733C277.549 172.999 280.253 173.525 282.557 174.536L283.361 172.704C280.756 171.561 277.792 171.011 273.914 170.738C270.044 170.466 265.183 170.466 258.771 170.466V172.466ZM168.228 172.466H258.771V170.466H168.228V172.466ZM144.442 174.536C146.746 173.525 149.45 172.999 153.226 172.733C157.009 172.467 161.788 172.466 168.228 172.466V170.466C161.816 170.466 156.955 170.466 153.085 170.738C149.207 171.011 146.244 171.561 143.639 172.704L144.442 174.536ZM134.872 182.764C136.956 179.243 140.297 176.354 144.442 174.536L143.639 172.704C139.147 174.674 135.468 177.831 133.151 181.745L134.872 182.764ZM188.422 182.243C188.422 179.224 190.869 176.777 193.888 176.777V174.777C189.764 174.777 186.422 178.12 186.422 182.243H188.422ZM193.888 187.71C190.869 187.71 188.422 185.262 188.422 182.243H186.422C186.422 186.367 189.764 189.71 193.888 189.71V187.71ZM233.112 187.71H193.888V189.71H233.112V187.71ZM238.578 182.243C238.578 185.262 236.131 187.71 233.112 187.71V189.71C237.235 189.71 240.578 186.367 240.578 182.243H238.578ZM233.112 176.777C236.131 176.777 238.578 179.224 238.578 182.243H240.578C240.578 178.12 237.235 174.777 233.112 174.777V176.777ZM193.888 176.777H233.112V174.777H193.888V176.777Z" fill="black" fill-opacity="0.15" mask="url(#path-5-inside-1_901_8082)"/>
<path opacity="0.2" d="M272.245 405H154.969C152.777 405 151 406.78 151 408.975V466.592H276.213V408.975C276.213 406.78 274.436 405 272.245 405Z" fill="white"/>
<path d="M289.048 248.289L146.922 248.583L146.93 251.809L289.056 251.514L289.048 248.289Z" fill="#E0E0E0"/>
<path d="M218.331 255.424L146.94 255.572L146.948 258.798L218.339 258.65L218.331 255.424Z" fill="#E0E0E0"/>
<path d="M277.579 269.206L159.893 269.449L159.901 272.675L277.587 272.432L277.579 269.206Z" fill="#E0E0E0"/>
<path d="M196.26 284.677L159.931 284.753L159.939 287.978L196.267 287.903L196.26 284.677Z" fill="#E0E0E0"/>
<path d="M147.223 276.03L147.201 267.024L156.228 267.006L156.249 276.011L147.223 276.03ZM147.941 267.759L147.959 275.292L155.51 275.277L155.492 267.745L147.941 267.759Z" fill="#E0E0E0"/>
<path d="M147.26 291.362L147.238 282.358L156.266 282.34L156.287 291.345L147.26 291.362ZM147.978 283.092L147.996 290.624L155.547 290.609L155.529 283.077L147.978 283.092Z" fill="#E0E0E0"/>
<path d="M240.168 299.363L159.957 299.521L159.964 302.747L240.175 302.588L240.168 299.363Z" fill="#E0E0E0"/>
<path d="M147.296 306.127L147.274 297.123L156.301 297.105L156.323 306.109L147.296 306.127ZM148.014 297.857L148.032 305.389L155.583 305.374L155.564 297.842L148.014 297.857Z" fill="#E0E0E0"/>
<path d="M289.214 315.578L147.088 315.872L147.096 319.098L289.222 318.804L289.214 315.578Z" fill="#E0E0E0"/>
<path d="M218.483 322.722L147.092 322.863L147.1 326.088L218.49 325.948L218.483 322.722Z" fill="#E0E0E0"/>
<path d="M277.745 336.495L160.059 336.739L160.067 339.965L277.753 339.721L277.745 336.495Z" fill="#E0E0E0"/>
<path d="M196.425 351.967L160.097 352.042L160.105 355.268L196.433 355.193L196.425 351.967Z" fill="#E0E0E0"/>
<path d="M147.386 343.317L147.364 334.313L156.39 334.295L156.412 343.299L147.386 343.317ZM148.103 335.047L148.122 342.58L155.672 342.565L155.654 335.032L148.103 335.047Z" fill="#E0E0E0"/>
<path d="M147.423 358.65L147.401 349.646L156.428 349.628L156.449 358.632L147.423 358.65ZM148.141 350.379L148.159 357.912L155.71 357.897L155.692 350.364L148.141 350.379Z" fill="#E0E0E0"/>
<path d="M240.345 366.641L160.133 366.807L160.141 370.033L240.353 369.867L240.345 366.641Z" fill="#E0E0E0"/>
<path d="M147.458 373.415L147.436 364.411L156.463 364.393L156.485 373.397L147.458 373.415ZM148.176 365.145L148.194 372.678L155.745 372.663L155.727 365.13L148.176 365.145Z" fill="#E0E0E0"/>
<path d="M289.38 382.852L147.255 383.146L147.263 386.372L289.388 386.077L289.38 382.852Z" fill="#E0E0E0"/>
<path d="M218.642 389.997L147.252 390.137L147.26 393.363L218.65 393.222L218.642 389.997Z" fill="#E0E0E0"/>
<path d="M277.911 403.77L160.225 404.013L160.233 407.239L277.919 406.995L277.911 403.77Z" fill="#E0E0E0"/>
<path d="M196.592 419.24L160.263 419.316L160.271 422.541L196.6 422.466L196.592 419.24Z" fill="#E0E0E0"/>
<path d="M147.548 410.59L147.527 401.587L156.553 401.569L156.575 410.573L147.548 410.59ZM148.267 402.32L148.285 409.853L155.835 409.838L155.817 402.305L148.267 402.32Z" fill="#E0E0E0"/>
<path d="M147.586 425.923L147.564 416.919L156.591 416.901L156.613 425.905L147.586 425.923ZM148.304 417.653L148.322 425.186L155.872 425.17L155.854 417.638L148.304 417.653Z" fill="#E0E0E0"/>
<path d="M240.511 433.915L160.3 434.081L160.308 437.307L240.519 437.141L240.511 433.915Z" fill="#E0E0E0"/>
<path d="M147.621 440.688L147.6 431.684L156.626 431.666L156.648 440.67L147.621 440.688ZM148.339 432.418L148.357 439.95L155.908 439.935L155.89 432.403L148.339 432.418Z" fill="#E0E0E0"/>
<path d="M197.826 227.915L197.741 231.312L185.235 230.996L185.621 215.455L197.839 215.764L197.754 219.16L189.898 218.962L189.833 221.582L196.754 221.756L196.673 225.043L189.751 224.868L189.681 227.71L197.826 227.915Z" fill="#89ABB4"/>
<path d="M209.893 231.619L206.785 226.719L203.484 231.457L198.454 231.329L204.324 223.613L199.085 215.795L204.047 215.92L207.051 220.483L210.234 216.076L214.997 216.196L209.38 223.563L214.967 231.746L209.893 231.619Z" fill="#89ABB4"/>
<path d="M227.282 228.467L220.692 228.526L219.496 231.558L215 231.598L221.732 215.991L226.074 215.953L233.121 231.435L228.535 231.476L227.282 228.467ZM225.96 225.237L223.91 220.28L221.953 225.273L225.96 225.237Z" fill="#89ABB4"/>
<path d="M247.312 231.403L247.365 223.164L243.279 229.821L241.32 229.797L237.412 223.265L237.317 231.281L233.243 231.23L233.428 215.686L237.056 215.73L242.425 224.769L247.874 215.863L251.503 215.907L251.363 231.452L247.312 231.403Z" fill="#89ABB4"/>
<defs>
<filter id="filter0_d_901_8082" x="35" y="78" width="358" height="493" filterUnits="userSpaceOnUse" color-interpolation-filters="sRGB">
<feFlood flood-opacity="0" result="BackgroundImageFix"/>
<feColorMatrix in="SourceAlpha" type="matrix" values="0 0 0 0 0 0 0 0 0 0 0 0 0 0 0 0 0 0 127 0" result="hardAlpha"/>
<feOffset dy="7"/>
<feGaussianBlur stdDeviation="22.5"/>
<feComposite in2="hardAlpha" operator="out"/>
<feColorMatrix type="matrix" values="0 0 0 0 0 0 0 0 0 0 0 0 0 0 0 0 0 0 0.09 0"/>
<feBlend mode="normal" in2="BackgroundImageFix" result="effect1_dropShadow_901_8082"/>
<feBlend mode="normal" in="SourceGraphic" in2="effect1_dropShadow_901_8082" result="shape"/>
</filter>
</defs>
</svg>
