<svg width="82" height="69" viewBox="0 0 82 69" fill="none" xmlns="http://www.w3.org/2000/svg">
<rect width="82" height="69" rx="16" fill="white"/>
<rect x="10" width="62" height="62" rx="8" fill="#EDF5FF"/>
<g clip-path="url(#clip0_901_6736)">
<mask id="mask0_901_6736" style="mask-type:luminance" maskUnits="userSpaceOnUse" x="29" y="19" width="24" height="24">
<path d="M53 19H29V43H53V19Z" fill="white"/>
<path d="M34.8594 27.9063C34.3416 27.9063 33.9219 28.326 33.9219 28.8438C33.9219 29.3615 34.3416 29.7812 34.8594 29.7812C35.3772 29.7812 35.7969 29.3615 35.7969 28.8438C35.7969 28.326 35.3772 27.9063 34.8594 27.9063Z" fill="white"/>
<path d="M38.9375 27.9063C38.4197 27.9063 38 28.326 38 28.8438C38 29.3615 38.4197 29.7812 38.9375 29.7812C39.4553 29.7812 39.875 29.3615 39.875 28.8438C39.875 28.326 39.4553 27.9063 38.9375 27.9063Z" fill="white"/>
<path d="M43.0156 27.9063C42.4978 27.9063 42.0781 28.326 42.0781 28.8438C42.0781 29.3615 42.4978 29.7812 43.0156 29.7812C43.5334 29.7812 43.9531 29.3615 43.9531 28.8438C43.9531 28.326 43.5334 27.9063 43.0156 27.9063Z" fill="white"/>
<path d="M47.0937 27.9063C46.576 27.9063 46.1562 28.326 46.1562 28.8438C46.1562 29.3615 46.576 29.7812 47.0937 29.7812C47.6115 29.7812 48.0312 29.3615 48.0312 28.8438C48.0312 28.326 47.6115 27.9063 47.0937 27.9063Z" fill="white"/>
<path d="M35.7969 32.9219C35.7969 32.4041 35.3772 31.9844 34.8594 31.9844C34.3416 31.9844 33.9219 32.4041 33.9219 32.9219C33.9219 33.4397 34.3416 33.8594 34.8594 33.8594C35.3772 33.8594 35.7969 33.4397 35.7969 32.9219Z" fill="white"/>
<path d="M35.7969 37C35.7969 36.4822 35.3772 36.0625 34.8594 36.0625C34.3416 36.0625 33.9219 36.4822 33.9219 37C33.9219 37.5178 34.3416 37.9375 34.8594 37.9375C35.3772 37.9375 35.7969 37.5178 35.7969 37Z" fill="white"/>
<path d="M39.875 32.9219C39.875 32.4041 39.4553 31.9844 38.9375 31.9844C38.4197 31.9844 38 32.4041 38 32.9219C38 33.4397 38.4197 33.8594 38.9375 33.8594C39.4553 33.8594 39.875 33.4397 39.875 32.9219Z" fill="white"/>
<path d="M39.875 37C39.875 36.4822 39.4553 36.0625 38.9375 36.0625C38.4197 36.0625 38 36.4822 38 37C38 37.5178 38.4197 37.9375 38.9375 37.9375C39.4553 37.9375 39.875 37.5178 39.875 37Z" fill="white"/>
<path d="M38.9375 27.9063C38.4197 27.9063 38 28.326 38 28.8438C38 29.3615 38.4197 29.7812 38.9375 29.7812C39.4553 29.7812 39.875 29.3615 39.875 28.8438C39.875 28.326 39.4553 27.9063 38.9375 27.9063Z" fill="white"/>
<path d="M39.875 32.9219C39.875 32.4041 39.4553 31.9844 38.9375 31.9844C38.4197 31.9844 38 32.4041 38 32.9219C38 33.4397 38.4197 33.8594 38.9375 33.8594C39.4553 33.8594 39.875 33.4397 39.875 32.9219Z" fill="white"/>
<path d="M39.875 37C39.875 36.4822 39.4553 36.0625 38.9375 36.0625C38.4197 36.0625 38 36.4822 38 37C38 37.5178 38.4197 37.9375 38.9375 37.9375C39.4553 37.9375 39.875 37.5178 39.875 37Z" fill="white"/>
<path d="M43.9531 32.9219C43.9531 32.4041 43.5334 31.9844 43.0156 31.9844C42.4978 31.9844 42.0781 32.4041 42.0781 32.9219C42.0781 33.4397 42.4978 33.8594 43.0156 33.8594C43.5334 33.8594 43.9531 33.4397 43.9531 32.9219Z" fill="white"/>
<path d="M48.0312 32.9219C48.0312 32.4041 47.6115 31.9844 47.0937 31.9844C46.576 31.9844 46.1562 32.4041 46.1562 32.9219C46.1562 33.4397 46.576 33.8594 47.0937 33.8594C47.6115 33.8594 48.0312 33.4397 48.0312 32.9219Z" fill="white"/>
</mask>
<g mask="url(#mask0_901_6736)">
<mask id="mask1_901_6736" style="mask-type:luminance" maskUnits="userSpaceOnUse" x="29" y="19" width="24" height="24">
<path d="M29 19H53V43H29V19Z" fill="white"/>
</mask>
<g mask="url(#mask1_901_6736)">
<path d="M40.625 42.0623H32.75C31.1967 42.0623 29.9375 40.8031 29.9375 39.2498V24.6248C29.9375 23.0715 31.1967 21.8123 32.75 21.8123H49.25C50.8033 21.8123 52.0625 23.0715 52.0625 24.6248V31.281" stroke="#064895" stroke-width="1.8" stroke-miterlimit="10" stroke-linecap="round" stroke-linejoin="round"/>
<path d="M34.8594 27.9063C34.3416 27.9063 33.9219 28.326 33.9219 28.8438C33.9219 29.3615 34.3416 29.7812 34.8594 29.7812C35.3772 29.7812 35.7969 29.3615 35.7969 28.8438C35.7969 28.326 35.3772 27.9063 34.8594 27.9063Z" fill="#064895"/>
<path d="M38.9375 27.9063C38.4197 27.9063 38 28.326 38 28.8438C38 29.3615 38.4197 29.7812 38.9375 29.7812C39.4553 29.7812 39.875 29.3615 39.875 28.8438C39.875 28.326 39.4553 27.9063 38.9375 27.9063Z" fill="#064895"/>
<path d="M43.0156 27.9063C42.4978 27.9063 42.0781 28.326 42.0781 28.8438C42.0781 29.3615 42.4978 29.7812 43.0156 29.7812C43.5334 29.7812 43.9531 29.3615 43.9531 28.8438C43.9531 28.326 43.5334 27.9063 43.0156 27.9063Z" fill="#064895"/>
<path d="M47.0937 27.9063C46.576 27.9063 46.1562 28.326 46.1562 28.8438C46.1562 29.3615 46.576 29.7812 47.0937 29.7812C47.6115 29.7812 48.0312 29.3615 48.0312 28.8438C48.0312 28.326 47.6115 27.9063 47.0937 27.9063Z" fill="#064895"/>
<path d="M35.7969 32.9219C35.7969 32.4041 35.3772 31.9844 34.8594 31.9844C34.3416 31.9844 33.9219 32.4041 33.9219 32.9219C33.9219 33.4397 34.3416 33.8594 34.8594 33.8594C35.3772 33.8594 35.7969 33.4397 35.7969 32.9219Z" fill="#064895"/>
<path d="M35.7969 37C35.7969 36.4822 35.3772 36.0625 34.8594 36.0625C34.3416 36.0625 33.9219 36.4822 33.9219 37C33.9219 37.5178 34.3416 37.9375 34.8594 37.9375C35.3772 37.9375 35.7969 37.5178 35.7969 37Z" fill="#064895"/>
<path d="M39.875 32.9219C39.875 32.4041 39.4553 31.9844 38.9375 31.9844C38.4197 31.9844 38 32.4041 38 32.9219C38 33.4397 38.4197 33.8594 38.9375 33.8594C39.4553 33.8594 39.875 33.4397 39.875 32.9219Z" fill="#064895"/>
<path d="M39.875 37C39.875 36.4822 39.4553 36.0625 38.9375 36.0625C38.4197 36.0625 38 36.4822 38 37C38 37.5178 38.4197 37.9375 38.9375 37.9375C39.4553 37.9375 39.875 37.5178 39.875 37Z" fill="#064895"/>
<path d="M38.9375 27.9063C38.4197 27.9063 38 28.326 38 28.8438C38 29.3615 38.4197 29.7812 38.9375 29.7812C39.4553 29.7812 39.875 29.3615 39.875 28.8438C39.875 28.326 39.4553 27.9063 38.9375 27.9063Z" fill="#064895"/>
<path d="M39.875 32.9219C39.875 32.4041 39.4553 31.9844 38.9375 31.9844C38.4197 31.9844 38 32.4041 38 32.9219C38 33.4397 38.4197 33.8594 38.9375 33.8594C39.4553 33.8594 39.875 33.4397 39.875 32.9219Z" fill="#064895"/>
<path d="M39.875 37C39.875 36.4822 39.4553 36.0625 38.9375 36.0625C38.4197 36.0625 38 36.4822 38 37C38 37.5178 38.4197 37.9375 38.9375 37.9375C39.4553 37.9375 39.875 37.5178 39.875 37Z" fill="#064895"/>
<path d="M34.8594 19.9375V23.6875" stroke="#064895" stroke-width="1.8" stroke-miterlimit="10" stroke-linecap="round" stroke-linejoin="round"/>
<path d="M47.0938 23.6875V19.9375" stroke="#064895" stroke-width="1.8" stroke-miterlimit="10" stroke-linecap="round" stroke-linejoin="round"/>
<path d="M43.9531 32.9219C43.9531 32.4041 43.5334 31.9844 43.0156 31.9844C42.4978 31.9844 42.0781 32.4041 42.0781 32.9219C42.0781 33.4397 42.4978 33.8594 43.0156 33.8594C43.5334 33.8594 43.9531 33.4397 43.9531 32.9219Z" fill="#064895"/>
<path d="M48.0312 32.9219C48.0312 32.4041 47.6115 31.9844 47.0937 31.9844C46.576 31.9844 46.1562 32.4041 46.1562 32.9219C46.1562 33.4397 46.576 33.8594 47.0937 33.8594C47.6115 33.8594 48.0312 33.4397 48.0312 32.9219Z" fill="#064895"/>
<path d="M40.9531 19.9375V23.6875" stroke="#064895" stroke-width="1.8" stroke-miterlimit="10" stroke-linecap="round" stroke-linejoin="round"/>
<path d="M42.2673 38.737L45.2589 41.6564C45.8834 42.2508 46.8826 42.1842 47.4226 41.5122L52.0624 35.0312" stroke="#064895" stroke-width="1.8" stroke-miterlimit="10" stroke-linecap="round" stroke-linejoin="round"/>
</g>
</g>
</g>
<defs>
<clipPath id="clip0_901_6736">
<rect width="24" height="24" fill="white" transform="translate(29 19)"/>
</clipPath>
</defs>
</svg>
