<svg width="32" height="32" viewBox="0 0 32 32" fill="none" xmlns="http://www.w3.org/2000/svg">
<path opacity="0.58" d="M16 32C24.8366 32 32 24.8366 32 16C32 7.16344 24.8366 0 16 0C7.16344 0 0 7.16344 0 16C0 24.8366 7.16344 32 16 32Z" fill="black"/>
<path d="M19.96 13.4824L16.0933 11.3883C15.1333 10.8617 13.9733 10.8617 13.0133 11.3883C12.0533 11.915 11.48 12.8429 11.48 13.8962V18.0968C11.48 19.1375 12.0533 20.078 13.0133 20.6046C13.4933 20.8679 14.0266 20.9933 14.5466 20.9933C15.08 20.9933 15.6 20.8679 16.08 20.6046L19.9466 18.5106C20.9066 17.9839 21.48 17.056 21.48 16.0027C21.5066 14.9494 20.9333 14.009 19.96 13.4824Z" fill="white"/>
</svg>
