<svg width="60" height="87" viewBox="0 0 60 87" fill="none" xmlns="http://www.w3.org/2000/svg">
<path opacity="0.2" d="M59.9955 85.0697C59.5014 80.5528 58.4157 76.4061 56.6618 72.3246C56.6609 72.3202 56.6601 72.3176 56.6593 72.3132L56.6575 72.3133C56.6207 72.2275 56.5937 72.1403 56.5552 72.0546C56.0672 70.9377 54.1767 71.8489 54.5156 73.0101C55.2976 75.6907 55.727 78.3629 55.8351 81.1287C47.3328 71.0099 38.0898 61.5735 28.0231 53.0081C22.9565 48.6972 17.5428 44.7959 12.5223 40.4349C9.65558 37.9444 6.75593 35.2416 4.56709 32.1031C2.56919 29.2389 1.55545 28.649 4.07767 25.5253C6.54635 22.47 7.59131 22.4598 11.5477 21.9596C18.085 21.1323 24.1032 22.5309 30.4138 23.2777C33.9517 23.6964 38.0107 23.8154 41.146 21.3377C48.4993 15.5283 44.407 5.46864 40.1639 0.0838475C39.9707 -0.161867 39.6211 0.187297 39.7334 0.435545C41.209 3.72493 43.1642 6.70398 43.6029 10.4277C44.5413 18.3857 37.6857 22.2964 30.9242 21.4183C25.7584 20.7492 20.8257 19.5221 15.5139 19.6278C9.55598 19.744 -3.03416 21.3789 0.669931 30.0892C5.20282 40.7446 18.0632 47.5005 26.4582 54.6495C36.4372 63.1476 45.606 72.5007 54.0468 82.5264C52.0523 81.9337 50.0579 81.3356 48.0578 80.7557C46.72 80.3673 46.1432 82.5363 47.4613 82.9348C51.1609 84.0543 54.8734 85.141 58.5814 86.2359C59.2012 86.4195 60.0696 85.7467 59.9955 85.0697Z" fill="#2A6A90" fill-opacity="0.74"/>
</svg>
