<svg width="17" height="17" viewBox="0 0 17 17" fill="none" xmlns="http://www.w3.org/2000/svg">
<path d="M16.7452 9.08834C16.754 8.9375 16.6763 8.79469 16.5449 8.72015L1.72107 0.305807C1.57879 0.225036 1.40152 0.239858 1.27463 0.34312C1.14775 0.446382 1.0972 0.616934 1.14734 0.772644L3.5788 8.32393L0.289779 15.5431C0.224401 15.6866 0.25033 15.8545 0.35445 15.9715C0.358364 15.9759 0.362377 15.9802 0.366533 15.9845C0.480641 16.1017 0.654986 16.137 0.805678 16.0732L16.5037 9.4309C16.6428 9.37199 16.7365 9.2392 16.7452 9.08834ZM2.21521 1.4991L14.6731 8.57045L4.29819 7.96808L2.21521 1.4991ZM1.43454 14.9451L4.25218 8.76061L14.627 9.36296L1.43454 14.9451Z" fill="white" stroke="white" stroke-width="0.5"/>
</svg>
