<svg width="428" height="563" viewBox="0 0 428 563" fill="none" xmlns="http://www.w3.org/2000/svg">
<mask id="mask0_901_8297" style="mask-type:alpha" maskUnits="userSpaceOnUse" x="0" y="0" width="428" height="563">
<rect width="428" height="563" fill="#D9D9D9"/>
</mask>
<g mask="url(#mask0_901_8297)">
<path d="M0 0H428V498C428 498 299.745 462.634 214.5 462.303C131.978 461.982 0 498 0 498V0Z" fill="#F3F1FF"/>
<g filter="url(#filter0_d_901_8297)">
<rect x="80" y="116" width="268" height="403" rx="12" fill="white"/>
</g>
<path d="M124 206.959C124 192.272 124 184.928 127.32 179.319C130.24 174.384 134.9 170.372 140.631 167.858C147.147 165 155.676 165 172.735 165H254.265C271.324 165 279.853 165 286.369 167.858C292.1 170.372 296.76 174.384 299.68 179.319C303 184.928 303 192.272 303 206.959V442.041C303 456.728 303 464.072 299.68 469.681C296.76 474.616 292.1 478.628 286.369 481.142C279.853 484 271.324 484 254.265 484H172.735C155.676 484 147.147 484 140.631 481.142C134.9 478.628 130.24 474.616 127.32 469.681C124 464.072 124 456.728 124 442.041V206.959Z" fill="#181A22"/>
<path d="M124.5 206.959C124.5 199.606 124.501 194.126 124.913 189.782C125.324 185.446 126.142 182.29 127.75 179.573C130.612 174.737 135.187 170.792 140.832 168.316C144.014 166.92 147.711 166.212 152.764 165.856C157.822 165.5 164.198 165.5 172.735 165.5H254.265C262.802 165.5 269.178 165.5 274.236 165.856C279.289 166.212 282.986 166.92 286.168 168.316C291.813 170.792 296.388 174.737 299.25 179.573C300.858 182.29 301.676 185.446 302.087 189.782C302.499 194.126 302.5 199.606 302.5 206.959V442.041C302.5 449.394 302.499 454.874 302.087 459.218C301.676 463.554 300.858 466.71 299.25 469.427C296.388 474.263 291.813 478.208 286.168 480.684C282.986 482.08 279.289 482.788 274.236 483.144C269.178 483.5 262.802 483.5 254.265 483.5H172.735C164.198 483.5 157.822 483.5 152.764 483.144C147.711 482.788 144.014 482.08 140.832 480.684C135.187 478.208 130.612 474.263 127.75 469.427C126.142 466.71 125.324 463.554 124.913 459.218C124.501 454.874 124.5 449.394 124.5 442.041V206.959Z" stroke="black" stroke-opacity="0.9"/>
<mask id="path-6-inside-1_901_8297" fill="white">
<path fill-rule="evenodd" clip-rule="evenodd" d="M134.012 182.254C131.51 186.481 131.51 192.013 131.51 203.079V445.921C131.51 456.987 131.51 462.519 134.012 466.746C136.212 470.464 139.722 473.486 144.04 475.38C148.949 477.534 155.376 477.534 168.228 477.534H258.771C271.624 477.534 278.05 477.534 282.959 475.38C287.277 473.486 290.788 470.464 292.988 466.746C295.489 462.519 295.489 456.987 295.489 445.921V203.079C295.489 192.013 295.489 186.481 292.988 182.254C290.788 178.537 287.277 175.514 282.959 173.62C278.05 171.466 271.624 171.466 258.771 171.466H168.228C155.376 171.466 148.949 171.466 144.04 173.62C139.722 175.514 136.212 178.537 134.012 182.254ZM193.888 175.777C190.317 175.777 187.422 178.672 187.422 182.243C187.422 185.815 190.317 188.71 193.888 188.71H233.112C236.683 188.71 239.578 185.815 239.578 182.243C239.578 178.672 236.683 175.777 233.112 175.777H193.888Z"/>
</mask>
<path fill-rule="evenodd" clip-rule="evenodd" d="M134.012 182.254C131.51 186.481 131.51 192.013 131.51 203.079V445.921C131.51 456.987 131.51 462.519 134.012 466.746C136.212 470.464 139.722 473.486 144.04 475.38C148.949 477.534 155.376 477.534 168.228 477.534H258.771C271.624 477.534 278.05 477.534 282.959 475.38C287.277 473.486 290.788 470.464 292.988 466.746C295.489 462.519 295.489 456.987 295.489 445.921V203.079C295.489 192.013 295.489 186.481 292.988 182.254C290.788 178.537 287.277 175.514 282.959 173.62C278.05 171.466 271.624 171.466 258.771 171.466H168.228C155.376 171.466 148.949 171.466 144.04 173.62C139.722 175.514 136.212 178.537 134.012 182.254ZM193.888 175.777C190.317 175.777 187.422 178.672 187.422 182.243C187.422 185.815 190.317 188.71 193.888 188.71H233.112C236.683 188.71 239.578 185.815 239.578 182.243C239.578 178.672 236.683 175.777 233.112 175.777H193.888Z" fill="white"/>
<path d="M134.012 182.254L133.151 181.745L134.012 182.254ZM134.012 466.746L134.872 466.237H134.872L134.012 466.746ZM144.04 475.38L143.639 476.296H143.639L144.04 475.38ZM282.959 475.38L283.361 476.296H283.361L282.959 475.38ZM292.988 466.746L292.127 466.237L292.988 466.746ZM292.988 182.254L293.849 181.745V181.745L292.988 182.254ZM282.959 173.62L283.361 172.704L283.361 172.704L282.959 173.62ZM144.04 173.62L143.639 172.704L144.04 173.62ZM132.51 203.079C132.51 197.527 132.511 193.433 132.818 190.196C133.124 186.977 133.726 184.7 134.872 182.764L133.151 181.745C131.796 184.035 131.147 186.638 130.827 190.008C130.509 193.36 130.51 197.565 130.51 203.079H132.51ZM132.51 445.921V203.079H130.51V445.921H132.51ZM134.872 466.237C133.726 464.3 133.124 462.023 132.818 458.804C132.511 455.567 132.51 451.473 132.51 445.921H130.51C130.51 451.435 130.509 455.64 130.827 458.993C131.147 462.362 131.796 464.965 133.151 467.255L134.872 466.237ZM144.442 474.465C140.297 472.646 136.956 469.758 134.872 466.237L133.151 467.255C135.468 471.17 139.147 474.326 143.639 476.296L144.442 474.465ZM168.228 476.534C161.788 476.534 157.009 476.533 153.226 476.267C149.45 476.002 146.746 475.475 144.442 474.465L143.639 476.296C146.244 477.439 149.207 477.989 153.085 478.262C156.955 478.534 161.816 478.534 168.228 478.534V476.534ZM258.771 476.534H168.228V478.534H258.771V476.534ZM282.557 474.465C280.253 475.475 277.549 476.002 273.774 476.267C269.99 476.533 265.212 476.534 258.771 476.534V478.534C265.183 478.534 270.044 478.534 273.914 478.262C277.792 477.989 280.756 477.439 283.361 476.296L282.557 474.465ZM292.127 466.237C290.044 469.758 286.702 472.646 282.557 474.465L283.361 476.296C287.852 474.326 291.532 471.17 293.849 467.255L292.127 466.237ZM294.489 445.921C294.489 451.473 294.488 455.567 294.181 458.804C293.876 462.023 293.274 464.3 292.127 466.237L293.849 467.255C295.204 464.965 295.852 462.362 296.172 458.993C296.49 455.64 296.489 451.435 296.489 445.921H294.489ZM294.489 203.079V445.921H296.489V203.079H294.489ZM292.127 182.764C293.274 184.7 293.876 186.977 294.181 190.196C294.488 193.433 294.489 197.527 294.489 203.079H296.489C296.489 197.565 296.49 193.36 296.172 190.008C295.852 186.638 295.204 184.035 293.849 181.745L292.127 182.764ZM282.557 174.536C286.702 176.354 290.044 179.243 292.127 182.764L293.849 181.745C291.532 177.831 287.852 174.674 283.361 172.704L282.557 174.536ZM258.771 172.466C265.212 172.466 269.99 172.467 273.774 172.733C277.549 172.999 280.253 173.525 282.557 174.536L283.361 172.704C280.756 171.561 277.792 171.011 273.914 170.738C270.044 170.466 265.183 170.466 258.771 170.466V172.466ZM168.228 172.466H258.771V170.466H168.228V172.466ZM144.442 174.536C146.746 173.525 149.45 172.999 153.226 172.733C157.009 172.467 161.788 172.466 168.228 172.466V170.466C161.816 170.466 156.955 170.466 153.085 170.738C149.207 171.011 146.244 171.561 143.639 172.704L144.442 174.536ZM134.872 182.764C136.956 179.243 140.297 176.354 144.442 174.536L143.639 172.704C139.147 174.674 135.468 177.831 133.151 181.745L134.872 182.764ZM188.422 182.243C188.422 179.224 190.869 176.777 193.888 176.777V174.777C189.764 174.777 186.422 178.12 186.422 182.243H188.422ZM193.888 187.71C190.869 187.71 188.422 185.262 188.422 182.243H186.422C186.422 186.367 189.764 189.71 193.888 189.71V187.71ZM233.112 187.71H193.888V189.71H233.112V187.71ZM238.578 182.243C238.578 185.262 236.131 187.71 233.112 187.71V189.71C237.235 189.71 240.578 186.367 240.578 182.243H238.578ZM233.112 176.777C236.131 176.777 238.578 179.224 238.578 182.243H240.578C240.578 178.12 237.235 174.777 233.112 174.777V176.777ZM193.888 176.777H233.112V174.777H193.888V176.777Z" fill="black" fill-opacity="0.15" mask="url(#path-6-inside-1_901_8297)"/>
<path opacity="0.2" d="M272.245 405H154.969C152.777 405 151 406.78 151 408.975V466.592H276.213V408.975C276.213 406.78 274.436 405 272.245 405Z" fill="white"/>
<g clip-path="url(#clip0_901_8297)">
<path d="M233.451 210H148.476C144.9 210 142 212.889 142 216.452V232.087V236.584V251.121L149.662 243.037H233.451C237.029 243.037 239.928 240.148 239.928 236.585V216.452C239.928 212.889 237.028 210 233.451 210Z" fill="#D5D5D5"/>
<path d="M159.344 233.265C164.373 233.265 168.451 229.203 168.451 224.192C168.451 219.181 164.373 215.119 159.344 215.119C154.314 215.119 150.237 219.181 150.237 224.192C150.237 229.203 154.314 233.265 159.344 233.265Z" fill="white"/>
<path d="M163.938 224.395C163.938 224.395 164.893 223.125 165.106 224.395C165.318 225.665 163.474 227.25 163.474 227.25L163.938 224.395Z" fill="white" stroke="#263238" stroke-width="1.1092" stroke-miterlimit="10" stroke-linecap="round" stroke-linejoin="round"/>
<path d="M154.782 224.395C154.782 224.395 153.826 223.125 153.614 224.395C153.402 225.665 155.245 227.25 155.245 227.25L154.782 224.395Z" fill="white" stroke="#263238" stroke-width="1.1092" stroke-miterlimit="10" stroke-linecap="round" stroke-linejoin="round"/>
<path d="M159.68 218.136C159.68 218.136 156.076 217.86 155.245 220.254C154.413 222.648 154.967 226.514 155.245 227.25C155.522 227.987 157.832 231.577 158.479 231.853C159.126 232.129 160.696 232.037 160.974 231.669C161.251 231.3 163.561 227.894 163.745 226.697C163.871 225.884 163.741 223.111 163.644 221.421C163.572 220.158 162.787 219.042 161.613 218.562C161.093 218.35 160.454 218.186 159.68 218.136Z" fill="white" stroke="#263238" stroke-width="1.1092" stroke-miterlimit="10" stroke-linecap="round" stroke-linejoin="round"/>
<path d="M163.645 221.421C163.573 220.158 162.788 219.042 161.614 218.562C161.093 218.35 160.455 218.185 159.681 218.136C159.681 218.136 156.077 217.86 155.245 220.254C154.821 221.476 154.758 223.081 154.835 224.458C155.017 224.668 155.616 225.311 155.526 224.501C155.419 223.548 155.313 220.691 156.057 220.056C156.8 219.422 156.906 218.892 157.969 219.738C159.031 220.585 158.924 221.325 159.987 220.797C161.049 220.268 161.262 219.104 162.217 219.527C163.173 219.95 162.855 221.961 162.855 222.913C162.855 223.865 162.855 225.664 163.492 224.817C163.587 224.691 163.682 224.488 163.775 224.244C163.745 223.277 163.691 222.227 163.645 221.421Z" fill="#263238" stroke="#263238" stroke-width="1.1092" stroke-miterlimit="10" stroke-linecap="round" stroke-linejoin="round"/>
<path d="M158.146 231.275C158.146 231.275 159.285 229.004 160.011 229.83C160.736 230.656 160.975 231.669 160.975 231.669C160.975 231.669 159.389 232.72 158.146 231.275Z" fill="#263238" stroke="#263238" stroke-width="1.1092" stroke-miterlimit="10" stroke-linecap="round" stroke-linejoin="round"/>
<path d="M158.663 217.959C158.663 217.959 158.352 217.237 157.834 216.927C157.316 216.617 157.316 216.617 157.316 216.617C157.316 216.617 158.559 216.101 158.974 216.514C159.388 216.927 159.699 217.339 159.699 217.339C159.699 217.339 159.906 215.894 160.424 216.41C160.942 216.926 161.357 217.236 161.357 217.236C161.357 217.236 159.906 217.649 159.906 218.681" fill="#263238"/>
<path d="M158.663 217.959C158.663 217.959 158.352 217.237 157.834 216.927C157.316 216.617 157.316 216.617 157.316 216.617C157.316 216.617 158.559 216.101 158.974 216.514C159.388 216.927 159.699 217.339 159.699 217.339C159.699 217.339 159.906 215.894 160.424 216.41C160.942 216.926 161.357 217.236 161.357 217.236C161.357 217.236 159.906 217.649 159.906 218.681" stroke="#263238" stroke-width="1.1092" stroke-miterlimit="10" stroke-linecap="round" stroke-linejoin="round"/>
<path d="M173.82 217.705H192.692" stroke="white" stroke-width="2.2184" stroke-miterlimit="10" stroke-linecap="round" stroke-linejoin="round"/>
<path d="M173.82 224.256H231.58" stroke="white" stroke-width="1.1092" stroke-miterlimit="10" stroke-linecap="round" stroke-linejoin="round"/>
<path d="M173.82 229.669H231.58" stroke="white" stroke-width="1.1092" stroke-miterlimit="10" stroke-linecap="round" stroke-linejoin="round"/>
<path d="M173.82 235.651H231.58" stroke="white" stroke-width="1.1092" stroke-miterlimit="10" stroke-linecap="round" stroke-linejoin="round"/>
<path d="M278.523 256.835H193.548C189.971 256.835 187.071 259.724 187.071 263.287V283.418C187.071 286.982 189.971 289.871 193.548 289.871H277.338L284.999 297.956V283.418V278.922V263.287C285 259.724 282.1 256.835 278.523 256.835Z" fill="#CFE2E0"/>
<path d="M218.892 264.54H237.764" stroke="#263238" stroke-width="2.2184" stroke-miterlimit="10" stroke-linecap="round" stroke-linejoin="round"/>
<path d="M218.892 271.092H276.652" stroke="#263238" stroke-width="1.1092" stroke-miterlimit="10" stroke-linecap="round" stroke-linejoin="round"/>
<path d="M218.892 276.504H276.652" stroke="#263238" stroke-width="1.1092" stroke-miterlimit="10" stroke-linecap="round" stroke-linejoin="round"/>
<path d="M218.892 282.486H276.652" stroke="#263238" stroke-width="1.1092" stroke-miterlimit="10" stroke-linecap="round" stroke-linejoin="round"/>
<path d="M204.796 281.997C209.825 281.997 213.903 277.935 213.903 272.924C213.903 267.913 209.825 263.851 204.796 263.851C199.766 263.851 195.689 267.913 195.689 272.924C195.689 277.935 199.766 281.997 204.796 281.997Z" fill="white"/>
<path d="M203.651 266.032C203.651 266.032 200.603 265.686 199.348 268.967C198.093 272.249 197.568 275.957 197.568 277.832C197.568 279.708 201.297 281.19 203.336 281.346C205.376 281.502 209.963 281.424 211.532 278.924C213.1 276.424 210.552 271.346 209.925 268.22C209.298 265.094 205.847 265.876 203.651 266.032Z" fill="#263238" stroke="#263238" stroke-width="1.1092" stroke-miterlimit="10" stroke-linecap="round" stroke-linejoin="round"/>
<path d="M209.39 272.301C209.39 272.301 210.346 271.031 210.558 272.301C210.77 273.571 208.927 275.156 208.927 275.156L209.39 272.301Z" fill="white" stroke="#263238" stroke-width="1.1092" stroke-miterlimit="10" stroke-linecap="round" stroke-linejoin="round"/>
<path d="M200.234 272.301C200.234 272.301 199.278 271.031 199.066 272.301C198.854 273.571 200.698 275.156 200.698 275.156L200.234 272.301Z" fill="white" stroke="#263238" stroke-width="1.1092" stroke-miterlimit="10" stroke-linecap="round" stroke-linejoin="round"/>
<path d="M205.132 266.042C205.132 266.042 201.529 265.766 200.697 268.16C199.866 270.554 200.42 274.42 200.697 275.157C200.975 275.893 203.285 279.483 203.932 279.759C204.579 280.036 206.149 279.943 206.426 279.575C206.704 279.206 209.014 275.8 209.198 274.603C209.324 273.79 209.194 271.017 209.097 269.327C209.025 268.064 208.24 266.948 207.066 266.468C206.545 266.255 205.906 266.091 205.132 266.042Z" fill="white" stroke="#263238" stroke-width="1.1092" stroke-miterlimit="10" stroke-linecap="round" stroke-linejoin="round"/>
<path d="M202.396 266.97C202.396 266.97 208.221 272.301 209.39 272.301C210.559 272.301 210.709 268.377 209.454 266.501C208.2 264.626 202.239 263.532 202.396 266.97Z" fill="#263238" stroke="#263238" stroke-width="1.1092" stroke-miterlimit="10" stroke-linecap="round" stroke-linejoin="round"/>
<path d="M233.451 305.062H148.476C144.899 305.062 142 307.952 142 311.515V327.149V331.646V346.184L149.662 338.099H233.451C237.029 338.099 239.928 335.21 239.928 331.647V311.515C239.928 307.952 237.028 305.062 233.451 305.062Z" fill="#D5D5D5"/>
<path d="M159.344 328.327C164.373 328.327 168.451 324.265 168.451 319.254C168.451 314.244 164.373 310.182 159.344 310.182C154.314 310.182 150.237 314.244 150.237 319.254C150.237 324.265 154.314 328.327 159.344 328.327Z" fill="white"/>
<path d="M163.938 319.457C163.938 319.457 164.893 318.188 165.106 319.457C165.318 320.727 163.474 322.312 163.474 322.312L163.938 319.457Z" fill="white" stroke="#263238" stroke-width="1.1092" stroke-miterlimit="10" stroke-linecap="round" stroke-linejoin="round"/>
<path d="M154.782 319.457C154.782 319.457 153.826 318.188 153.614 319.457C153.402 320.727 155.245 322.312 155.245 322.312L154.782 319.457Z" fill="white" stroke="#263238" stroke-width="1.1092" stroke-miterlimit="10" stroke-linecap="round" stroke-linejoin="round"/>
<path d="M159.68 313.198C159.68 313.198 156.076 312.922 155.245 315.316C154.413 317.71 154.967 321.576 155.245 322.313C155.522 323.049 157.832 326.64 158.479 326.916C159.126 327.192 160.696 327.1 160.974 326.732C161.251 326.363 163.561 322.957 163.745 321.76C163.871 320.947 163.741 318.174 163.644 316.484C163.572 315.221 162.787 314.105 161.613 313.625C161.093 313.412 160.454 313.248 159.68 313.198Z" fill="white" stroke="#263238" stroke-width="1.1092" stroke-miterlimit="10" stroke-linecap="round" stroke-linejoin="round"/>
<path d="M163.645 316.483C163.573 315.22 162.788 314.105 161.614 313.625C161.093 313.411 160.455 313.248 159.681 313.198C159.681 313.198 156.077 312.922 155.245 315.316C154.821 316.538 154.758 318.143 154.835 319.52C155.017 319.731 155.616 320.374 155.526 319.564C155.419 318.611 155.313 315.754 156.057 315.119C156.8 314.485 156.906 313.955 157.969 314.801C159.031 315.648 158.924 316.388 159.987 315.859C161.049 315.33 161.262 314.166 162.217 314.589C163.173 315.012 162.855 317.023 162.855 317.975C162.855 318.927 162.855 320.727 163.492 319.88C163.587 319.754 163.682 319.551 163.775 319.306C163.745 318.339 163.691 317.289 163.645 316.483Z" fill="#263238" stroke="#263238" stroke-width="1.1092" stroke-miterlimit="10" stroke-linecap="round" stroke-linejoin="round"/>
<path d="M158.146 326.337C158.146 326.337 159.285 324.067 160.011 324.892C160.736 325.718 160.975 326.731 160.975 326.731C160.975 326.731 159.389 327.783 158.146 326.337Z" fill="#263238" stroke="#263238" stroke-width="1.1092" stroke-miterlimit="10" stroke-linecap="round" stroke-linejoin="round"/>
<path d="M158.663 313.022C158.663 313.022 158.352 312.299 157.834 311.989C157.316 311.68 157.316 311.68 157.316 311.68C157.316 311.68 158.559 311.164 158.974 311.577C159.388 311.99 159.699 312.403 159.699 312.403C159.699 312.403 159.906 310.958 160.424 311.474C160.942 311.99 161.357 312.3 161.357 312.3C161.357 312.3 159.906 312.713 159.906 313.745" fill="#263238"/>
<path d="M158.663 313.022C158.663 313.022 158.352 312.299 157.834 311.989C157.316 311.68 157.316 311.68 157.316 311.68C157.316 311.68 158.559 311.164 158.974 311.577C159.388 311.99 159.699 312.403 159.699 312.403C159.699 312.403 159.906 310.958 160.424 311.474C160.942 311.99 161.357 312.3 161.357 312.3C161.357 312.3 159.906 312.713 159.906 313.745" stroke="#263238" stroke-width="1.1092" stroke-miterlimit="10" stroke-linecap="round" stroke-linejoin="round"/>
<path d="M173.82 312.768H192.692" stroke="white" stroke-width="2.2184" stroke-miterlimit="10" stroke-linecap="round" stroke-linejoin="round"/>
<path d="M173.82 319.32H231.58" stroke="white" stroke-width="1.1092" stroke-miterlimit="10" stroke-linecap="round" stroke-linejoin="round"/>
<path d="M173.82 324.732H231.58" stroke="white" stroke-width="1.1092" stroke-miterlimit="10" stroke-linecap="round" stroke-linejoin="round"/>
<path d="M173.82 330.714H231.58" stroke="white" stroke-width="1.1092" stroke-miterlimit="10" stroke-linecap="round" stroke-linejoin="round"/>
<path d="M233.451 352.393H148.476C144.899 352.393 142 355.282 142 358.845V374.48V378.977V393.514L149.662 385.43H233.451C237.029 385.43 239.928 382.541 239.928 378.978V358.846C239.928 355.282 237.028 352.393 233.451 352.393Z" fill="#D5D5D5"/>
<path d="M159.344 375.658C164.373 375.658 168.451 371.596 168.451 366.585C168.451 361.574 164.373 357.512 159.344 357.512C154.314 357.512 150.237 361.574 150.237 366.585C150.237 371.596 154.314 375.658 159.344 375.658Z" fill="white"/>
<path d="M163.938 366.788C163.938 366.788 164.893 365.518 165.106 366.788C165.318 368.058 163.474 369.643 163.474 369.643L163.938 366.788Z" fill="white" stroke="#263238" stroke-width="1.1092" stroke-miterlimit="10" stroke-linecap="round" stroke-linejoin="round"/>
<path d="M154.782 366.788C154.782 366.788 153.826 365.518 153.614 366.788C153.402 368.058 155.245 369.643 155.245 369.643L154.782 366.788Z" fill="white" stroke="#263238" stroke-width="1.1092" stroke-miterlimit="10" stroke-linecap="round" stroke-linejoin="round"/>
<path d="M159.68 360.529C159.68 360.529 156.076 360.253 155.245 362.647C154.413 365.041 154.967 368.907 155.245 369.644C155.522 370.38 157.832 373.97 158.479 374.246C159.126 374.523 160.696 374.43 160.974 374.063C161.251 373.694 163.561 370.288 163.745 369.091C163.871 368.277 163.741 365.505 163.644 363.815C163.572 362.551 162.787 361.436 161.613 360.956C161.093 360.742 160.454 360.579 159.68 360.529Z" fill="white" stroke="#263238" stroke-width="1.1092" stroke-miterlimit="10" stroke-linecap="round" stroke-linejoin="round"/>
<path d="M163.645 363.814C163.573 362.551 162.788 361.435 161.614 360.955C161.093 360.742 160.455 360.578 159.681 360.529C159.681 360.529 156.077 360.253 155.245 362.647C154.821 363.869 154.758 365.474 154.835 366.851C155.017 367.061 155.616 367.704 155.526 366.894C155.419 365.942 155.313 363.085 156.057 362.45C156.8 361.815 156.906 361.286 157.969 362.132C159.031 362.978 158.924 363.719 159.987 363.19C161.049 362.661 161.262 361.497 162.217 361.92C163.173 362.343 162.855 364.354 162.855 365.306C162.855 366.258 162.855 368.057 163.492 367.211C163.587 367.084 163.682 366.881 163.775 366.637C163.745 365.67 163.691 364.62 163.645 363.814Z" fill="#263238" stroke="#263238" stroke-width="1.1092" stroke-miterlimit="10" stroke-linecap="round" stroke-linejoin="round"/>
<path d="M158.146 373.668C158.146 373.668 159.285 371.398 160.011 372.223C160.736 373.049 160.975 374.062 160.975 374.062C160.975 374.062 159.389 375.114 158.146 373.668Z" fill="#263238" stroke="#263238" stroke-width="1.1092" stroke-miterlimit="10" stroke-linecap="round" stroke-linejoin="round"/>
<path d="M158.663 360.352C158.663 360.352 158.352 359.63 157.834 359.32C157.316 359.01 157.316 359.01 157.316 359.01C157.316 359.01 158.559 358.494 158.974 358.907C159.388 359.32 159.699 359.733 159.699 359.733C159.699 359.733 159.906 358.288 160.424 358.804C160.942 359.32 161.357 359.63 161.357 359.63C161.357 359.63 159.906 360.043 159.906 361.075" fill="#263238"/>
<path d="M158.663 360.352C158.663 360.352 158.352 359.63 157.834 359.32C157.316 359.01 157.316 359.01 157.316 359.01C157.316 359.01 158.559 358.494 158.974 358.907C159.388 359.32 159.699 359.733 159.699 359.733C159.699 359.733 159.906 358.288 160.424 358.804C160.942 359.32 161.357 359.63 161.357 359.63C161.357 359.63 159.906 360.043 159.906 361.075" stroke="#263238" stroke-width="1.1092" stroke-miterlimit="10" stroke-linecap="round" stroke-linejoin="round"/>
<path d="M173.82 360.098H192.692" stroke="white" stroke-width="2.2184" stroke-miterlimit="10" stroke-linecap="round" stroke-linejoin="round"/>
<path d="M173.82 366.65H231.58" stroke="white" stroke-width="1.1092" stroke-miterlimit="10" stroke-linecap="round" stroke-linejoin="round"/>
<path d="M173.82 372.063H231.58" stroke="white" stroke-width="1.1092" stroke-miterlimit="10" stroke-linecap="round" stroke-linejoin="round"/>
<path d="M173.82 378.045H231.58" stroke="white" stroke-width="1.1092" stroke-miterlimit="10" stroke-linecap="round" stroke-linejoin="round"/>
<path d="M278.523 399.62H193.548C189.971 399.62 187.071 402.509 187.071 406.073V426.205C187.071 429.768 189.971 432.657 193.548 432.657H277.338L284.999 440.741V426.204V421.707V406.072C285 402.508 282.1 399.62 278.523 399.62Z" fill="#CFE2E0"/>
<path d="M218.892 407.324H237.764" stroke="#263238" stroke-width="2.2184" stroke-miterlimit="10" stroke-linecap="round" stroke-linejoin="round"/>
<path d="M218.892 413.876H276.652" stroke="#263238" stroke-width="1.1092" stroke-miterlimit="10" stroke-linecap="round" stroke-linejoin="round"/>
<path d="M218.892 419.29H276.652" stroke="#263238" stroke-width="1.1092" stroke-miterlimit="10" stroke-linecap="round" stroke-linejoin="round"/>
<path d="M218.892 425.271H276.652" stroke="#263238" stroke-width="1.1092" stroke-miterlimit="10" stroke-linecap="round" stroke-linejoin="round"/>
<path d="M204.796 424.782C209.825 424.782 213.903 420.72 213.903 415.709C213.903 410.698 209.825 406.636 204.796 406.636C199.766 406.636 195.689 410.698 195.689 415.709C195.689 420.72 199.766 424.782 204.796 424.782Z" fill="white"/>
<path d="M203.651 408.818C203.651 408.818 200.603 408.471 199.348 411.753C198.093 415.034 197.568 418.743 197.568 420.618C197.568 422.493 201.297 423.975 203.336 424.132C205.376 424.288 209.963 424.209 211.532 421.709C213.1 419.209 210.552 414.131 209.925 411.006C209.298 407.88 205.847 408.661 203.651 408.818Z" fill="#263238" stroke="#263238" stroke-width="1.1092" stroke-miterlimit="10" stroke-linecap="round" stroke-linejoin="round"/>
<path d="M209.39 415.086C209.39 415.086 210.346 413.816 210.558 415.086C210.77 416.356 208.927 417.94 208.927 417.94L209.39 415.086Z" fill="white" stroke="#263238" stroke-width="1.1092" stroke-miterlimit="10" stroke-linecap="round" stroke-linejoin="round"/>
<path d="M200.234 415.086C200.234 415.086 199.278 413.816 199.066 415.086C198.854 416.356 200.698 417.94 200.698 417.94L200.234 415.086Z" fill="white" stroke="#263238" stroke-width="1.1092" stroke-miterlimit="10" stroke-linecap="round" stroke-linejoin="round"/>
<path d="M205.132 408.827C205.132 408.827 201.529 408.551 200.697 410.944C199.866 413.338 200.42 417.204 200.697 417.941C200.975 418.677 203.285 422.268 203.932 422.544C204.579 422.82 206.149 422.728 206.426 422.359C206.704 421.991 209.014 418.585 209.198 417.388C209.324 416.574 209.194 413.802 209.097 412.111C209.025 410.848 208.24 409.733 207.066 409.253C206.545 409.041 205.906 408.877 205.132 408.827Z" fill="white" stroke="#263238" stroke-width="1.1092" stroke-miterlimit="10" stroke-linecap="round" stroke-linejoin="round"/>
<path d="M202.396 409.755C202.396 409.755 208.221 415.087 209.39 415.087C210.559 415.087 210.709 411.162 209.454 409.287C208.2 407.411 202.239 406.317 202.396 409.755Z" fill="#263238" stroke="#263238" stroke-width="1.1092" stroke-miterlimit="10" stroke-linecap="round" stroke-linejoin="round"/>
</g>
</g>
<g opacity="0.55" clip-path="url(#clip1_901_8297)">
<path d="M343.328 152.877C342.937 151.297 342.934 149.634 343.141 148.027C343.997 141.38 348.681 135.509 347.774 128.596C347.394 125.704 346.08 122.898 343.606 121.256C343.626 121.213 343.644 121.166 343.658 121.115C344.205 119.096 343.232 116.78 341.267 115.91C339.398 115.083 337.23 115.711 335.968 117.236C332.164 115.751 327.901 117.31 325.071 120.074C321.711 123.354 320.148 127.862 317.978 131.903C315.91 135.753 312.587 139.973 307.747 140.032C306.147 140.052 303.969 139.154 302.644 140.463C300.887 142.199 303.151 144.318 304.386 145.496C308.294 149.222 312.655 152.475 317.334 155.189C315.883 157.563 316.867 160.852 319.39 162.24C322.465 163.932 325.98 162.619 328.049 160.075C332.523 161.432 337.121 162.362 341.785 162.864C342.768 162.97 342.76 161.443 341.785 161.338C335.269 160.637 328.874 159.036 322.788 156.629C321.868 156.265 321.469 157.74 322.379 158.1C323.729 158.634 325.094 159.124 326.47 159.576C324.919 161.213 322.519 162.074 320.363 161.024C318.178 159.96 317.345 157.018 319.247 155.266C319.9 154.664 319.086 153.734 318.388 154.036C318.374 154.027 318.36 154.017 318.345 154.009C314.394 151.737 310.677 149.087 307.272 146.069C306.46 145.349 305.665 144.61 304.889 143.852C304.438 143.411 303.047 142.247 303.732 141.542C304.173 141.089 305.226 141.3 305.772 141.37C306.763 141.498 307.704 141.611 308.705 141.49C312.805 140.993 315.994 138.031 318.123 134.706C320.412 131.129 321.742 127.031 324.168 123.531C326.619 119.996 331.298 116.671 335.751 118.793C336.127 118.972 336.484 118.84 336.703 118.595C336.84 118.544 336.968 118.45 337.07 118.304C337.84 117.202 339.442 116.727 340.677 117.314C341.93 117.91 342.525 119.413 342.174 120.71C342.135 120.853 342.136 120.984 342.167 121.1C341.873 121.429 341.826 121.984 342.322 122.263C344.519 123.503 345.706 125.764 346.159 128.167C346.689 130.978 346.086 133.793 345.199 136.468C343.368 141.993 340.19 147.767 341.968 153.741C342.447 155.349 343.348 156.584 344.322 157.924C344.815 158.602 345.393 159.488 345.219 160.373C345.101 160.967 344.479 161.537 343.873 161.168C343.027 160.652 342.253 161.971 343.096 162.486C344.215 163.168 345.717 162.692 346.38 161.596C347.258 160.146 346.555 158.397 345.651 157.154C344.655 155.783 343.742 154.55 343.328 152.877Z" fill="#385350"/>
<path d="M341.153 119.363C341.087 118.899 340.828 118.472 340.426 118.22C340.025 117.968 339.509 117.915 339.073 118.103C338.594 118.309 338.258 118.811 338.277 119.331C338.284 119.496 338.415 119.637 338.585 119.637C338.63 119.637 338.674 119.625 338.714 119.606C339.195 119.766 339.677 119.926 340.159 120.086C340.418 120.172 340.802 120.387 341.036 120.153C341.223 119.967 341.188 119.602 341.153 119.363ZM339.795 119.322C339.512 119.228 339.228 119.134 338.944 119.04C338.948 119.033 338.951 119.024 338.954 119.018C339.023 118.894 339.067 118.824 339.188 118.734C339.189 118.735 339.256 118.692 339.266 118.687C339.291 118.672 339.318 118.659 339.344 118.647C339.353 118.645 339.405 118.628 339.404 118.629C339.436 118.619 339.468 118.612 339.501 118.606C339.539 118.599 339.545 118.598 339.519 118.603C339.541 118.601 339.563 118.599 339.585 118.599C339.619 118.598 339.652 118.598 339.685 118.6C339.685 118.6 339.74 118.607 339.748 118.607C339.782 118.613 339.817 118.62 339.851 118.63C340.094 118.696 340.295 118.851 340.424 119.083C340.489 119.2 340.53 119.323 340.552 119.473C340.554 119.488 340.557 119.531 340.559 119.576C340.48 119.549 340.401 119.523 340.323 119.497C340.147 119.439 339.971 119.381 339.795 119.322Z" fill="#385350"/>
<path d="M345.228 111.28C346.545 108.754 347.863 106.229 349.18 103.704C349.464 103.159 349.322 102.47 348.769 102.148C348.254 101.85 347.485 102.009 347.2 102.556C345.882 105.082 344.565 107.607 343.248 110.132C342.963 110.677 343.105 111.366 343.659 111.688C344.173 111.986 344.942 111.827 345.228 111.28Z" fill="#385350"/>
<path d="M324.481 106.271C326.292 108.01 328.102 109.75 329.912 111.49C330.972 112.509 332.596 110.903 331.533 109.882C329.723 108.142 327.913 106.403 326.103 104.663C325.043 103.644 323.419 105.25 324.481 106.271Z" fill="#385350"/>
<path d="M352.097 122.057C354.349 122.168 356.601 122.278 358.853 122.388C359.472 122.418 360 121.844 360 121.251C360 120.61 359.474 120.145 358.853 120.114C356.601 120.004 354.349 119.894 352.097 119.784C351.478 119.753 350.95 120.328 350.95 120.92C350.95 121.561 351.476 122.027 352.097 122.057Z" fill="#385350"/>
</g>
<defs>
<filter id="filter0_d_901_8297" x="35" y="78" width="358" height="493" filterUnits="userSpaceOnUse" color-interpolation-filters="sRGB">
<feFlood flood-opacity="0" result="BackgroundImageFix"/>
<feColorMatrix in="SourceAlpha" type="matrix" values="0 0 0 0 0 0 0 0 0 0 0 0 0 0 0 0 0 0 127 0" result="hardAlpha"/>
<feOffset dy="7"/>
<feGaussianBlur stdDeviation="22.5"/>
<feComposite in2="hardAlpha" operator="out"/>
<feColorMatrix type="matrix" values="0 0 0 0 0 0 0 0 0 0 0 0 0 0 0 0 0 0 0.09 0"/>
<feBlend mode="normal" in2="BackgroundImageFix" result="effect1_dropShadow_901_8297"/>
<feBlend mode="normal" in="SourceGraphic" in2="effect1_dropShadow_901_8297" result="shape"/>
</filter>
<clipPath id="clip0_901_8297">
<rect width="143" height="231" fill="white" transform="translate(142 210)"/>
</clipPath>
<clipPath id="clip1_901_8297">
<rect width="58" height="61" fill="white" transform="translate(302 102)"/>
</clipPath>
</defs>
</svg>
