<svg width="149" height="54" viewBox="0 0 149 54" fill="none" xmlns="http://www.w3.org/2000/svg">
<path d="M136.826 53.5H12.1728C5.72584 53.5 0.5 49.2959 0.5 44.1095V9.89052C0.5 4.70406 5.72584 0.5 12.1728 0.5H136.827C143.274 0.5 148.5 4.70406 148.5 9.89052V44.1105C148.499 49.2959 143.273 53.5 136.826 53.5Z" fill="white" stroke="#336699" stroke-miterlimit="10"/>
<path d="M61.6314 36.942C67.779 36.942 72.7627 31.9182 72.7627 25.721C72.7627 19.5238 67.779 14.5 61.6314 14.5C55.4837 14.5 50.5 19.5238 50.5 25.721C50.5 31.9182 55.4837 36.942 61.6314 36.942Z" fill="white" stroke="#FF6666" stroke-width="0.9367" stroke-miterlimit="10" stroke-linecap="round" stroke-linejoin="round"/>
<path d="M65.0696 20.7092L61.6313 25.7209H66.6055" fill="white"/>
<path d="M65.0696 20.7092L61.6313 25.7209H66.6055" stroke="#FF6666" stroke-width="0.9367" stroke-miterlimit="10" stroke-linecap="round" stroke-linejoin="round"/>
<path d="M61.6313 15.5347V16.3965" stroke="#FF6666" stroke-width="0.9367" stroke-miterlimit="10" stroke-linecap="round" stroke-linejoin="round"/>
<path d="M61.6313 35.0442V35.906" stroke="#FF6666" stroke-width="0.9367" stroke-miterlimit="10" stroke-linecap="round" stroke-linejoin="round"/>
<path d="M71.7363 25.7209H70.8801" stroke="#FF6666" stroke-width="0.9367" stroke-miterlimit="10" stroke-linecap="round" stroke-linejoin="round"/>
<path d="M52.3813 25.7209H51.5264" stroke="#FF6666" stroke-width="0.9367" stroke-miterlimit="10" stroke-linecap="round" stroke-linejoin="round"/>
<path d="M21.2227 36.7181C27.1448 36.7181 31.9455 31.8787 31.9455 25.909C31.9455 19.9393 27.1448 15.0999 21.2227 15.0999C15.3007 15.0999 10.5 19.9393 10.5 25.909C10.5 31.8787 15.3007 36.7181 21.2227 36.7181Z" fill="#BECED8" stroke="#BECED8" stroke-miterlimit="10"/>
<path d="M16.3242 23.4408L20.3847 28.8753L29.5539 13.5" stroke="#7E7CF0" stroke-width="3" stroke-miterlimit="10" stroke-linecap="round" stroke-linejoin="round"/>
<path d="M84.1493 28.3744H80.5754L79.9647 30.0222H78.2573L81.7091 21.5371H83.0143L86.4674 30.0222H84.7587L84.1493 28.3744ZM83.6497 27.0338L82.3568 23.5779L81.075 27.0338H83.6497Z" fill="#B2B2B2"/>
<path d="M87.5344 28.2761H89.2307V30.0221H87.5344V28.2761Z" fill="#B2B2B2"/>
<path d="M99.1889 21.5371V30.0222H97.5913V24.6486L95.5299 28.3869H94.4553L92.3569 24.6113V30.0222H90.7593V21.5371H92.3569L94.992 26.3946L97.5901 21.5371H99.1889Z" fill="#B2B2B2"/>
<path d="M100.719 28.2761H102.415V30.0221H100.719V28.2761Z" fill="#B2B2B2"/>
<path d="M117.082 22.2248C117.615 22.6837 117.88 23.3391 117.88 24.1922C117.88 25.013 117.614 25.6522 117.082 26.1111C116.549 26.57 115.79 26.8 114.807 26.8H112.831V30.0222H111.233V21.5371H114.869C115.811 21.5371 116.549 21.7659 117.082 22.2248ZM116.283 24.181C116.283 23.7632 116.164 23.4523 115.928 23.2471C115.693 23.0419 115.36 22.9399 114.928 22.9399H112.83V25.3873H114.928C115.831 25.386 116.283 24.9844 116.283 24.181Z" fill="#FF6666"/>
<path d="M117.717 28.2761H119.414V30.0221H117.717V28.2761Z" fill="#FF6666"/>
<path d="M129.372 21.5371V30.0222H127.774V24.6486L125.713 28.3869H124.638L122.54 24.6113V30.0222H120.942V21.5371H122.54L125.175 26.3946L127.773 21.5371H129.372Z" fill="#FF6666"/>
<path d="M130.9 28.2761H132.596V30.0221H130.9V28.2761Z" fill="#FF6666"/>
<path d="M106.201 19.5V32.2195" stroke="#B2B2B2" stroke-width="0.9367" stroke-miterlimit="10" stroke-linecap="round" stroke-linejoin="round"/>
<path d="M41.7654 0.510986L42.5 53.5" stroke="#336699" stroke-miterlimit="10" stroke-linecap="round" stroke-linejoin="round"/>
</svg>
