<svg width="93" height="79" viewBox="0 0 93 79" fill="none" xmlns="http://www.w3.org/2000/svg">
<path d="M90.3387 2.66485C88.055 0.381 84.3463 0.381 82.0625 2.66485L77.0005 7.83682V12.0795H10.9844C9.58667 14.2306 8.76737 16.7928 8.76737 19.5489V63.9945C8.76737 71.5683 14.8964 77.7167 22.4699 77.7167H66.935C74.5086 77.7167 80.6377 71.5683 80.6377 63.9945V20.8568L90.3387 10.941C92.6225 8.65719 92.6225 4.94846 90.3387 2.66485Z" fill="black"/>
<path d="M66.936 78.6668H22.4697C14.3905 78.6668 7.81769 72.0847 7.81769 63.9944V19.5485C7.81769 16.7101 8.63767 13.9496 10.1886 11.562C10.363 11.293 10.6635 11.1298 10.9844 11.1298H76.0504V7.83688C76.0504 7.58829 76.1468 7.35083 76.3212 7.17274L81.384 2.00056C84.0443 -0.657884 88.3612 -0.656029 91.0104 1.99314C93.6632 4.64416 93.6632 8.96111 91.0104 11.6121L81.588 21.2441V63.9944C81.588 72.0847 75.0152 78.6668 66.936 78.6668ZM11.5113 13.0295C10.337 15.0052 9.71737 17.2481 9.71737 19.5485V63.9944C9.71737 71.0365 15.4387 76.7671 22.4697 76.7671H66.936C73.967 76.7671 79.6883 71.0365 79.6883 63.9944V20.8564C79.6883 20.6078 79.7848 20.3703 79.9592 20.1922L89.6598 10.2764C90.593 9.34327 91.1013 8.1133 91.1013 6.80356C91.1013 5.49196 90.593 4.26199 89.6672 3.33627C87.8139 1.48297 84.5841 1.48668 82.7345 3.33627L77.9501 8.22461V12.0796C77.9501 12.6046 77.5252 13.0295 77.0002 13.0295H11.5113Z" fill="black"/>
<path d="M72.8396 19.5449V63.9988C72.8396 71.5733 66.7059 77.7265 59.1314 77.7265H14.658C7.08345 77.7265 0.949804 71.5733 0.949804 63.9988V19.5449C0.949804 11.9703 7.08345 5.81721 14.658 5.81721H59.1314C66.7059 5.81721 72.8396 11.9703 72.8396 19.5449Z" fill="#7E7CF0"/>
<path d="M59.1313 78.6761H14.6576C6.57468 78.6761 0 72.0921 0 63.9981V19.5448C0 11.4507 6.57468 4.86678 14.6576 4.86678H59.1313C67.2142 4.86678 73.7889 11.4507 73.7889 19.5448V63.9981C73.7889 72.0921 67.2142 78.6761 59.1313 78.6761ZM14.6576 6.76646C7.62284 6.76646 1.89968 12.4989 1.89968 19.5448V63.9981C1.89968 71.044 7.62284 76.7764 14.6576 76.7764H59.1313C66.1661 76.7764 71.8892 71.044 71.8892 63.9981V19.5448C71.8892 12.4989 66.1661 6.76646 59.1313 6.76646H14.6576Z" fill="black"/>
<path d="M15.8416 68.4386C12.7504 68.4386 10.2371 65.9163 10.2371 62.8161V20.7274C10.2371 17.6272 12.7504 15.1049 15.8416 15.1049H57.9483C61.0395 15.1049 63.5528 17.6272 63.5528 20.7274V62.8161C63.5528 65.9163 61.0395 68.4386 57.9483 68.4386H15.8416Z" fill="#E5E4FF"/>
<path d="M57.9477 69.3892H15.8412C12.2273 69.3892 9.28689 66.4413 9.28689 62.8163V20.7265C9.28689 17.1034 12.2273 14.1555 15.8412 14.1555H57.9477C61.5615 14.1555 64.5019 17.1034 64.5019 20.7265V62.8163C64.5019 66.4413 61.5615 69.3892 57.9477 69.3892ZM15.8412 16.0552C13.2755 16.0552 11.1866 18.1516 11.1866 20.7265V62.8163C11.1866 65.3931 13.2755 67.4895 15.8412 67.4895H57.9477C60.5134 67.4895 62.6023 65.3931 62.6023 62.8163V20.7265C62.6023 18.1516 60.5134 16.0552 57.9477 16.0552H15.8412Z" fill="black"/>
<path d="M41.0524 48.491C38.1836 48.491 35.3148 47.3988 33.1303 45.2143L25.0785 37.1626C22.7911 34.877 22.7911 31.1676 25.0785 28.8821C27.366 26.5947 31.0716 26.5947 33.359 28.8821L41.0524 36.5754L74.2506 2.66056C76.538 0.373136 80.2436 0.373136 82.531 2.66056C84.8185 4.94608 84.8185 8.65552 82.531 10.941L48.9745 45.2143C46.79 47.3988 43.9212 48.491 41.0524 48.491Z" fill="#7E7CF0"/>
<path d="M41.0528 49.4406C37.8044 49.4406 34.7527 48.1791 32.4579 45.8862L24.4065 37.8348C23.1209 36.551 22.4122 34.8406 22.4122 33.0225C22.4122 31.2044 23.1209 29.494 24.4065 28.2102C26.9777 25.639 31.4598 25.639 34.031 28.2102L41.0454 35.2246L73.5719 1.99685C76.234 -0.665305 80.5473 -0.66345 83.202 1.98942C84.4876 3.27319 85.1963 4.98365 85.1963 6.79985C85.1963 8.6179 84.4876 10.3284 83.202 11.6121L49.6533 45.8787C47.3548 48.1791 44.3012 49.4406 41.0528 49.4406ZM29.2188 28.1193C27.9628 28.1193 26.7069 28.5961 25.7496 29.5534C24.822 30.4791 24.3119 31.7109 24.3119 33.0225C24.3119 34.3341 24.822 35.5659 25.7496 36.4916L33.801 44.543C35.7359 46.4761 38.3109 47.541 41.0528 47.541C43.7947 47.541 46.3697 46.4761 48.3028 44.543L81.8514 10.2764C82.7864 9.34327 83.2966 8.11144 83.2966 6.79985C83.2966 5.49011 82.7864 4.25828 81.8589 3.33256C79.9481 1.42175 76.8332 1.42175 74.9224 3.33256L41.7318 37.2393C41.5537 37.4211 41.3107 37.5231 41.0584 37.525C41.0565 37.525 41.0547 37.525 41.0528 37.525C40.8005 37.525 40.5593 37.4248 40.3812 37.2467L32.6879 29.5534C31.7307 28.5961 30.4747 28.1193 29.2188 28.1193Z" fill="black"/>
</svg>
