<svg width="71" height="83" viewBox="0 0 71 83" fill="none" xmlns="http://www.w3.org/2000/svg">
<path d="M0.103281 62.1603C0.103281 62.1603 3.40256 67.0741 4.1379 67.2292C4.87321 67.385 5.59812 67.7249 5.59812 67.7249L2.16681 62.0627L0.103281 62.1603Z" fill="#EBEBEB"/>
<path d="M48.5276 82.336L4.49811 67.4361C3.94004 67.2473 3.64049 66.6466 3.82693 66.0869C11.8128 42.084 21.614 13.694 24.8548 5.4028C25.0658 4.86339 25.6659 4.58438 26.2131 4.7701L70.2743 19.6812C70.8377 19.8722 71.1356 20.4822 70.9402 21.0451L49.9009 81.6628C49.7055 82.2249 49.0903 82.527 48.5276 82.336Z" fill="#E0E0E0"/>
<path d="M48.2382 81.1985L4.16373 66.6363L1.44514 62.9636L22.3432 0.669524L67.5601 17.2131L69.0879 20.3966L48.2382 81.1985Z" fill="white"/>
<path d="M48.2382 81.1984L45.1837 76.3341L67.0034 16.3477L69.0879 20.3965L48.2382 81.1984Z" fill="#F5F5F5"/>
<path d="M45.3667 77.8276L0.739418 62.7247C0.173947 62.533 -0.131702 61.9308 0.0547371 61.371C8.03586 37.3673 17.8371 8.97666 21.0819 0.686902C21.2929 0.147488 21.8991 -0.129289 22.4537 0.0587063L67.1134 15.1728C67.6843 15.366 67.9889 15.979 67.7935 16.5412L46.7542 77.1589C46.5588 77.721 45.9376 78.0208 45.3667 77.8276Z" fill="#EBEBEB"/>
<path d="M3.58081 63.6865C3.54438 63.6738 8.33819 49.7667 14.2866 32.628C20.2372 15.4827 25.0896 1.59843 25.126 1.61112C25.1625 1.62314 20.3695 15.5276 14.4188 32.6729C8.47045 49.8116 3.61726 63.6985 3.58081 63.6865Z" fill="#E0E0E0"/>
<path d="M43.525 73.5473L7.58908 61.3862L27.1627 4.99043L63.0992 17.1516L43.525 73.5473ZM8.95301 60.7281L42.8564 72.2015L61.7353 17.8097L27.8313 6.33622L8.95301 60.7281Z" fill="#E0E0E0"/>
<path d="M30.6695 63.5085L23.1668 60.9693L22.4467 63.0439L29.9494 65.583L30.6695 63.5085Z" fill="#E0E0E0"/>
<path d="M46.2463 15.0529L42.7505 13.8698L42.0305 15.9443L45.5262 17.1274L46.2463 15.0529Z" fill="#E0E0E0"/>
<path d="M54.0072 28.205L27.6614 19.2887L24.447 28.5496L50.7929 37.4659L54.0072 28.205Z" fill="#E0E0E0"/>
<path d="M45.9446 38.6554L26.5418 32.0889L25.1878 35.9897L44.5906 42.5562L45.9446 38.6554Z" fill="#E0E0E0"/>
<path d="M20.8528 9.30317L18.1549 8.39009L17.5733 10.0656L20.2713 10.9787L20.8528 9.30317Z" fill="#E0E0E0"/>
<path d="M19.9545 11.8918L17.2565 10.9787L16.6748 12.6549L19.3727 13.568L19.9545 11.8918Z" fill="#E0E0E0"/>
<path d="M4.40604 56.6876L1.90816 55.8423L1.3266 57.5178L3.82448 58.3632L4.40604 56.6876Z" fill="#E0E0E0"/>
<g opacity="0.3">
<path d="M17.7653 18.1993L15.0673 17.2862L5.06366 46.1073L7.76163 47.0204L17.7653 18.1993Z" fill="#E0E0E0"/>
</g>
<path d="M68.2688 19.0023C68.2688 19.0023 68.2418 19.095 68.1817 19.2747C68.1201 19.4564 68.0305 19.7219 67.9134 20.0693C67.6737 20.77 67.321 21.798 66.8681 23.1215C65.9533 25.7729 64.6314 29.6039 62.9987 34.3378C59.7176 43.8065 55.187 56.8831 50.1831 71.325C49.1537 74.2902 48.144 77.1982 47.1776 79.9811L47.1549 80.0456L47.0894 80.0232C34.5189 75.7596 23.4551 72.0067 15.5298 69.3182C11.5724 67.97 8.39909 66.8884 6.21224 66.1429C5.1233 65.769 4.27993 65.4795 3.70578 65.2821C3.42246 65.1835 3.2066 65.1081 3.05819 65.0566C2.9125 65.0051 2.83911 64.9757 2.83911 64.9757C2.83911 64.9757 2.91551 64.9971 3.06201 65.0446C3.21188 65.0935 3.42924 65.1649 3.71409 65.2588C4.28979 65.4509 5.13545 65.733 6.22815 66.097C8.41805 66.8332 11.5959 67.9015 15.5594 69.233C23.4885 71.9103 34.5575 75.6478 47.1342 79.8941L47.0467 79.9362C48.0125 77.1526 49.0215 74.2446 50.0502 71.2794C55.0697 56.8421 59.6143 43.7706 62.9049 34.305C64.5559 29.5771 65.8919 25.7512 66.8162 23.1029C67.2799 21.7831 67.6407 20.7581 67.8865 20.0589C68.0096 19.7138 68.1033 19.4497 68.1682 19.2688C68.233 19.092 68.2688 19.0023 68.2688 19.0023Z" fill="#E0E0E0"/>
</svg>
