<svg width="82" height="69" viewBox="0 0 82 69" fill="none" xmlns="http://www.w3.org/2000/svg">
<rect width="82" height="69" rx="16" fill="white"/>
<rect x="10" width="62" height="62" rx="8" fill="#E3E8F4"/>
<g clip-path="url(#clip0_901_6833)">
<path d="M40.9991 22.2717C39.7952 22.2717 38.8162 23.2507 38.8162 24.4546C38.8162 25.6584 39.7952 26.6374 40.9991 26.6374C42.2029 26.6374 43.1819 25.6584 43.1819 24.4546C43.1819 23.2508 42.2029 22.2717 40.9991 22.2717ZM40.9991 25.5465C40.3971 25.5465 39.9071 25.0565 39.9071 24.4546C39.9071 23.8526 40.3971 23.3626 40.9991 23.3626C41.601 23.3626 42.091 23.8526 42.091 24.4546C42.091 25.0565 41.601 25.5465 40.9991 25.5465Z" fill="#3B579E"/>
<path d="M52.4546 28.8182C52.7561 28.8182 53.0001 28.5757 53.0001 28.2742V26.0927C53.0001 25.9004 52.8989 25.722 52.7332 25.6239L42.0632 19.2874C42.0584 19.2842 42.0536 19.2815 42.0488 19.2789C41.3856 18.9114 40.6378 18.9002 39.9362 19.2864L29.2669 25.6239C29.1012 25.7219 29 25.9004 29 26.0927V28.2742C29 28.5757 29.244 28.8182 29.5455 28.8182H31.1818V38.6368C29.9785 38.6368 29 39.6152 29 40.8184V42.4546C29 42.7561 29.244 43 29.5455 43H52.4546C52.7561 43 53.0001 42.7561 53.0001 42.4546V40.8184C53.0001 39.6152 52.0216 38.6368 50.8182 38.6368V28.8182H52.4546ZM51.9091 40.8182V41.9091H30.0909V40.8182C30.0909 40.2168 30.5804 39.7273 31.1818 39.7273H31.7273H50.2727H50.8182C51.4196 39.7273 51.9091 40.2168 51.9091 40.8182ZM32.2727 38.6364V28.8182H34.4546V38.6364H32.2727ZM35.5455 38.6364V28.8182H38.8182V38.6364H35.5455ZM39.9091 38.6364V28.8182H42.0909V38.6364H39.9091ZM43.1818 38.6364V28.8182H46.4545V38.6364H43.1818ZM47.5455 38.6364V28.8182H49.7273V38.6364H47.5455ZM30.0909 27.7273V26.4015L40.4775 20.231C40.8173 20.044 41.1784 20.0446 41.514 20.2273L51.9091 26.4015V27.7273H30.0909Z" fill="#3B579E"/>
</g>
<defs>
<clipPath id="clip0_901_6833">
<rect width="24" height="24" fill="white" transform="translate(29 19)"/>
</clipPath>
</defs>
</svg>
