<svg width="51" height="50" viewBox="0 0 51 50" fill="none" xmlns="http://www.w3.org/2000/svg">
<path d="M12.0702 22.7241L16.1105 21.7628L22.1204 7.87056L20.2787 0.129827C20.2787 0.129827 26.4357 -1.72436 28.1131 8.58639C29.7904 18.8971 29.9709 16.1263 29.9709 16.1263C29.9709 16.1263 43.2423 13.0199 44.6086 13.8641C45.6006 14.4771 48.9711 27.0328 50.7404 33.8585C51.6309 37.2924 50.1889 41.0282 47.0393 42.6393C46.5926 42.8689 46.1284 43.0515 45.6555 43.164C42.3496 43.9506 24.8374 45.3909 24.8374 45.3909L17.8569 47.0518L12.0702 22.7241Z" fill="#BCB6E4"/>
<path d="M0 23.3501L8.7952 49.2847L15.7153 47.6382L9.53135 21.6478L0 23.3501Z" fill="#BCB6E4"/>
</svg>
