<svg width="24" height="24" viewBox="0 0 24 24" fill="none" xmlns="http://www.w3.org/2000/svg">
<path d="M21.9504 16.87C21.8919 16.6489 21.7878 16.4426 21.6446 16.2643C21.5015 16.0861 21.3226 15.9398 21.1195 15.835L16.8546 13.6236C16.5104 13.4411 16.1122 13.3883 15.7324 13.4751C15.3527 13.5619 15.0168 13.7823 14.7859 14.0963L14.0964 15.0415C14.0609 15.0907 14.0088 15.1251 13.9497 15.1385C13.8907 15.1518 13.8288 15.1431 13.7757 15.114C12.7616 14.5366 11.8332 13.8201 11.0175 12.9854C10.1833 12.1691 9.4673 11.2401 8.8902 10.2255C8.86109 10.1724 8.85239 10.1104 8.86572 10.0513C8.87906 9.99225 8.91351 9.94007 8.9626 9.90463L9.90385 9.21464C10.2176 8.98366 10.4379 8.64752 10.5246 8.26754C10.6113 7.88756 10.5587 7.48906 10.3762 7.1447L8.17995 2.88061C8.07448 2.67709 7.92733 2.49809 7.7481 2.35528C7.56887 2.21247 7.36157 2.10905 7.13973 2.05177C6.91788 1.99448 6.68645 1.98461 6.46054 2.0228C6.23462 2.061 6.01929 2.14639 5.82856 2.27343L3.14963 4.06738C2.77346 4.318 2.46972 4.66313 2.26882 5.0682C2.06793 5.47326 1.97694 5.92404 2.00497 6.37537C2.04042 7.13846 2.1431 7.89693 2.31182 8.64196C3.0393 11.4502 4.79423 14.3378 7.23181 16.7803C9.6694 19.2228 12.5586 20.9719 15.3651 21.693C16.1097 21.8617 16.8677 21.9645 17.6303 22H17.8027C18.2235 21.9991 18.6376 21.8952 19.009 21.6973C19.3804 21.4995 19.6978 21.2137 19.9335 20.865L21.7194 18.1844C21.8483 17.994 21.9355 17.7784 21.9754 17.5519C22.0152 17.3254 22.0067 17.093 21.9504 16.87ZM20.5713 17.4151L18.7957 20.0991C18.6778 20.2732 18.5166 20.4135 18.3279 20.506C18.1393 20.5986 17.9297 20.6403 17.72 20.6269C17.0436 20.5957 16.3712 20.5068 15.7099 20.3613C13.1379 19.692 10.4762 18.074 8.21098 15.7971C5.94579 13.5201 4.32188 10.8671 3.65301 8.29352C3.50637 7.63196 3.41641 6.95909 3.38408 6.28222C3.3703 6.07281 3.41179 5.86345 3.50437 5.67514C3.59696 5.48683 3.73739 5.32618 3.91159 5.2093L6.59052 3.42225C6.63131 3.39493 6.67936 3.3805 6.72844 3.38085H6.79394C6.82789 3.38971 6.85958 3.40566 6.88692 3.42766C6.91426 3.44966 6.93662 3.47721 6.95254 3.5085L9.15913 7.77603C9.18655 7.82895 9.19433 7.88989 9.18107 7.94801C9.16781 8.00612 9.13438 8.05765 9.08672 8.09342L8.14548 8.78341C7.8263 9.02101 7.60516 9.36737 7.52385 9.75702C7.44253 10.1467 7.50668 10.5526 7.70416 10.8982C8.34231 12.0143 9.13124 13.0371 10.0487 13.9376C10.9485 14.8556 11.9706 15.645 13.0862 16.2835C13.4315 16.4811 13.8372 16.5453 14.2266 16.4639C14.616 16.3826 14.9622 16.1613 15.1997 15.8419L15.8892 14.8966C15.925 14.849 15.9765 14.8155 16.0345 14.8022C16.0926 14.789 16.1535 14.7968 16.2064 14.8242L20.4713 17.0321C20.5025 17.0485 20.53 17.0712 20.5519 17.0988C20.5737 17.1265 20.5896 17.1584 20.5984 17.1925C20.6071 17.2267 20.6087 17.2623 20.6028 17.2971C20.597 17.3318 20.5839 17.365 20.5644 17.3944L20.5713 17.4151Z" fill="black"/>
</svg>
