<svg width="179" height="319" viewBox="0 0 179 319" fill="none" xmlns="http://www.w3.org/2000/svg">
<path d="M0 41.9586C0 27.2717 0 19.9282 3.31986 14.3186C6.24008 9.38423 10.8997 5.37245 16.631 2.85826C23.1466 0 31.676 0 48.7347 0H130.265C147.324 0 155.853 0 162.369 2.85826C168.1 5.37245 172.76 9.38423 175.68 14.3186C179 19.9282 179 27.2717 179 41.9586V277.041C179 291.728 179 299.072 175.68 304.681C172.76 309.616 168.1 313.628 162.369 316.142C155.853 319 147.324 319 130.265 319H48.7347C31.676 319 23.1466 319 16.631 316.142C10.8997 313.628 6.24008 309.616 3.31986 304.681C0 299.072 0 291.728 0 277.041V41.9586Z" fill="#181A22"/>
<path d="M0.5 41.9586C0.5 34.6056 0.500523 29.1257 0.912746 24.7819C1.32416 20.4465 2.14246 17.2898 3.75015 14.5733C6.61214 9.73727 11.1872 5.79233 16.8319 3.31614C20.0144 1.92002 23.7107 1.21153 28.7643 0.85605C33.8218 0.500289 40.1982 0.5 48.7347 0.5H130.265C138.802 0.5 145.178 0.500289 150.236 0.85605C155.289 1.21153 158.986 1.92002 162.168 3.31614C167.813 5.79233 172.388 9.73727 175.25 14.5733C176.858 17.2898 177.676 20.4465 178.087 24.7819C178.499 29.1257 178.5 34.6056 178.5 41.9586V277.041C178.5 284.394 178.499 289.874 178.087 294.218C177.676 298.554 176.858 301.71 175.25 304.427C172.388 309.263 167.813 313.208 162.168 315.684C158.986 317.08 155.289 317.788 150.236 318.144C145.178 318.5 138.802 318.5 130.265 318.5H48.7347C40.1982 318.5 33.8218 318.5 28.7643 318.144C23.7107 317.788 20.0144 317.08 16.8319 315.684C11.1872 313.208 6.61214 309.263 3.75015 304.427C2.14246 301.71 1.32416 298.554 0.912746 294.218C0.500523 289.874 0.5 284.394 0.5 277.041V41.9586Z" stroke="black" stroke-opacity="0.9"/>
<mask id="path-3-inside-1_901_7883" fill="white">
<path fill-rule="evenodd" clip-rule="evenodd" d="M10.0115 17.2543C7.51025 21.4807 7.51025 27.0135 7.51025 38.0789V280.921C7.51025 291.987 7.51025 297.519 10.0115 301.746C12.2117 305.464 15.7224 308.486 20.0405 310.38C24.9495 312.534 31.3757 312.534 44.2282 312.534H134.771C147.624 312.534 154.05 312.534 158.959 310.38C163.277 308.486 166.788 305.464 168.988 301.746C171.489 297.519 171.489 291.987 171.489 280.921V38.0789C171.489 27.0135 171.489 21.4807 168.988 17.2543C166.788 13.5366 163.277 10.514 158.959 8.61979C154.05 6.46631 147.624 6.46631 134.771 6.46631H44.2282C31.3757 6.46631 24.9495 6.46631 20.0405 8.61979C15.7224 10.514 12.2117 13.5366 10.0115 17.2543ZM69.8879 10.7771C66.3167 10.7771 63.4217 13.6721 63.4217 17.2433C63.4217 20.8145 66.3167 23.7095 69.8879 23.7095H109.112C112.683 23.7095 115.578 20.8145 115.578 17.2433C115.578 13.6721 112.683 10.7771 109.112 10.7771H69.8879Z"/>
</mask>
<path fill-rule="evenodd" clip-rule="evenodd" d="M10.0115 17.2543C7.51025 21.4807 7.51025 27.0135 7.51025 38.0789V280.921C7.51025 291.987 7.51025 297.519 10.0115 301.746C12.2117 305.464 15.7224 308.486 20.0405 310.38C24.9495 312.534 31.3757 312.534 44.2282 312.534H134.771C147.624 312.534 154.05 312.534 158.959 310.38C163.277 308.486 166.788 305.464 168.988 301.746C171.489 297.519 171.489 291.987 171.489 280.921V38.0789C171.489 27.0135 171.489 21.4807 168.988 17.2543C166.788 13.5366 163.277 10.514 158.959 8.61979C154.05 6.46631 147.624 6.46631 134.771 6.46631H44.2282C31.3757 6.46631 24.9495 6.46631 20.0405 8.61979C15.7224 10.514 12.2117 13.5366 10.0115 17.2543ZM69.8879 10.7771C66.3167 10.7771 63.4217 13.6721 63.4217 17.2433C63.4217 20.8145 66.3167 23.7095 69.8879 23.7095H109.112C112.683 23.7095 115.578 20.8145 115.578 17.2433C115.578 13.6721 112.683 10.7771 109.112 10.7771H69.8879Z" fill="white"/>
<path d="M10.0115 17.2543L9.15093 16.745L10.0115 17.2543ZM10.0115 301.746L10.8721 301.237H10.8721L10.0115 301.746ZM20.0405 310.38L19.6387 311.296H19.6387L20.0405 310.38ZM158.959 310.38L159.361 311.296H159.361L158.959 310.38ZM168.988 301.746L168.127 301.237L168.988 301.746ZM168.988 17.2543L169.849 16.745V16.745L168.988 17.2543ZM158.959 8.61979L159.361 7.70403L159.361 7.70403L158.959 8.61979ZM20.0405 8.61979L19.6387 7.70403L20.0405 8.61979ZM8.51025 38.0789C8.51025 32.5271 8.5113 28.433 8.81844 25.1965C9.12397 21.9769 9.72596 19.7003 10.8721 17.7636L9.15093 16.745C7.79581 19.0348 7.14717 21.6378 6.82738 25.0075C6.50921 28.3603 6.51025 32.5653 6.51025 38.0789H8.51025ZM8.51025 280.921V38.0789H6.51025V280.921H8.51025ZM10.8721 301.237C9.72596 299.3 9.12397 297.023 8.81844 293.804C8.5113 290.567 8.51025 286.473 8.51025 280.921H6.51025C6.51025 286.435 6.50921 290.64 6.82738 293.993C7.14717 297.362 7.79581 299.965 9.15093 302.255L10.8721 301.237ZM20.4422 309.465C16.2974 307.646 12.9558 304.758 10.8721 301.237L9.15093 302.255C11.4676 306.17 15.1474 309.326 19.6387 311.296L20.4422 309.465ZM44.2282 311.534C37.7877 311.534 33.0092 311.533 29.2257 311.267C25.4502 311.002 22.7462 310.475 20.4422 309.465L19.6387 311.296C22.2438 312.439 25.2074 312.989 29.0854 313.262C32.9554 313.534 37.8162 313.534 44.2282 313.534V311.534ZM134.771 311.534H44.2282V313.534H134.771V311.534ZM158.557 309.465C156.253 310.475 153.549 311.002 149.774 311.267C145.99 311.533 141.212 311.534 134.771 311.534V313.534C141.183 313.534 146.044 313.534 149.914 313.262C153.792 312.989 156.756 312.439 159.361 311.296L158.557 309.465ZM168.127 301.237C166.044 304.758 162.702 307.646 158.557 309.465L159.361 311.296C163.852 309.326 167.532 306.17 169.849 302.255L168.127 301.237ZM170.489 280.921C170.489 286.473 170.488 290.567 170.181 293.804C169.876 297.023 169.274 299.3 168.127 301.237L169.849 302.255C171.204 299.965 171.852 297.362 172.172 293.993C172.49 290.64 172.489 286.435 172.489 280.921H170.489ZM170.489 38.0789V280.921H172.489V38.0789H170.489ZM168.127 17.7636C169.274 19.7003 169.876 21.9769 170.181 25.1965C170.488 28.433 170.489 32.5271 170.489 38.0789H172.489C172.489 32.5653 172.49 28.3603 172.172 25.0075C171.852 21.6378 171.204 19.0348 169.849 16.745L168.127 17.7636ZM158.557 9.53555C162.702 11.3538 166.044 14.2427 168.127 17.7636L169.849 16.745C167.532 12.8305 163.852 9.67429 159.361 7.70403L158.557 9.53555ZM134.771 7.46631C141.212 7.46631 145.99 7.46689 149.774 7.73303C153.549 7.99861 156.253 8.52484 158.557 9.53555L159.361 7.70403C156.756 6.56126 153.792 6.01075 149.914 5.73796C146.044 5.46573 141.183 5.46631 134.771 5.46631V7.46631ZM44.2282 7.46631H134.771V5.46631H44.2282V7.46631ZM20.4422 9.53555C22.7462 8.52484 25.4502 7.99861 29.2257 7.73303C33.0092 7.46689 37.7877 7.46631 44.2282 7.46631V5.46631C37.8162 5.46631 32.9554 5.46573 29.0854 5.73796C25.2074 6.01075 22.2438 6.56126 19.6387 7.70403L20.4422 9.53555ZM10.8721 17.7636C12.9558 14.2427 16.2974 11.3538 20.4422 9.53555L19.6387 7.70403C15.1474 9.67429 11.4676 12.8305 9.15093 16.745L10.8721 17.7636ZM64.4217 17.2433C64.4217 14.2244 66.869 11.7771 69.8879 11.7771V9.7771C65.7644 9.7771 62.4217 13.1198 62.4217 17.2433H64.4217ZM69.8879 22.7095C66.869 22.7095 64.4217 20.2622 64.4217 17.2433H62.4217C62.4217 21.3668 65.7644 24.7095 69.8879 24.7095V22.7095ZM109.112 22.7095H69.8879V24.7095H109.112V22.7095ZM114.578 17.2433C114.578 20.2622 112.131 22.7095 109.112 22.7095V24.7095C113.235 24.7095 116.578 21.3668 116.578 17.2433H114.578ZM109.112 11.7771C112.131 11.7771 114.578 14.2244 114.578 17.2433H116.578C116.578 13.1198 113.235 9.7771 109.112 9.7771V11.7771ZM69.8879 11.7771H109.112V9.7771H69.8879V11.7771Z" fill="black" fill-opacity="0.15" mask="url(#path-3-inside-1_901_7883)"/>
<path opacity="0.2" d="M148.245 240H30.9686C28.7771 240 27 241.78 27 243.975V301.592H152.213V243.975C152.213 241.78 150.436 240 148.245 240Z" fill="white"/>
<path opacity="0.5" d="M66.7858 264.832C66.7858 270.458 64.1708 275.478 60.091 278.721C59.9899 278.813 59.8897 278.898 59.7795 278.974C58.6192 279.858 57.3496 280.608 55.987 281.18C53.8586 282.09 51.5126 282.595 49.0484 282.595C47.9386 282.595 46.8451 282.494 45.794 282.293C45.6342 282.267 45.4662 282.234 45.3064 282.191C44.751 282.082 44.2047 281.939 43.6666 281.762C41.9175 281.205 40.2776 280.381 38.8139 279.336C38.6541 279.227 38.5033 279.117 38.3516 279C34.0714 275.757 31.3127 270.619 31.3127 264.833C31.3127 255.021 39.2518 247.069 49.0493 247.069C58.8467 247.068 66.7858 255.02 66.7858 264.832Z" fill="white"/>
<path d="M49.0492 281.753C47.99 281.753 46.948 281.656 45.9529 281.465C45.794 281.44 45.6531 281.412 45.5204 281.376C44.9551 281.263 44.4368 281.128 43.9293 280.961C42.2678 280.434 40.7137 279.656 39.3033 278.65C39.1434 278.54 39.0062 278.441 38.868 278.334C34.5987 275.099 32.1543 270.18 32.1543 264.832C32.1543 255.502 39.734 247.91 49.0501 247.91C58.3663 247.91 65.946 255.502 65.946 264.832C65.946 270.018 63.6217 274.84 59.57 278.062C59.4535 278.165 59.3813 278.227 59.3027 278.282C58.1378 279.168 56.9242 279.874 55.6627 280.405C53.5669 281.3 51.3437 281.753 49.0492 281.753Z" fill="white"/>
<path d="M43.6676 281.762C41.9185 281.206 40.2787 280.381 38.8149 279.336C40.2697 279.344 41.4553 279.639 42.3131 280.17C42.3131 280.17 42.305 280.178 42.3131 280.178C42.5154 280.288 42.6996 280.43 42.8603 280.582C43.2297 280.911 43.5078 281.315 43.6676 281.762Z" fill="#263238"/>
<path d="M60.092 278.721C59.9909 278.814 59.8907 278.899 59.7805 278.974C58.6202 279.858 57.3506 280.608 55.9879 281.18C53.8596 282.09 51.5136 282.596 49.0494 282.596C47.9396 282.596 46.8461 282.494 45.795 282.293C45.6352 282.267 45.4672 282.234 45.3074 282.191C44.752 282.082 44.2057 281.939 43.6675 281.762C41.9184 281.206 40.2786 280.381 38.8149 279.336C38.655 279.227 38.5042 279.117 38.3525 279C38.3607 279 38.3778 278.992 38.3859 278.992C39.6474 278.722 41.2286 278.427 42.8431 278.251C43.0029 278.234 43.1709 278.218 43.3479 278.2C46.1571 277.948 50.4038 277.982 53.39 278.066C53.5246 278.074 53.6673 278.074 53.8018 278.083C55.5094 278.151 57.2241 278.335 58.612 278.512C59.1665 278.587 59.6631 278.653 60.092 278.721Z" fill="#263238"/>
<path d="M59.7806 278.974C58.6203 279.858 57.3506 280.608 55.988 281.18C56.8125 279.95 58.1489 279.176 59.7806 278.974Z" fill="#263238"/>
<path d="M53.8008 278.081C53.8008 278.081 53.0694 280.836 47.1656 281.046C46.9218 281.214 46.3168 281.661 45.7949 282.292C45.6351 282.266 45.4671 282.233 45.3073 282.19C45.2152 281.736 45.1727 281.255 45.1556 281.019C44.0458 280.943 43.3135 280.783 42.8593 280.582C42.5902 280.455 42.4132 280.32 42.3121 280.177C42.3121 280.169 42.3121 280.169 42.3121 280.169C41.698 279.327 43.3469 278.199 43.3469 278.199C46.3999 277.424 46.9047 275.512 46.6609 273.432C46.6356 273.179 46.6022 272.918 46.5516 272.657C46.5182 272.446 46.4758 272.235 46.4252 272.025C46.4171 271.974 46.3999 271.932 46.3918 271.882L50.1843 268.613L51.3447 267.619L52.9683 266.221C52.9601 266.272 52.943 266.331 52.9348 266.381C52.9348 266.389 52.9348 266.389 52.9348 266.389C52.8509 266.794 52.7669 267.215 52.691 267.678C52.0851 271.191 51.7664 276.144 53.8008 278.081Z" fill="#CE7A63"/>
<path opacity="0.2" d="M46.3936 271.879C46.5155 272.397 46.6121 272.923 46.6645 273.43C48.093 273.117 49.9811 271.554 50.1572 270.085C50.2231 269.532 50.2267 268.999 50.1825 268.617L46.3936 271.879Z" fill="black"/>
<path d="M43.4896 254.509C41.2204 255.583 40.0564 262.057 42.9921 263.395C45.9268 264.733 47.7878 252.473 43.4896 254.509Z" fill="#263238"/>
<path d="M54.0448 261.31C53.1409 265.845 52.842 268.537 50.2125 270.645C46.2574 273.814 40.8972 271.15 40.4286 266.484C40.0069 262.283 41.5555 255.571 46.28 254.211C50.934 252.871 54.9487 256.774 54.0448 261.31Z" fill="#CE7A63"/>
<path d="M49.6807 255.844L49.9064 251.887C50.9728 252.331 52.0944 252.511 53.1057 252.264C57.7597 251.131 61.3545 254.1 59.2054 256.736C61.4132 257.675 60.2195 260.704 58.7611 262.642C56.7348 265.334 54.5658 266.613 53.0506 265.414C51.6998 264.764 51.4442 260.099 51.8767 258.367C52.5305 255.755 49.6807 255.844 49.6807 255.844Z" fill="#263238"/>
<path d="M55.1643 266.007C54.3742 266.992 53.2735 267.583 52.3298 267.761C50.9112 268.029 50.5681 266.714 51.2697 265.426C51.9009 264.267 53.3999 262.731 54.6758 263.047C55.9337 263.358 56.0682 264.881 55.1643 266.007Z" fill="#CE7A63"/>
<path d="M46.9336 261.879C46.883 262.251 46.6446 262.532 46.4008 262.507C46.157 262.483 46.0008 262.161 46.0523 261.789C46.1029 261.417 46.3412 261.136 46.5851 261.16C46.828 261.187 46.9842 261.508 46.9336 261.879Z" fill="#263238"/>
<path d="M42.7248 261.452C42.6743 261.823 42.4359 262.105 42.1921 262.079C41.9483 262.055 41.793 261.733 41.8435 261.361C41.8941 260.989 42.1325 260.708 42.3763 260.734C42.6192 260.759 42.7754 261.08 42.7248 261.452Z" fill="#263238"/>
<path d="M44.0377 261.773C44.0377 261.773 42.8981 263.83 41.8245 264.77C42.3997 265.451 43.5573 265.283 43.5573 265.283L44.0377 261.773Z" fill="#BA4D3C"/>
<path d="M48.4209 260.656C48.457 260.655 48.4932 260.646 48.5266 260.626C48.6313 260.565 48.6674 260.431 48.6069 260.325C48.0055 259.283 46.987 259.24 46.9445 259.239C46.8307 259.224 46.7215 259.33 46.7179 259.452C46.7143 259.573 46.8091 259.675 46.9301 259.679C46.9725 259.681 47.7545 259.727 48.2259 260.545C48.2683 260.618 48.3433 260.658 48.4209 260.656Z" fill="#263238"/>
<path d="M41.113 259.823C41.1834 259.822 41.2521 259.787 41.2936 259.723C41.8426 258.887 42.6598 258.858 42.6679 258.858C42.7899 258.855 42.8856 258.754 42.8829 258.633C42.8802 258.512 42.7799 258.416 42.6598 258.418C42.6165 258.418 41.6015 258.454 40.9279 259.481C40.8611 259.582 40.8891 259.719 40.9911 259.786C41.0272 259.812 41.0706 259.824 41.113 259.823Z" fill="#263238"/>
<path d="M53.3901 252.764C53.3901 252.764 49.7041 246.694 43.7317 248.39C43.7317 248.39 44.9092 248.569 45.432 248.979C45.432 248.979 40.1107 248.88 38.7156 252.714L39.6881 252.051C39.6881 252.051 38.5503 255.226 40.266 257.15L40.4927 256.109C40.4927 256.109 42.8413 258.653 46.0217 257.668L44.8667 257.175C44.8667 257.175 50.421 256.623 51.7051 255.108C52.9882 253.593 53.3901 252.764 53.3901 252.764Z" fill="#263238"/>
<path d="M42.7285 266.594C42.7285 266.594 44.1679 266.085 48.3198 265.613C47.9749 266.918 47.183 268.041 45.0546 268.262C42.9254 268.485 42.7285 266.594 42.7285 266.594Z" fill="#263238"/>
<path d="M45.9287 267.169C44.902 267.276 44.1868 267.594 43.6812 268.036C44.008 268.222 44.4568 268.324 45.0519 268.261C46.0786 268.155 46.7901 267.842 47.2949 267.395C46.968 267.21 46.5238 267.106 45.9287 267.169Z" fill="#A02724"/>
<path d="M42.9128 266.537C43.0609 266.79 43.2081 267.043 43.6334 267.083C44.5048 267.043 46.691 266.546 47.2725 266.354C47.6463 266.248 47.956 266.081 48.1412 265.634C44.9437 266.005 43.4068 266.394 42.9128 266.537Z" fill="white"/>
<path d="M130.156 281.73C129.448 281.73 128.744 281.686 128.006 281.593C126.822 281.441 125.67 281.168 124.583 280.783C123.319 280.343 122.124 279.758 121.027 279.043C120.578 278.765 120.15 278.457 119.702 278.094L119.47 277.905H119.459C119.357 277.822 119.257 277.735 119.156 277.644C118.948 277.47 118.778 277.316 118.616 277.161C115.209 273.973 113.259 269.472 113.259 264.808C113.259 255.477 120.839 247.886 130.155 247.886C139.476 247.886 147.059 255.477 147.059 264.808C147.059 269.048 145.498 273.078 142.657 276.195H142.181L142.176 276.704C141.882 277.004 141.585 277.281 141.289 277.527C141.179 277.632 141.125 277.679 141.071 277.726C140.328 278.357 139.541 278.914 138.739 279.379H138.119L138.116 279.732C135.901 280.927 133.403 281.61 130.861 281.712C130.604 281.722 130.376 281.73 130.156 281.73Z" fill="white"/>
<path d="M143.022 277.038C143.014 277.038 143.014 277.046 143.014 277.046C142.636 277.451 142.24 277.83 141.829 278.175C141.761 278.242 141.694 278.302 141.626 278.36C140.802 279.059 139.911 279.691 138.961 280.222C138.953 280.222 138.953 280.222 138.953 280.23C136.564 281.611 133.823 282.436 130.896 282.555C129.937 282.631 128.937 282.605 127.902 282.428C126.658 282.268 125.446 281.981 124.303 281.577C122.973 281.114 121.721 280.499 120.569 279.749C120.417 278.764 120.645 277.855 120.914 277.197C120.989 277.012 121.065 276.852 121.14 276.709C121.149 276.684 121.157 276.658 121.174 276.633L121.182 276.625C121.342 276.313 121.476 276.128 121.476 276.128C121.476 276.128 119.508 275.513 119.155 273.096C118.768 270.485 120.215 268.581 120.215 268.581C120.215 268.581 118.482 268.245 118.062 265.178C117.633 262.104 119.803 260.967 119.803 260.967C118.828 257.328 121.712 256.233 121.712 256.233C122.032 252.687 125.748 253.277 125.748 253.277C125.748 253.277 127.144 250.539 131.282 252.645C131.282 252.645 132.728 251.247 135.815 252.611C138.186 253.656 138.607 256.259 138.607 256.259C144.216 258.406 141.861 263.368 141.861 263.368C144.561 267.621 141.895 270.477 141.895 270.477C144.149 273.972 143.51 276.137 143.022 277.038Z" fill="#263238"/>
<path d="M124.377 281.367C124.352 281.434 124.327 281.51 124.302 281.578C122.972 281.115 121.72 280.5 120.568 279.75C120.08 279.447 119.618 279.11 119.172 278.748C119.155 278.748 119.146 278.731 119.129 278.715C118.944 278.58 118.768 278.428 118.591 278.268L118.583 278.26C118.398 278.108 118.213 277.94 118.037 277.772C118.39 277.266 118.752 276.93 119.121 276.862C119.121 276.862 119.121 276.862 119.129 276.862C119.129 276.862 119.137 276.862 119.155 276.854C119.172 276.854 119.205 276.854 119.247 276.846C119.264 276.846 119.289 276.837 119.322 276.837C119.751 276.753 120.147 276.72 120.5 276.703H120.525C120.652 276.695 120.769 276.695 120.878 276.695C120.97 276.695 121.055 276.703 121.138 276.712C121.938 276.762 122.569 276.998 123.131 277.47C123.266 277.579 123.4 277.714 123.535 277.857C123.846 278.193 124.141 278.615 124.443 279.12C124.748 279.633 124.672 280.441 124.377 281.367Z" fill="#407BFF"/>
<g opacity="0.7">
<path d="M124.377 281.367C124.352 281.434 124.327 281.51 124.302 281.578C122.972 281.115 121.72 280.5 120.568 279.75C120.08 279.447 119.618 279.11 119.172 278.748C119.155 278.748 119.146 278.731 119.129 278.715C118.944 278.58 118.768 278.428 118.591 278.268L118.583 278.26C118.398 278.108 118.213 277.94 118.037 277.772C118.39 277.266 118.752 276.93 119.121 276.862C119.121 276.862 119.121 276.862 119.129 276.862C119.129 276.862 119.137 276.862 119.155 276.854C119.172 276.854 119.205 276.854 119.247 276.846C119.264 276.846 119.289 276.837 119.322 276.837C119.751 276.753 120.147 276.72 120.5 276.703H120.525C120.652 276.695 120.769 276.695 120.878 276.695C120.97 276.695 121.055 276.703 121.138 276.712C121.938 276.762 122.569 276.998 123.131 277.47C123.266 277.579 123.4 277.714 123.535 277.857C123.846 278.193 124.141 278.615 124.443 279.12C124.748 279.633 124.672 280.441 124.377 281.367Z" fill="white"/>
</g>
<path opacity="0.2" d="M119.172 278.748C119.155 278.748 119.147 278.731 119.129 278.715L119.163 278.588L119.172 278.748Z" fill="black"/>
<path d="M141.829 278.175C141.761 278.242 141.694 278.302 141.626 278.36C140.802 279.06 139.911 279.691 138.961 280.222C138.953 280.222 138.953 280.222 138.953 280.23C136.564 281.611 133.823 282.436 130.896 282.555C129.937 282.631 128.937 282.606 127.902 282.428C126.658 282.268 125.446 281.982 124.303 281.577C122.973 281.114 121.721 280.499 120.569 279.75C120.081 279.447 119.619 279.109 119.173 278.748C119.156 278.748 119.147 278.73 119.13 278.714C118.945 278.579 118.769 278.427 118.592 278.267L118.584 278.259C118.592 278.226 118.592 278.2 118.609 278.175C118.617 278.142 118.626 278.116 118.626 278.091C118.644 278.032 118.652 277.982 118.66 277.931C118.794 277.367 118.929 277.097 119.013 276.97C119.038 276.945 119.054 276.92 119.072 276.904C119.08 276.895 119.08 276.895 119.089 276.886C119.106 276.878 119.114 276.869 119.122 276.869V276.861C119.122 276.861 119.122 276.861 119.13 276.861C119.13 276.861 119.138 276.861 119.156 276.853C119.173 276.853 119.206 276.853 119.248 276.845C119.265 276.845 119.29 276.837 119.324 276.837C119.399 276.828 119.509 276.811 119.635 276.803C119.862 276.778 120.156 276.744 120.501 276.702H120.526C120.636 276.685 120.754 276.677 120.879 276.659C120.971 276.651 121.073 276.642 121.174 276.634L121.317 276.617C121.36 276.609 121.401 276.609 121.452 276.609C121.469 276.601 121.477 276.601 121.494 276.601C121.612 276.592 121.73 276.575 121.856 276.567C121.957 276.559 122.058 276.55 122.167 276.542C122.184 276.534 122.192 276.534 122.209 276.534C122.335 276.526 122.452 276.508 122.579 276.5C122.731 276.492 122.873 276.475 123.025 276.467L123.353 276.441C123.479 276.433 123.614 276.424 123.748 276.416C123.967 276.399 124.194 276.383 124.421 276.374C124.623 276.356 124.833 276.348 125.043 276.332C125.64 276.307 126.254 276.273 126.843 276.264H126.977C129.206 276.231 131.3 276.416 133.68 276.694C134.168 276.744 134.673 276.811 135.185 276.871C135.404 276.904 135.631 276.93 135.85 276.964C136.027 276.989 136.203 277.015 136.38 277.04C136.641 277.083 136.91 277.124 137.162 277.167C137.363 277.2 137.566 277.234 137.759 277.268C137.868 277.293 137.978 277.31 138.087 277.336C138.558 277.42 139.003 277.513 139.432 277.605C139.625 277.648 139.811 277.689 139.988 277.732H139.996C140.029 277.74 140.072 277.749 140.105 277.757C140.257 277.791 140.407 277.824 140.551 277.859H140.559C141.047 277.973 141.475 278.083 141.829 278.175Z" fill="#407BFF"/>
<g opacity="0.7">
<path d="M141.829 278.175C141.761 278.242 141.694 278.302 141.626 278.36C140.802 279.059 139.911 279.691 138.961 280.222C138.953 280.222 138.953 280.222 138.953 280.23C136.564 281.611 133.823 282.436 130.896 282.555C129.937 282.631 128.937 282.605 127.902 282.428C126.658 282.268 125.446 281.981 124.303 281.577C122.973 281.114 121.721 280.499 120.569 279.749C120.081 279.446 119.619 279.109 119.173 278.747C119.156 278.747 119.147 278.73 119.13 278.714C118.945 278.579 118.769 278.427 118.592 278.267C118.6 278.242 118.609 278.208 118.609 278.175C118.617 278.142 118.626 278.116 118.626 278.091C118.644 278.032 118.652 277.981 118.66 277.931C118.794 277.366 118.929 277.097 119.013 276.97C119.038 276.945 119.054 276.92 119.072 276.903C119.08 276.895 119.08 276.895 119.089 276.886C119.106 276.878 119.114 276.869 119.122 276.869C119.13 276.861 119.13 276.861 119.13 276.861C119.13 276.861 119.138 276.861 119.156 276.853C119.173 276.853 119.206 276.853 119.248 276.845C119.265 276.845 119.29 276.837 119.323 276.837C119.399 276.828 119.509 276.811 119.635 276.803C119.862 276.77 120.156 276.735 120.501 276.702H120.526C120.636 276.685 120.754 276.676 120.879 276.659C120.98 276.651 121.082 276.642 121.182 276.626C121.232 276.626 121.275 276.626 121.316 276.618C121.359 276.61 121.4 276.61 121.451 276.61C121.468 276.601 121.476 276.601 121.493 276.601C121.611 276.593 121.729 276.576 121.855 276.568C121.956 276.551 122.057 276.543 122.166 276.534H122.208C122.334 276.526 122.451 276.509 122.578 276.501C122.73 276.493 122.872 276.476 123.024 276.468L123.352 276.442C123.453 276.434 123.545 276.425 123.646 276.417C123.679 276.417 123.722 276.409 123.755 276.409C123.983 276.392 124.201 276.375 124.428 276.367C124.63 276.359 124.832 276.342 125.042 276.334C125.639 276.308 126.253 276.275 126.842 276.266H126.976C129.205 276.232 131.299 276.418 133.679 276.695C134.167 276.746 134.672 276.813 135.184 276.873C135.403 276.906 135.63 276.931 135.849 276.966C136.026 276.991 136.202 277.016 136.379 277.042C136.64 277.084 136.909 277.126 137.161 277.168C137.362 277.202 137.565 277.235 137.758 277.27C137.867 277.295 137.977 277.312 138.086 277.338C138.557 277.422 139.002 277.515 139.431 277.607C139.624 277.65 139.81 277.691 139.987 277.734H139.995C140.028 277.742 140.071 277.751 140.104 277.759C140.256 277.792 140.406 277.826 140.55 277.86H140.558C141.047 277.973 141.475 278.083 141.829 278.175Z" fill="white"/>
</g>
<path d="M133.92 267.782C133.199 270.429 132.316 275.312 134.061 277.241C134.061 277.241 133.129 279.911 128.148 279.548C122.669 279.147 125.728 276.633 125.728 276.633C128.77 276.136 128.855 273.909 128.485 271.784L133.92 267.782Z" fill="#EBB376"/>
<path opacity="0.2" d="M131.704 269.415L128.488 271.781C128.577 272.284 128.638 272.792 128.637 273.281C129.791 273.199 131.453 272.059 131.66 270.869C131.765 270.276 131.781 269.7 131.704 269.415Z" fill="black"/>
<path d="M134.748 261.269C134.617 265.771 134.657 267.679 132.465 270.057C129.169 273.636 123.677 272.49 122.462 268.04C121.369 264.034 121.768 257.345 126.101 255.416C130.371 253.515 134.879 256.767 134.748 261.269Z" fill="#EBB376"/>
<path d="M123.09 256.837C122.056 259.144 137.627 263.758 135.317 259.304C133.006 254.85 125.79 250.816 123.09 256.837Z" fill="#263238"/>
<path d="M131.225 260.208C131.31 262.37 134.572 264.282 134.572 264.282C134.572 264.282 137.576 260.948 135.067 260.007C132.557 259.068 131.225 260.208 131.225 260.208Z" fill="#263238"/>
<path d="M126.948 263.425C127.187 263.417 127.371 263.115 127.359 262.749C127.347 262.383 127.144 262.092 126.905 262.1C126.666 262.108 126.482 262.411 126.494 262.777C126.506 263.143 126.709 263.433 126.948 263.425Z" fill="#263238"/>
<path d="M122.8 263.569C123.039 263.561 123.223 263.258 123.211 262.892C123.199 262.526 122.996 262.236 122.758 262.243C122.519 262.251 122.335 262.554 122.346 262.92C122.358 263.286 122.561 263.576 122.8 263.569Z" fill="#263238"/>
<path d="M122.871 262.252L121.985 262.027C121.985 262.027 122.458 262.699 122.871 262.252Z" fill="#263238"/>
<path d="M124.797 263.443C124.797 263.443 124.228 265.038 123.57 265.82C124.067 266.255 124.88 266.022 124.88 266.022L124.797 263.443Z" fill="#D58745"/>
<path d="M136.096 265.349C135.806 266.237 135.133 266.906 134.444 267.241C133.407 267.745 132.684 266.866 132.8 265.779C132.905 264.8 133.571 263.359 134.694 263.308C135.8 263.259 136.429 264.336 136.096 265.349Z" fill="#EBB376"/>
<path d="M128.977 261.855C128.889 261.871 128.795 261.83 128.75 261.746C128.274 260.874 127.004 260.718 126.992 260.717C126.874 260.704 126.789 260.597 126.803 260.479C126.816 260.362 126.922 260.277 127.04 260.29C127.102 260.297 128.545 260.475 129.126 261.541C129.183 261.645 129.145 261.776 129.041 261.833C129.021 261.843 128.999 261.85 128.977 261.855Z" fill="#263238"/>
<path d="M121.917 261.013C121.845 261.026 121.768 261.003 121.715 260.943C121.637 260.854 121.646 260.718 121.735 260.639C122.626 259.854 123.585 260.109 123.624 260.12C123.739 260.152 123.805 260.27 123.773 260.385C123.742 260.499 123.624 260.566 123.51 260.535C123.478 260.526 122.729 260.335 122.018 260.961C121.989 260.989 121.954 261.007 121.917 261.013Z" fill="#263238"/>
<path d="M127 262.119L126.114 261.894C126.114 261.894 126.587 262.566 127 262.119Z" fill="#263238"/>
<path d="M125.772 267.376C126.254 267.881 126.912 268.909 126.912 268.909C127.016 268.865 127.12 268.823 127.221 268.775C128.614 268.157 129.058 267.409 129.125 266.768C129.161 266.417 129.08 266.095 128.983 265.848C128.872 265.56 128.728 265.379 128.728 265.379C128.184 266.149 126.93 266.824 126.245 267.157C125.958 267.3 125.772 267.376 125.772 267.376Z" fill="#263238"/>
<path d="M126.244 267.158L126.592 267.601C127.903 267.016 128.747 266.428 128.982 265.848C128.872 265.56 128.727 265.379 128.727 265.379C128.184 266.149 126.929 266.825 126.244 267.158Z" fill="white"/>
<path d="M127.221 268.775C128.614 268.157 129.058 267.41 129.125 266.768C128.659 266.997 128.121 267.324 127.714 267.761C127.401 268.093 127.27 268.45 127.221 268.775Z" fill="#DE5753"/>
<path d="M140.55 277.855C139.6 278.765 137.867 280.196 135.623 281.249C135.437 281.333 135.26 281.417 135.075 281.493C133.814 282.024 132.41 282.428 130.895 282.555C129.936 282.631 128.936 282.606 127.901 282.428C127.809 282.411 127.724 282.395 127.632 282.378C126.303 282.125 125.235 281.78 124.378 281.367C123.57 280.996 122.964 280.566 122.477 280.128C122.334 279.994 122.2 279.859 122.073 279.716C121.274 278.814 120.989 277.888 120.913 277.197C120.888 277.012 120.879 276.844 120.879 276.692V276.658C120.981 276.65 121.082 276.641 121.182 276.625C121.275 276.625 121.359 276.608 121.451 276.608C121.468 276.6 121.476 276.6 121.493 276.6C121.611 276.592 121.729 276.574 121.855 276.566C121.956 276.558 122.057 276.549 122.166 276.541V276.533H122.208C122.334 276.525 122.452 276.507 122.578 276.499C122.73 276.491 122.872 276.474 123.024 276.466L123.352 276.44C123.453 276.432 123.545 276.423 123.646 276.415C123.68 276.415 123.722 276.407 123.755 276.407C123.983 276.39 124.201 276.374 124.428 276.365C124.63 276.357 124.832 276.34 125.042 276.332C125.639 276.307 126.253 276.273 126.842 276.264H126.976C129.205 276.231 131.299 276.416 133.679 276.694C134.167 276.744 134.672 276.811 135.185 276.871C135.403 276.904 135.63 276.93 135.849 276.964C136.026 276.989 136.202 277.015 136.379 277.04C136.64 277.083 136.909 277.124 137.161 277.167C137.363 277.2 137.565 277.234 137.758 277.268C137.867 277.293 137.977 277.31 138.086 277.336C138.557 277.42 139.002 277.513 139.431 277.605C139.625 277.648 139.81 277.689 139.987 277.732H139.995C140.028 277.74 140.071 277.749 140.104 277.757C140.256 277.788 140.407 277.821 140.55 277.855Z" fill="#EBB376"/>
<path d="M135.618 281.249C135.44 281.335 135.258 281.414 135.072 281.494C135.229 279.438 135.599 277.85 135.851 276.965C136.029 276.986 136.206 277.012 136.383 277.037C136.152 277.847 135.798 279.33 135.618 281.249Z" fill="#263238"/>
<path d="M124.425 276.366C123.844 277.246 123.045 278.595 122.48 280.132C122.33 279.993 122.195 279.856 122.072 279.715C122.573 278.407 123.225 277.251 123.759 276.407C123.979 276.392 124.2 276.376 124.425 276.366Z" fill="#263238"/>
<path d="M141.626 278.36C140.802 279.059 139.911 279.691 138.961 280.222C139.726 279.253 140.659 278.52 141.626 278.36Z" fill="#407BFF"/>
<g opacity="0.7">
<path d="M141.626 278.36C140.802 279.059 139.911 279.691 138.961 280.222C139.726 279.253 140.659 278.52 141.626 278.36Z" fill="white"/>
</g>
<g opacity="0.2">
<path d="M135.618 281.249C135.44 281.335 135.258 281.414 135.072 281.494C135.229 279.438 135.599 277.85 135.851 276.965C136.029 276.986 136.206 277.012 136.383 277.037C136.152 277.847 135.798 279.33 135.618 281.249Z" fill="white"/>
</g>
<g opacity="0.2">
<path d="M124.425 276.366C123.844 277.246 123.045 278.595 122.48 280.132C122.33 279.993 122.195 279.856 122.072 279.715C122.573 278.407 123.225 277.251 123.759 276.407C123.979 276.392 124.2 276.376 124.425 276.366Z" fill="white"/>
</g>
<path opacity="0.5" d="M147.9 264.808C147.9 269.559 146.042 273.863 143.023 277.038C143.014 277.038 143.014 277.046 143.014 277.046C142.636 277.451 142.241 277.829 141.829 278.175C141.761 278.242 141.694 278.302 141.626 278.36C140.802 279.059 139.911 279.691 138.961 280.222C138.953 280.222 138.953 280.222 138.953 280.23C136.564 281.611 133.823 282.436 130.896 282.555C130.652 282.563 130.401 282.572 130.156 282.572C129.39 282.572 128.642 282.521 127.902 282.429C126.658 282.269 125.446 281.982 124.303 281.578C122.973 281.115 121.721 280.5 120.569 279.75C120.081 279.447 119.619 279.11 119.173 278.748C119.156 278.748 119.147 278.731 119.13 278.715C118.945 278.58 118.769 278.428 118.592 278.268L118.584 278.26C118.399 278.108 118.214 277.94 118.038 277.772C114.581 274.538 112.42 269.922 112.42 264.808C112.42 254.996 120.359 247.045 130.157 247.045C139.953 247.045 147.9 254.996 147.9 264.808Z" fill="white"/>
<path opacity="0.5" d="M107.339 264.832C107.339 270.399 104.783 275.361 100.788 278.612C100.788 278.612 100.788 278.612 100.78 278.612C100.41 278.924 100.031 279.21 99.6358 279.479C98.7445 280.094 97.7937 280.633 96.7851 281.071C95.5489 281.627 94.2368 282.039 92.8742 282.284C92.8742 282.284 92.8742 282.284 92.8742 282.292C92.7649 282.317 92.6467 282.334 92.5383 282.351C91.5874 282.511 90.6041 282.595 89.6027 282.595C88.3159 282.595 87.0626 282.46 85.8517 282.19C85.0868 282.03 84.3464 281.82 83.6231 281.558C82.7571 281.246 81.9245 280.876 81.1254 280.438C80.9574 280.346 80.7886 280.252 80.6206 280.151C80.5114 280.092 80.4102 280.024 80.301 279.958C80.208 279.907 80.124 279.848 80.04 279.789C79.5686 279.486 79.1063 279.166 78.6693 278.813C78.3921 278.602 78.123 278.375 77.862 278.131H77.8539C77.7861 278.072 77.7193 278.013 77.6516 277.953C74.0938 274.71 71.8652 270.028 71.8652 264.831C71.8652 255.019 79.8043 247.068 89.6018 247.068C99.4001 247.068 107.339 255.02 107.339 264.832Z" fill="white"/>
<path d="M89.6028 281.753C88.3819 281.753 87.181 281.623 86.0342 281.368C85.3082 281.217 84.5957 281.015 83.9085 280.767C83.0742 280.467 82.2741 280.108 81.5292 279.7C81.3621 279.607 81.2068 279.522 81.0515 279.429C80.9594 279.378 80.9007 279.34 80.8402 279.302L80.7435 279.241C80.6397 279.183 80.5828 279.142 80.525 279.1C79.9896 278.756 79.5651 278.453 79.1994 278.157C78.924 277.948 78.6775 277.74 78.4382 277.516L78.1962 277.289H78.1727C74.7034 274.108 72.7087 269.566 72.7087 264.831C72.7087 255.501 80.2884 247.91 89.6046 247.91C98.9207 247.91 106.5 255.501 106.5 264.831C106.5 269.846 104.312 274.545 100.487 277.769L100.241 277.966C99.896 278.257 99.5438 278.524 99.1655 278.781C98.2868 279.387 97.3757 279.896 96.452 280.298C95.2501 280.838 94.0004 281.226 92.728 281.453L92.0679 281.572C91.2417 281.694 90.4218 281.753 89.6028 281.753Z" fill="white"/>
<path d="M79.445 265.03C79.9019 267.463 79.445 270.649 79.445 270.649C79.445 270.649 90.7459 272.219 93.4901 270.125C96.2334 268.032 97.447 255.587 91.3346 254.39C85.2223 253.196 78.0083 257.383 79.445 265.03Z" fill="#263238"/>
<path d="M99.6359 279.479C98.7446 280.094 97.7938 280.633 96.7851 281.071C95.5489 281.627 94.2369 282.039 92.8743 282.284C92.8743 282.284 92.8743 282.284 92.8743 282.292C92.765 282.317 92.6467 282.334 92.5384 282.351C91.5875 282.511 90.6042 282.595 89.6027 282.595C88.316 282.595 87.0626 282.46 85.8517 282.191C85.0869 282.03 84.3464 281.82 83.6231 281.558C82.7572 281.246 81.9246 280.876 81.1255 280.438C80.9575 280.346 80.7887 280.252 80.6207 280.151C80.5114 280.092 80.4103 280.025 80.301 279.958C80.208 279.907 80.1241 279.848 80.0401 279.789C79.5687 279.486 79.1064 279.166 78.6693 278.813C78.3921 278.602 78.123 278.375 77.8621 278.131C78.5185 277.937 79.1741 277.785 79.78 277.684H79.7972C80.3688 277.583 80.8907 277.524 81.3359 277.481C81.5797 277.464 81.7982 277.448 81.9923 277.44C82.1937 277.423 82.3626 277.423 82.4881 277.423C82.656 277.415 82.7572 277.415 82.7572 277.415C82.74 277.516 82.7238 277.617 82.7147 277.709V277.718C82.6136 278.678 82.992 279.225 83.6647 279.469C84.5893 279.823 86.0865 279.604 87.6261 279.183C87.971 279.081 88.316 278.981 88.6609 278.862C90.3342 278.323 91.9406 277.616 92.7903 277.228C93.203 277.035 93.4377 276.916 93.4377 276.916C93.547 276.916 93.6563 276.916 93.7655 276.924C94.8672 276.933 95.8009 277.101 96.5829 277.362H96.6081C96.6163 277.362 96.6253 277.362 96.6334 277.37C96.6416 277.37 96.6506 277.37 96.6587 277.378C98.071 277.87 99.0137 278.671 99.6359 279.479Z" fill="#407BFF"/>
<path opacity="0.7" d="M99.6359 279.479C98.7446 280.094 97.7938 280.633 96.7851 281.071C95.5489 281.627 94.2369 282.039 92.8743 282.284C92.8743 282.284 92.8743 282.284 92.8743 282.292C92.765 282.317 92.6467 282.334 92.5384 282.351C91.5875 282.511 90.6042 282.595 89.6027 282.595C88.316 282.595 87.0626 282.46 85.8517 282.191C85.0869 282.03 84.3464 281.82 83.6231 281.558C82.7572 281.246 81.9246 280.876 81.1255 280.438C80.9575 280.346 80.7887 280.252 80.6207 280.151C80.5114 280.092 80.4103 280.025 80.301 279.958C80.208 279.907 80.1241 279.848 80.0401 279.789C79.5687 279.486 79.1064 279.166 78.6693 278.813C78.3921 278.602 78.123 278.375 77.8621 278.131C78.5185 277.937 79.1741 277.785 79.78 277.684H79.7972C80.3688 277.583 80.8907 277.524 81.3359 277.481C81.5797 277.464 81.7982 277.448 81.9923 277.44C82.1937 277.423 82.3626 277.423 82.4881 277.423C82.656 277.415 82.7572 277.415 82.7572 277.415C82.74 277.516 82.7238 277.617 82.7147 277.709V277.718C82.6136 278.678 82.992 279.225 83.6647 279.469C84.5893 279.823 86.0865 279.604 87.6261 279.183C87.971 279.081 88.316 278.981 88.6609 278.862C90.3342 278.323 91.9406 277.616 92.7903 277.228C93.203 277.035 93.4377 276.916 93.4377 276.916C93.547 276.916 93.6563 276.916 93.7655 276.924C94.8672 276.933 95.8009 277.101 96.5829 277.362H96.6081C96.6163 277.362 96.6253 277.362 96.6334 277.37C96.6416 277.37 96.6506 277.37 96.6587 277.378C98.071 277.87 99.0137 278.671 99.6359 279.479Z" fill="white"/>
<path d="M88.2736 279.192C88.0632 279.192 87.8528 279.192 87.6262 279.184C87.2984 279.959 86.5579 281.147 85.8518 282.191C85.087 282.031 84.3465 281.821 83.6232 281.559C83.5221 280.868 83.5058 280.212 83.691 279.807C80.0664 279.495 81.5716 278.341 82.7157 277.718V277.71C83.1781 277.466 83.5736 277.298 83.5736 277.298C84.6418 277.045 85.3904 276.632 85.8861 276.101C86.6013 275.352 86.8279 274.383 86.8198 273.356C86.8198 273.221 86.8198 273.086 86.8117 272.951C86.7864 272.581 86.7358 272.202 86.669 271.831C86.669 271.788 86.6609 271.747 86.6519 271.704H86.66L87.2659 271.216L90.243 268.824L92.6062 266.928L92.7073 266.844C92.6902 266.895 92.682 266.946 92.6649 267.004C92.4888 267.661 92.3037 268.436 92.152 269.262C92.1014 269.506 92.0599 269.758 92.0174 270.011C92.0174 270.011 92.0174 270.011 92.0174 270.019C91.975 270.272 91.9334 270.541 91.9082 270.794V270.803C91.8748 270.98 91.8576 271.156 91.8404 271.324C91.6725 272.849 91.6635 274.382 91.975 275.603C92.1429 276.251 92.4039 276.808 92.7904 277.229C92.8075 277.254 92.8238 277.272 92.8491 277.297C92.8491 277.297 95.3468 279.302 88.2736 279.192Z" fill="#EEC1BB"/>
<path opacity="0.2" d="M90.2376 268.828L86.6545 271.706C86.753 272.255 86.8189 272.813 86.818 273.354C88.1029 273.17 89.9523 271.773 90.1861 270.44C90.3035 269.776 90.3225 269.137 90.2376 268.828Z" fill="black"/>
<path d="M95.2529 260.845C94.3481 265.669 94.0673 267.724 91.3186 270.038C87.1838 273.519 81.504 271.678 80.9604 266.759C80.4718 262.332 82.034 255.187 86.9978 253.593C91.8884 252.025 96.1586 256.021 95.2529 260.845Z" fill="#EEC1BB"/>
<path d="M91.1108 257.359C93.7692 260.795 88.3097 264.745 93.7692 264.516C99.2287 264.288 97.0109 256.566 93.7692 254.812C90.5284 253.057 91.1108 257.359 91.1108 257.359Z" fill="#263238"/>
<path d="M87.6226 261.649C87.5639 262.057 87.3047 262.372 87.0438 262.353C86.7828 262.334 86.6185 261.988 86.6772 261.579C86.7359 261.171 86.995 260.856 87.2551 260.875C87.517 260.894 87.6813 261.241 87.6226 261.649Z" fill="#263238"/>
<path d="M82.7032 261.358C82.6445 261.766 82.3853 262.082 82.1244 262.063C81.8634 262.044 81.699 261.698 81.7577 261.289C81.8164 260.881 82.0756 260.565 82.3366 260.584C82.5975 260.603 82.7619 260.95 82.7032 261.358Z" fill="#263238"/>
<path d="M82.4484 260.615L81.53 260.261C81.53 260.261 81.912 261.065 82.4484 260.615Z" fill="#263238"/>
<path d="M83.9755 262.129C83.9755 262.129 83.0463 263.836 82.1794 264.629C82.6346 265.17 83.5637 265.007 83.5637 265.007L83.9755 262.129Z" fill="#D4827D"/>
<path d="M85.6433 266.685C85.4311 266.708 85.2054 266.712 84.9652 266.695C84.9002 266.691 84.8559 266.633 84.8649 266.567C84.874 266.501 84.9327 266.451 84.9995 266.456C86.7504 266.586 87.7491 265.394 87.759 265.382C87.8024 265.329 87.8773 265.319 87.9261 265.359C87.9748 265.398 87.9802 265.474 87.9369 265.527C87.899 265.573 87.0953 266.533 85.6433 266.685Z" fill="#263238"/>
<path d="M88.996 259.455C88.9337 259.456 88.8723 259.432 88.8289 259.383C88.1462 258.618 87.2803 258.782 87.2703 258.784C87.1421 258.808 87.022 258.726 87.0058 258.595C86.9895 258.464 87.0816 258.338 87.2117 258.312C87.2568 258.303 88.344 258.096 89.191 259.046C89.2759 259.141 89.2632 259.293 89.163 259.386C89.1152 259.431 89.0547 259.454 88.996 259.455Z" fill="#263238"/>
<path d="M81.597 259.013C81.5374 259.018 81.4787 259.001 81.4327 258.96C81.3379 258.876 81.3343 258.725 81.4246 258.624C82.3339 257.601 83.4166 257.708 83.4626 257.714C83.5917 257.728 83.6775 257.846 83.6531 257.978C83.6297 258.109 83.505 258.203 83.3759 258.189C83.3335 258.185 82.4919 258.113 81.7686 258.926C81.7225 258.98 81.6593 259.009 81.597 259.013Z" fill="#263238"/>
<path d="M87.3688 260.906L86.4504 260.553C86.4504 260.553 86.8324 261.355 87.3688 260.906Z" fill="#263238"/>
<path d="M89.2471 254.685C89.2471 254.685 90.1925 260.372 93.9643 261.323C97.7361 262.275 94.6741 255.476 94.6741 255.476C94.6741 255.476 93.8821 252.395 88.7866 252.395C83.691 252.395 77.8116 257.579 79.4451 265.03C79.4451 265.03 79.1652 262.543 80.2939 260.583C81.4245 258.624 82.5866 260.312 89.2471 254.685Z" fill="#263238"/>
<path d="M92.6775 253.248C98.0638 255.405 100.023 258.938 99.5664 262.864C99.1095 266.79 94.2749 270.944 93.4911 271.091L91.071 271.435C91.071 271.435 94.795 266.249 94.078 264.491C93.3601 262.733 92.6423 262.56 92.6423 262.56L92.6775 253.248Z" fill="#263238"/>
<path d="M95.7216 265.497C95.2285 266.486 94.4185 267.096 93.6736 267.294C92.553 267.591 92.0662 266.304 92.4392 265.019C92.7751 263.863 93.763 262.313 94.8583 262.593C95.9374 262.868 96.285 264.366 95.7216 265.497Z" fill="#EEC1BB"/>
<path d="M98.5931 277.812C99.0301 277.938 100.006 278.317 100.779 278.612C100.409 278.924 100.031 279.21 99.6351 279.479C98.7439 280.094 97.793 280.633 96.7844 281.071C95.5482 281.627 94.2361 282.04 92.8735 282.284C92.9575 281.997 93.0505 281.719 93.1345 281.45C93.1517 281.391 93.1679 281.332 93.1932 281.282C93.2266 281.172 93.2609 281.071 93.3025 280.962C93.3106 280.944 93.3196 280.919 93.3277 280.894C93.4036 280.675 93.4794 280.464 93.5634 280.253C93.698 279.892 93.8406 279.554 93.9923 279.234C94.0339 279.133 94.0844 279.033 94.144 278.931C94.1865 278.83 94.2452 278.729 94.2957 278.628C94.3039 278.62 94.3039 278.62 94.2957 278.611C94.3129 278.594 94.321 278.578 94.3292 278.56C94.3969 278.443 94.4637 278.333 94.5224 278.223C94.6064 278.088 94.6904 277.954 94.7743 277.836C94.9676 277.558 95.1698 277.33 95.3712 277.137C95.3712 277.137 95.5979 277.179 95.9428 277.246C96.0692 277.272 96.2119 277.297 96.3636 277.322C96.4313 277.33 96.5072 277.348 96.5821 277.365H96.6074C96.6155 277.365 96.6246 277.365 96.6327 277.373C96.6408 277.373 96.6498 277.373 96.658 277.381C96.7167 277.381 96.7844 277.398 96.8431 277.415C97.1293 277.473 97.4318 277.532 97.7009 277.6C97.7686 277.608 97.8355 277.625 97.8942 277.642C98.0874 277.675 98.2644 277.726 98.4071 277.759C98.4748 277.777 98.5425 277.794 98.5931 277.812Z" fill="#263238"/>
<path opacity="0.2" d="M98.5931 277.812C99.0301 277.938 100.006 278.317 100.779 278.612C100.409 278.924 100.031 279.21 99.6351 279.479C98.7439 280.094 97.793 280.633 96.7844 281.071C95.5482 281.627 94.2361 282.04 92.8735 282.284C92.9575 281.997 93.0505 281.719 93.1345 281.45C93.1517 281.391 93.1679 281.332 93.1932 281.282C93.2266 281.172 93.2609 281.071 93.3025 280.962C93.3106 280.944 93.3196 280.919 93.3277 280.894C93.4036 280.675 93.4794 280.464 93.5634 280.253C93.698 279.892 93.8406 279.554 93.9923 279.234C94.0339 279.133 94.0844 279.033 94.144 278.931C94.1865 278.83 94.2452 278.729 94.2957 278.628C94.3039 278.62 94.3039 278.62 94.2957 278.611C94.3129 278.594 94.321 278.578 94.3292 278.56C94.3969 278.443 94.4637 278.333 94.5224 278.223C94.6064 278.088 94.6904 277.954 94.7743 277.836C94.9676 277.558 95.1698 277.33 95.3712 277.137C95.3712 277.137 95.5979 277.179 95.9428 277.246C96.0692 277.272 96.2119 277.297 96.3636 277.322C96.4313 277.33 96.5072 277.348 96.5821 277.365H96.6074C96.6155 277.365 96.6246 277.365 96.6327 277.373C96.6408 277.373 96.6498 277.373 96.658 277.381C96.7167 277.381 96.7844 277.398 96.8431 277.415C97.1293 277.473 97.4318 277.532 97.7009 277.6C97.7686 277.608 97.8355 277.625 97.8942 277.642C98.0874 277.675 98.2644 277.726 98.4071 277.759C98.4748 277.777 98.5425 277.794 98.5931 277.812Z" fill="white"/>
<path d="M96.7844 281.071C95.5482 281.627 94.2361 282.04 92.8735 282.284C92.8735 282.284 92.8735 282.284 92.8735 282.292C92.7642 282.317 92.646 282.334 92.5376 282.351C92.6387 282.013 92.748 281.685 92.8573 281.365C93.2609 280.211 93.7323 279.184 94.2867 278.375C94.6145 277.879 94.9766 277.457 95.3712 277.137C95.3712 277.137 96.1369 278.712 96.7844 281.071Z" fill="#263238"/>
<path d="M81.3612 277.441C81.3612 277.441 81.353 277.458 81.3359 277.482C81.26 277.617 80.9828 278.148 80.6126 279.108C80.6126 279.108 80.6126 279.108 80.6126 279.116C80.5115 279.361 80.4103 279.647 80.302 279.958C80.209 279.908 80.125 279.849 80.041 279.79C79.5696 279.487 79.1073 279.167 78.6703 278.814C78.393 278.603 78.124 278.376 77.863 278.132H77.8549C77.7871 278.073 77.7203 278.014 77.6526 277.954C78.4427 277.753 79.3854 277.558 80.3859 277.482C80.7047 277.458 81.0325 277.441 81.3612 277.441Z" fill="#263238"/>
<path opacity="0.2" d="M81.3612 277.441C81.3612 277.441 81.353 277.458 81.3359 277.482C81.26 277.617 80.9828 278.148 80.6126 279.108C80.6126 279.108 80.6126 279.108 80.6126 279.116C80.5115 279.361 80.4103 279.647 80.302 279.958C80.209 279.908 80.125 279.849 80.041 279.79C79.5696 279.487 79.1073 279.167 78.6703 278.814C78.393 278.603 78.124 278.376 77.863 278.132H77.8549C77.7871 278.073 77.7203 278.014 77.6526 277.954C78.4427 277.753 79.3854 277.558 80.3859 277.482C80.7047 277.458 81.0325 277.441 81.3612 277.441Z" fill="white"/>
<path d="M81.9915 277.441C81.7386 277.575 81.4948 277.929 81.251 278.452C81.0325 278.907 80.8221 279.479 80.6198 280.153C80.5106 280.094 80.4094 280.026 80.3002 279.959C80.2072 279.909 80.1232 279.85 80.0392 279.791C79.5678 279.488 79.1055 279.168 78.6685 278.814C79.0974 278.233 79.4757 277.82 79.7782 277.686H79.7954C80.0058 277.593 80.2072 277.534 80.3841 277.483C81.4867 277.171 81.9915 277.441 81.9915 277.441Z" fill="#263238"/>
<path d="M83.6648 279.471C83.6648 279.58 83.6729 279.698 83.6901 279.808L81.1247 280.441C80.9567 280.348 80.7879 280.255 80.6199 280.154C80.5107 280.095 80.4095 280.027 80.3003 279.96C80.2073 279.91 80.1233 279.851 80.0393 279.792C80.1991 279.581 80.3924 279.354 80.6109 279.118C80.6109 279.11 80.6109 279.11 80.6109 279.11C80.8041 278.891 81.0145 278.672 81.2502 278.454C81.6114 278.1 82.0322 277.746 82.4864 277.426C83.4454 276.753 84.5886 276.222 85.8844 276.104C85.9178 276.104 85.9431 276.096 85.9774 276.096C85.9783 276.093 83.682 277.693 83.6648 279.471Z" fill="#407BFF"/>
<path d="M93.8857 281.695L87.6831 279.677C87.6831 279.677 90.9655 277.025 91.9895 275.589L94.0375 277.13C94.0375 277.13 94.0374 277.13 94.0438 277.136C94.0907 277.249 94.6984 278.758 93.8857 281.695Z" fill="#407BFF"/>
<path opacity="0.6" d="M83.6648 279.471C83.6648 279.58 83.6729 279.698 83.6901 279.808L81.1247 280.441C80.9567 280.348 80.7879 280.255 80.6199 280.154C80.5107 280.095 80.4095 280.027 80.3003 279.96C80.2073 279.91 80.1233 279.851 80.0393 279.792C80.1991 279.581 80.3924 279.354 80.6109 279.118C80.6109 279.11 80.6109 279.11 80.6109 279.11C80.8041 278.891 81.0145 278.672 81.2502 278.454C81.6114 278.1 82.0322 277.746 82.4864 277.426C83.4454 276.753 84.5886 276.222 85.8844 276.104C85.9178 276.104 85.9431 276.096 85.9774 276.096C85.9783 276.093 83.682 277.693 83.6648 279.471Z" fill="white"/>
<path opacity="0.6" d="M93.8857 281.695L87.6831 279.677C87.6831 279.677 90.9655 277.025 91.9895 275.589L94.0375 277.13C94.0375 277.13 94.0374 277.13 94.0438 277.136C94.0907 277.249 94.6984 278.758 93.8857 281.695Z" fill="white"/>
<path d="M61.7581 282.595C58.9859 282.595 56.7302 280.336 56.7302 277.56C56.7302 274.784 58.9859 272.524 61.7581 272.524C64.5303 272.524 66.7868 274.784 66.7868 277.56C66.7859 280.336 64.5303 282.595 61.7581 282.595Z" fill="#407BFF" stroke="white" stroke-width="0.9313" stroke-miterlimit="10"/>
<path d="M58.9453 276.95L61.1649 279.569L64.57 275.551" stroke="white" stroke-width="1.151" stroke-miterlimit="10" stroke-linecap="round" stroke-linejoin="round"/>
<path d="M102.31 282.595C99.5381 282.595 97.2825 280.336 97.2825 277.56C97.2825 274.784 99.5381 272.524 102.31 272.524C105.083 272.524 107.338 274.784 107.338 277.56C107.339 280.336 105.083 282.595 102.31 282.595Z" fill="#407BFF" stroke="white" stroke-width="0.9313" stroke-miterlimit="10"/>
<path d="M99.4983 276.95L101.717 279.569L105.123 275.551" stroke="white" stroke-width="1.151" stroke-miterlimit="10" stroke-linecap="round" stroke-linejoin="round"/>
<path d="M87.443 188C108.122 188 124.886 171.211 124.886 150.5C124.886 129.789 108.122 113 87.443 113C66.7638 113 50 129.789 50 150.5C50 171.211 66.7638 188 87.443 188Z" fill="#77D160"/>
<path d="M87.4431 183.845C69.0857 183.845 54.1501 168.886 54.1501 150.501C54.1501 132.115 69.0857 117.157 87.4431 117.157C105.802 117.157 120.737 132.115 120.737 150.501C120.737 168.886 105.802 183.845 87.4431 183.845Z" stroke="white" stroke-width="3.7254" stroke-miterlimit="10" stroke-linecap="round" stroke-linejoin="round"/>
<path d="M68.8228 146.47L83.5132 163.805L106.064 137.196" stroke="white" stroke-width="7.7222" stroke-miterlimit="10" stroke-linecap="round" stroke-linejoin="round"/>
<path d="M55.0803 207.636C55.0803 205.525 56.694 204 58.862 204C60.0116 204 61.0003 204.414 61.6559 205.183L60.8089 205.981C60.2951 205.425 59.6594 205.152 58.9234 205.152C57.4606 205.152 56.4023 206.183 56.4023 207.637C56.4023 209.092 57.4615 210.123 58.9234 210.123C59.6594 210.123 60.2951 209.849 60.8089 209.283L61.6559 210.091C61.0003 210.859 60.0116 211.273 58.8521 211.273C56.6949 211.272 55.0803 209.747 55.0803 207.636Z" fill="#263238"/>
<path d="M62.2664 207.636C62.2664 205.545 63.88 204 66.0688 204C68.2577 204 69.8713 205.536 69.8713 207.636C69.8713 209.737 68.2577 211.272 66.0688 211.272C63.88 211.272 62.2664 209.726 62.2664 207.636ZM68.5503 207.636C68.5503 206.191 67.4911 205.151 66.0688 205.151C64.6466 205.151 63.5874 206.191 63.5874 207.636C63.5874 209.081 64.6466 210.122 66.0688 210.122C67.4911 210.122 68.5503 209.081 68.5503 207.636Z" fill="#263238"/>
<path d="M77.5413 204.101V211.172H76.4622L72.5685 206.384V211.172H71.2673V204.101H72.3464L76.2401 208.889V204.101H77.5413Z" fill="#263238"/>
<path d="M80.7533 205.201V207.353H84.1621V208.465H80.7533V211.172H79.4421V204.101H84.5964V205.202H80.7533V205.201Z" fill="#263238"/>
<path d="M85.8706 204.101H87.1818V211.172H85.8706V204.101Z" fill="#263238"/>
<path d="M93.7093 211.172L92.2672 209.101C92.176 209.111 92.0857 209.111 91.9945 209.111H90.4007V211.172H89.0896V204.101H91.9945C93.8502 204.101 95.0006 205.051 95.0006 206.616C95.0006 207.687 94.4561 208.475 93.498 208.848L95.1216 211.172H93.7093ZM91.934 205.212H90.4007V208.03H91.934C93.0835 208.03 93.6786 207.504 93.6786 206.615C93.6786 205.726 93.0844 205.212 91.934 205.212Z" fill="#263238"/>
<path d="M102.952 211.172L102.942 206.484L100.623 210.363H100.037L97.7177 206.545V211.171H96.467V204.1H97.5461L100.35 208.788L103.103 204.1H104.182L104.192 211.171H102.952V211.172Z" fill="#263238"/>
<path d="M111.4 210.07V211.172H106.105V204.101H111.259V205.202H107.417V207.041H110.826V208.121H107.417V210.07H111.4Z" fill="#263238"/>
<path d="M112.866 204.101H115.953C118.243 204.101 119.806 205.516 119.806 207.636C119.806 209.758 118.243 211.172 115.953 211.172H112.866V204.101ZM115.892 210.06C117.465 210.06 118.485 209.101 118.485 207.636C118.485 206.17 117.466 205.211 115.892 205.211H114.177V210.059L115.892 210.06Z" fill="#263238"/>
<path d="M154.427 49H25V71.2139H154.427V49Z" fill="#D3DDF3"/>
<path d="M147.186 57.311C147.734 57.311 148.178 56.8661 148.178 56.3171C148.178 55.7682 147.734 55.3232 147.186 55.3232C146.637 55.3232 146.193 55.7682 146.193 56.3171C146.193 56.8661 146.637 57.311 147.186 57.311Z" fill="black"/>
<path d="M147.186 61.1013C147.734 61.1013 148.178 60.6563 148.178 60.1074C148.178 59.5585 147.734 59.1135 147.186 59.1135C146.637 59.1135 146.193 59.5585 146.193 60.1074C146.193 60.6563 146.637 61.1013 147.186 61.1013Z" fill="black"/>
<path d="M147.186 64.8914C147.734 64.8914 148.178 64.4464 148.178 63.8975C148.178 63.3485 147.734 62.9036 147.186 62.9036C146.637 62.9036 146.193 63.3485 146.193 63.8975C146.193 64.4464 146.637 64.8914 147.186 64.8914Z" fill="black"/>
<path d="M63.3337 61.8639H60.2952L59.6965 63.272H58.5334L61.2677 57.1865H62.3784L65.1217 63.272H63.9415L63.3337 61.8639ZM62.9599 60.9767L61.814 58.317L60.6771 60.9767H62.9599Z" fill="#282828"/>
<path d="M66.822 58.1434H64.8083V57.1875H69.9644V58.1434H67.9508V63.273H66.822V58.1434Z" fill="#282828"/>
<path d="M72.1333 58.1434H70.1196V57.1875H75.2757V58.1434H73.262V63.273H72.1333V58.1434Z" fill="#282828"/>
<path d="M80.6829 62.3252V63.273H76.1255V57.1875H80.561V58.1353H77.2533V59.7179H80.1871V60.6476H77.2533V62.3252H80.6829Z" fill="#282828"/>
<path d="M87.3397 57.1865V63.272H86.4114L83.0604 59.1508V63.272H81.9407V57.1865H82.8689L86.2199 61.3077V57.1865H87.3397Z" fill="#282828"/>
<path d="M88.9714 57.1865H91.6271C93.5975 57.1865 94.9429 58.4038 94.9429 60.2288C94.9429 62.0547 93.5975 63.272 91.6271 63.272H88.9714V57.1865ZM91.5757 62.3161C92.9292 62.3161 93.8069 61.4904 93.8069 60.2297C93.8069 58.969 92.9301 58.1433 91.5757 58.1433H90.1002V62.3161H91.5757Z" fill="#282828"/>
<path d="M99.9951 61.8639H96.9566L96.3579 63.272H95.1948L97.9291 57.1865H99.0398L101.783 63.272H100.603L99.9951 61.8639ZM99.6213 60.9767L98.4754 58.317L97.3385 60.9767H99.6213Z" fill="#282828"/>
<path d="M107.953 57.1865V63.272H107.025L103.674 59.1508V63.272H102.554V57.1865H103.482L106.833 61.3077V57.1865H107.953Z" fill="#282828"/>
<path d="M109.151 60.2297C109.151 58.4128 110.539 57.1006 112.406 57.1006C113.396 57.1006 114.246 57.4569 114.811 58.118L114.082 58.8053C113.639 58.3269 113.092 58.0927 112.458 58.0927C111.2 58.0927 110.288 58.979 110.288 60.2315C110.288 61.484 111.2 62.3703 112.458 62.3703C113.092 62.3703 113.639 62.1361 114.082 61.6486L114.811 62.3441C114.247 63.0052 113.396 63.3615 112.398 63.3615C110.539 63.3597 109.151 62.0466 109.151 60.2297Z" fill="#282828"/>
<path d="M120.451 62.3252V63.273H115.894V57.1875H120.33V58.1353H117.022V59.7179H119.956V60.6476H117.022V62.3252H120.451Z" fill="#282828"/>
</svg>
