<svg width="20" height="20" viewBox="0 0 20 20" fill="none" xmlns="http://www.w3.org/2000/svg">
<g clip-path="url(#clip0_0_214)">
<path d="M17.5 1.25C17.8315 1.25 18.1495 1.3817 18.3839 1.61612C18.6183 1.85054 18.75 2.16848 18.75 2.5V17.5C18.75 17.8315 18.6183 18.1495 18.3839 18.3839C18.1495 18.6183 17.8315 18.75 17.5 18.75H2.5C2.16848 18.75 1.85054 18.6183 1.61612 18.3839C1.3817 18.1495 1.25 17.8315 1.25 17.5V2.5C1.25 2.16848 1.3817 1.85054 1.61612 1.61612C1.85054 1.3817 2.16848 1.25 2.5 1.25H17.5ZM2.5 0C1.83696 0 1.20107 0.263392 0.732233 0.732233C0.263392 1.20107 0 1.83696 0 2.5L0 17.5C0 18.163 0.263392 18.7989 0.732233 19.2678C1.20107 19.7366 1.83696 20 2.5 20H17.5C18.163 20 18.7989 19.7366 19.2678 19.2678C19.7366 18.7989 20 18.163 20 17.5V2.5C20 1.83696 19.7366 1.20107 19.2678 0.732233C18.7989 0.263392 18.163 0 17.5 0L2.5 0Z" fill="#696969"/>
<path d="M13.6059 6.10502C13.7808 5.93161 14.017 5.83401 14.2633 5.83333C14.5096 5.83265 14.7463 5.92894 14.9222 6.10138C15.0981 6.27383 15.1991 6.50857 15.2032 6.75485C15.2074 7.00114 15.1145 7.23918 14.9446 7.41752L9.95464 13.655C9.86887 13.7474 9.76537 13.8215 9.6503 13.873C9.53523 13.9244 9.41097 13.9522 9.28495 13.9545C9.15892 13.9568 9.03372 13.9337 8.91683 13.8866C8.79994 13.8394 8.69376 13.7692 8.60464 13.68L5.29839 10.3725C5.20628 10.2867 5.1324 10.1832 5.08116 10.0682C5.02992 9.95319 5.00237 9.82905 5.00015 9.70317C4.99792 9.57729 5.02108 9.45226 5.06823 9.33552C5.11538 9.21878 5.18556 9.11274 5.27459 9.02372C5.36361 8.9347 5.46965 8.86451 5.58639 8.81736C5.70312 8.77021 5.82816 8.74706 5.95404 8.74928C6.07992 8.7515 6.20406 8.77905 6.31906 8.83029C6.43406 8.88153 6.53756 8.95541 6.62339 9.04752L9.24089 11.6638L13.5821 6.13252C13.5899 6.12283 13.5982 6.11365 13.6071 6.10502H13.6059Z" fill="#696969"/>
</g>
<defs>
<clipPath id="clip0_0_214">
<rect width="20" height="20" fill="white"/>
</clipPath>
</defs>
</svg>
