<svg width="82" height="69" viewBox="0 0 82 69" fill="none" xmlns="http://www.w3.org/2000/svg">
<rect width="82" height="69" rx="16" fill="white"/>
<rect x="10" width="62" height="62" rx="8" fill="#F3EAF5"/>
<g clip-path="url(#clip0_901_6803)">
<path d="M37.2266 25.7969H33.4766C33.0882 25.7969 32.7734 26.1117 32.7734 26.5C32.7734 26.8883 33.0882 27.2031 33.4766 27.2031H37.2266C37.6149 27.2031 37.9297 26.8883 37.9297 26.5C37.9297 26.1117 37.6149 25.7969 37.2266 25.7969Z" fill="#9748B3"/>
<path d="M37.2266 29.5469H33.4766C33.0882 29.5469 32.7734 29.8617 32.7734 30.25C32.7734 30.6383 33.0882 30.9531 33.4766 30.9531H37.2266C37.6149 30.9531 37.9297 30.6383 37.9297 30.25C37.9297 29.8617 37.6149 29.5469 37.2266 29.5469Z" fill="#9748B3"/>
<path d="M37.2266 33.2969H33.4766C33.0882 33.2969 32.7734 33.6117 32.7734 34C32.7734 34.3883 33.0882 34.7031 33.4766 34.7031H37.2266C37.6149 34.7031 37.9297 34.3883 37.9297 34C37.9297 33.6117 37.6149 33.2969 37.2266 33.2969Z" fill="#9748B3"/>
<path d="M47.3047 31.8873V25.4678C47.3047 24.5411 46.9474 23.6668 46.2985 23.0056L43.4456 20.0553C43.4443 20.0539 43.4428 20.0525 43.4415 20.0511C42.7846 19.3831 41.8706 19 40.9339 19H31.8828C30.7197 19 29.7734 19.9463 29.7734 21.1094V39.3438C29.7734 40.5069 30.7197 41.4531 31.8828 41.4531H42.75C43.752 42.4109 45.1093 43 46.6016 43C49.7032 43 52.2266 40.4977 52.2266 37.4219C52.2266 34.5822 50.0757 32.2315 47.3047 31.8873ZM31.1797 39.3438V21.1094C31.1797 20.7217 31.4951 20.4062 31.8828 20.4062H40.9339C41.4952 20.4062 42.0429 20.6355 42.437 21.0352L45.2894 23.985C45.2907 23.9864 45.2921 23.9878 45.2934 23.9892C45.6836 24.3861 45.8984 24.9112 45.8984 25.4679V31.888C43.1533 32.2347 41.0234 34.5843 41.0234 37.4219C41.0234 38.3703 41.2617 39.2641 41.681 40.0469H31.8828C31.4951 40.0469 31.1797 39.7315 31.1797 39.3438ZM46.6016 41.5938C44.3012 41.5938 42.4297 39.7223 42.4297 37.4219C42.4297 35.1215 44.3012 33.25 46.6016 33.25C48.9278 33.25 50.8203 35.1215 50.8203 37.4219C50.8203 39.7223 48.9278 41.5938 46.6016 41.5938Z" fill="#9748B3"/>
<path d="M48.2235 35.7567C47.9252 35.5083 47.4818 35.5485 47.2332 35.8468L46.0465 37.2709L45.7773 36.7325C45.6036 36.3851 45.1812 36.2443 44.8339 36.4181C44.4866 36.5917 44.3458 37.0141 44.5195 37.3614L45.2695 38.8614C45.3756 39.0736 45.5816 39.218 45.8173 39.2454C45.8444 39.2485 45.8715 39.2501 45.8984 39.2501C46.1057 39.2501 46.3041 39.1584 46.4385 38.9971L48.3135 36.7471C48.5621 36.4487 48.5218 36.0053 48.2235 35.7567Z" fill="#9748B3"/>
<path d="M40.9766 27.2031H41.7266C42.1149 27.2031 42.4297 26.8883 42.4297 26.5C42.4297 26.1117 42.1149 25.7969 41.7266 25.7969H40.9766C40.5882 25.7969 40.2734 26.1117 40.2734 26.5C40.2734 26.8883 40.5882 27.2031 40.9766 27.2031Z" fill="#9748B3"/>
<path d="M42.4297 30.25C42.4297 29.8617 42.1149 29.5469 41.7266 29.5469H40.9766C40.5882 29.5469 40.2734 29.8617 40.2734 30.25C40.2734 30.6383 40.5882 30.9531 40.9766 30.9531H41.7266C42.1149 30.9531 42.4297 30.6383 42.4297 30.25Z" fill="#9748B3"/>
</g>
<defs>
<clipPath id="clip0_901_6803">
<rect width="24" height="24" fill="white" transform="translate(29 19)"/>
</clipPath>
</defs>
</svg>
