<svg width="41" height="38" viewBox="0 0 41 38" fill="none" xmlns="http://www.w3.org/2000/svg">
<path d="M20.5 33.4055C18.3295 31.6076 13.6767 27.7692 0 30.302C0.535934 32.0531 1.3399 33.9389 1.3399 33.9389C1.3399 33.9389 12.5224 30.5227 18.7227 34.9555C18.6597 35.1441 18.6241 35.3454 18.6241 35.5554C18.6241 36.5969 19.464 37.4412 20.5 37.4412C21.5359 37.4412 22.3758 36.5969 22.3758 35.5554C22.3758 35.3454 22.3402 35.1442 22.2772 34.9555C28.4776 30.5227 39.6601 33.9389 39.6601 33.9389C39.6601 33.9389 40.33 32.7266 41 30.302C27.3232 27.7692 22.6704 31.6076 20.5 33.4055Z" fill="#7E7CF0"/>
<path d="M20.3447 29.9986C20.3447 29.9986 12.25 22.5889 18.8564 3.44128C18.4413 7.95994 18.7958 12.1394 20.8963 15.2725C22.7085 12.9055 30.7424 10.2869 34.2988 10.6565C27.9823 12.7949 21.8422 18.9145 20.3447 29.9986Z" fill="#7E7CF0"/>
<path d="M22.4674 11.9145C23.4014 11.9145 24.1586 11.1533 24.1586 10.2143C24.1586 9.27527 23.4014 8.51404 22.4674 8.51404C21.5333 8.51404 20.7761 9.27527 20.7761 10.2143C20.7761 11.1533 21.5333 11.9145 22.4674 11.9145Z" fill="#7E7CF0"/>
<path d="M21.2655 13.0932C21.2765 13.0854 21.2878 13.0777 21.2988 13.07C21.2811 13.0626 21.2634 13.0551 21.2458 13.0472C21.2525 13.0625 21.2588 13.0781 21.2655 13.0932Z" fill="#7E7CF0"/>
<path d="M30.9299 13.8441C30.2086 14.3161 29.458 14.882 28.7083 15.5591C33.5706 18.1277 37.0137 23.0445 37.5449 28.8108C37.5923 28.2967 37.6177 27.7761 37.6177 27.2495C37.6177 21.763 34.9895 16.8935 30.9299 13.8441Z" fill="#7E7CF0"/>
<path d="M15.3627 11.5057C8.94149 13.823 4.34839 19.9966 4.34839 27.2495C4.34839 27.7761 4.37379 28.2967 4.42117 28.8108C5.01289 22.3868 9.21855 17.0169 14.9749 14.774C15.0539 13.71 15.1831 12.6199 15.3627 11.5057Z" fill="#7E7CF0"/>
<path d="M18.2155 0L19.1176 0.560262L20.088 0.130818L19.8368 1.1664L20.5429 1.96151L19.4856 2.04132L18.9516 2.96224L18.5494 1.97597L17.5132 1.74995L18.3219 1.06056L18.2155 0Z" fill="#7E7CF0"/>
</svg>
