<svg width="47" height="44" viewBox="0 0 47 44" fill="none" xmlns="http://www.w3.org/2000/svg">
<g opacity="0.2" clip-path="url(#clip0_901_7029)">
<path d="M30.737 36.2095L19.3419 37.37C19.3419 37.37 19.425 38.1 19.4454 38.3856C19.6437 40.3331 21.3919 41.6026 23.3478 41.4034L27.6143 40.9689C29.5702 40.7697 31.029 39.0979 30.8405 37.225C30.8093 36.9101 30.737 36.2095 30.737 36.2095Z" fill="#241C1C"/>
<path d="M22.9045 15.825C20.6661 16.053 18.6061 17.1226 17.1775 18.7986C15.749 20.4745 15.069 22.6195 15.2872 24.7616C15.4491 26.3511 16.3458 27.6927 17.1509 29.0858C17.9683 30.5003 18.9063 33.7344 19.257 35.8196L30.6521 34.6591C30.5711 32.068 30.9836 28.5004 31.4598 27.1701C31.9407 25.8269 32.3104 24.4507 32.167 23.0426C31.9488 20.9005 30.8504 18.9366 29.1133 17.5831C27.3762 16.2294 25.1429 15.5971 22.9045 15.825Z" fill="#6A2932"/>
<path d="M22.7135 18.8443L23.0105 21.7599L20.6799 23.5012C20.5368 23.6081 20.4651 23.7804 20.4925 23.9511C20.5199 24.1218 20.6423 24.2639 20.8118 24.3221L25.4156 25.8992L23.8218 26.7431C23.6469 26.8356 23.5459 27.0189 23.5652 27.2085L24.3857 35.2646L25.3726 35.1641L24.5839 27.4206L26.8521 26.2196C27.0231 26.1289 27.1238 25.9513 27.1095 25.7654C27.0953 25.5795 26.9686 25.4198 26.7858 25.3572L21.9967 23.7163L23.833 22.3445C23.9682 22.2435 24.0402 22.0834 24.0237 21.9208L23.7001 18.7438L22.7135 18.8443Z" fill="white"/>
<path d="M23.5972 15.7819C28.3768 20.3765 28.8252 27.3977 28.443 34.8841L30.652 34.6591C30.571 32.068 30.9836 28.5005 31.4597 27.1701C31.9406 25.8269 32.3103 24.4508 32.1669 23.0426C31.9487 20.9005 30.8503 18.9367 29.1132 17.5831C27.5556 16.3692 25.5989 15.7355 23.5972 15.7819Z" fill="#6D323A"/>
<path d="M21.5158 2.19097C21.3406 2.20881 21.2124 2.3592 21.2295 2.52684L22.0933 11.0078C22.1103 11.1755 22.2662 11.2969 22.4414 11.2791C22.6166 11.2613 22.7448 11.1109 22.7277 10.9432L21.8639 2.46223C21.8469 2.29458 21.691 2.17313 21.5158 2.19097Z" fill="#6A2932"/>
<path d="M37.685 7.13251C37.6017 7.14162 37.5253 7.18171 37.4722 7.244L31.8166 13.8791C31.7629 13.942 31.7372 14.0227 31.7454 14.1032C31.7536 14.1837 31.7949 14.2576 31.8603 14.3084C31.9256 14.3593 32.0096 14.3832 32.0937 14.3746C32.1778 14.366 32.2553 14.3258 32.309 14.2627L37.9646 7.62755C38.0763 7.49642 38.0568 7.3042 37.9209 7.1983C37.8549 7.14689 37.77 7.12324 37.685 7.13251Z" fill="#6A2932"/>
<path d="M2.38957 24.6974C2.21439 24.7152 2.0862 24.8656 2.10328 25.0333C2.12035 25.2009 2.27622 25.3224 2.4514 25.3045L11.3134 24.402C11.4885 24.3842 11.6167 24.2338 11.5997 24.0661C11.5826 23.8985 11.4267 23.777 11.2515 23.7949L2.38957 24.6974Z" fill="#6A2932"/>
<path d="M35.9216 21.2823C35.7464 21.3001 35.6182 21.4505 35.6353 21.6182C35.6524 21.7858 35.8082 21.9073 35.9834 21.8894L44.8454 20.9869C45.0205 20.9691 45.1487 20.8187 45.1317 20.651C45.1146 20.4834 44.9587 20.3619 44.7835 20.3798L35.9216 21.2823Z" fill="#6A2932"/>
<path d="M6.63992 10.2943C6.55665 10.3034 6.48019 10.3435 6.4271 10.4058C6.31533 10.537 6.33491 10.7292 6.47081 10.8351L13.348 16.1939C13.4839 16.2998 13.6847 16.2793 13.7965 16.1482C13.8502 16.0852 13.8758 16.0045 13.8676 15.924C13.8594 15.8435 13.8182 15.7696 13.7528 15.7188L6.8755 10.3602C6.80967 10.3089 6.72474 10.2851 6.63992 10.2943Z" fill="#6A2932"/>
</g>
<defs>
<clipPath id="clip0_901_7029">
<rect width="43.081" height="39.0421" fill="white" transform="translate(0 4.38227) scale(1.00395) rotate(-5.81528)"/>
</clipPath>
</defs>
</svg>
