<svg width="24" height="24" viewBox="0 0 24 24" fill="none" xmlns="http://www.w3.org/2000/svg">
<path d="M6.0826 6.53818L6.09233 6.53735L6.10202 6.53614C6.31414 6.50962 6.54177 6.5 6.79 6.5H13.19C14.7075 6.5 15.7556 6.8802 16.4277 7.5523C17.0998 8.22441 17.48 9.27247 17.48 10.79V14.79C17.48 15.0382 17.4704 15.2659 17.4439 15.478L17.4426 15.4878L17.4418 15.4976C17.3345 16.7569 16.9183 17.6275 16.254 18.1913C15.583 18.7607 14.585 19.08 13.19 19.08H12.79C12.3826 19.08 11.9944 19.2741 11.75 19.6L10.55 21.2L10.5493 21.2009C10.3636 21.4496 10.1561 21.5325 9.99 21.5325C9.82386 21.5325 9.61635 21.4496 9.43068 21.2009L9.43 21.2L8.23 19.6L8.23002 19.6L8.22718 19.5963C8.10378 19.4349 7.9313 19.3119 7.76927 19.23C7.60756 19.1483 7.4018 19.08 7.19 19.08H6.79C5.20321 19.08 4.17623 18.8748 3.52763 18.3084C2.89582 17.7567 2.5 16.747 2.5 14.79V10.79C2.5 9.39581 2.82146 8.39768 3.39219 7.72636C3.95745 7.06147 4.82854 6.64541 6.0826 6.53818ZM5 13C5 13.8229 5.6606 14.5 6.5 14.5C7.32614 14.5 8 13.8261 8 13C8 12.1739 7.32614 11.5 6.5 11.5C5.67386 11.5 5 12.1739 5 13ZM8.49 13C8.49 13.8229 9.1506 14.5 9.99 14.5C10.8294 14.5 11.49 13.8229 11.49 13C11.49 12.1739 10.8161 11.5 9.99 11.5C9.16386 11.5 8.49 12.1739 8.49 13ZM11.99 13C11.99 13.8229 12.6506 14.5 13.49 14.5C14.3161 14.5 14.99 13.8261 14.99 13C14.99 12.1739 14.3161 11.5 13.49 11.5C12.6639 11.5 11.99 12.1739 11.99 13Z" fill="#7E7CF0" stroke="#7E7CF0"/>
<path d="M21.98 6.79V10.79C21.98 12.79 21.36 14.15 20.12 14.9C19.82 15.08 19.47 14.84 19.47 14.49L19.48 10.79C19.48 6.79 17.19 4.5 13.19 4.5L7.1 4.51C6.75 4.51 6.51 4.16 6.69 3.86C7.44 2.62 8.8 2 10.79 2H17.19C20.38 2 21.98 3.6 21.98 6.79Z" fill="#7E7CF0"/>
</svg>
