<svg width="20" height="20" viewBox="0 0 20 20" fill="none" xmlns="http://www.w3.org/2000/svg">
<path d="M18.2518 6.16735C18.2518 7.36957 17.7837 8.49978 16.9336 9.34983L8.82693 17.5527C8.16759 18.2121 7.30179 18.5417 6.43655 18.5417C5.57244 18.5417 4.70832 18.2126 4.05067 17.555C2.73481 16.2386 2.73481 14.0974 4.05067 12.7815L9.90708 6.95833C10.7864 6.08465 12.1838 6.05596 13.0237 6.89476C13.4339 7.30487 13.6499 7.85845 13.6324 8.45422C13.615 9.03704 13.3748 9.58949 12.9557 10.0086L7.39799 15.5663C7.17803 15.7863 6.82248 15.7863 6.60251 15.5663C6.38254 15.3463 6.38254 14.9908 6.60251 14.7708L12.1602 9.21313C12.3757 8.99766 12.4994 8.71637 12.5079 8.42102C12.5163 8.13861 12.4167 7.8787 12.2283 7.69024C11.826 7.28968 11.1408 7.31838 10.7009 7.75606L4.84503 13.5781C3.9691 14.4546 3.9691 15.8825 4.84615 16.7595C5.72377 17.6366 7.15102 17.6366 8.02864 16.7595L16.1353 8.5566C16.7756 7.91639 17.1266 7.06916 17.1266 6.16735C17.1266 5.26554 16.7756 4.4183 16.1382 3.7809C15.5002 3.14294 14.653 2.7919 13.7512 2.7919C12.8493 2.7919 12.0021 3.14294 11.3641 3.7809L3.45884 11.63C3.23775 11.8488 2.8822 11.8477 2.66336 11.6266C2.44452 11.406 2.44564 11.0505 2.66617 10.8311L10.5704 2.98374C11.4187 2.13481 12.5489 1.66675 13.7512 1.66675C14.9534 1.66675 16.0836 2.13481 16.9336 2.98542C17.7837 3.83491 18.2518 4.96513 18.2518 6.16735Z" fill="#7A7A7A"/>
</svg>
