<svg width="34" height="34" viewBox="0 0 34 34" fill="none" xmlns="http://www.w3.org/2000/svg">
<g clip-path="url(#clip0_0_477)">
<path d="M31.4812 22.338L31.1624 20.7442H27.6009L27.0343 22.3267L24.1797 22.3323C25.5386 19.0643 26.9005 15.7975 28.2653 12.5318C28.4977 11.9779 28.9099 11.696 29.5177 11.6988C29.9823 11.7031 30.7402 11.7031 31.7928 11.7003L34 22.3337L31.4812 22.338ZM28.4027 18.5612H30.6978L29.8407 14.5662L28.4027 18.5612ZM10.0017 11.6974L12.8718 11.7003L8.43483 22.3394L5.52925 22.3366C4.7986 19.5264 4.07704 16.7138 3.36458 13.8989C3.22292 13.3379 2.94242 12.9455 2.40267 12.7599C1.92242 12.5942 1.122 12.3392 0 11.9921V11.7017H4.58575C5.37908 11.7017 5.84233 12.0856 5.99108 12.8733C6.14125 13.6623 6.51808 15.6712 7.12442 18.8997L10.0017 11.6974ZM16.8158 11.7003L14.5463 22.3366L11.815 22.3337L14.0817 11.6974L16.8158 11.7003ZM22.355 11.5033C23.1724 11.5033 24.2023 11.7583 24.7945 11.9921L24.3157 14.1978C23.7802 13.9825 22.899 13.6921 22.1581 13.702C21.0814 13.7204 20.4156 14.1723 20.4156 14.6058C20.4156 15.3113 21.5716 15.6669 22.7616 16.4376C24.1202 17.3159 24.2987 18.105 24.2817 18.9621C24.2632 20.7414 22.7616 22.4967 19.5939 22.4967C18.1489 22.4754 17.6276 22.3536 16.4489 21.9357L16.9476 19.6336C18.1475 20.1365 18.6561 20.2966 19.6817 20.2966C20.621 20.2966 21.4271 19.9169 21.4342 19.2553C21.4398 18.785 21.1508 18.5513 20.0968 17.9704C19.0428 17.3882 17.5638 16.5821 17.5837 14.9643C17.6077 12.8931 19.5698 11.5033 22.3564 11.5033H22.355Z" fill="#2270A8"/>
</g>
<defs>
<clipPath id="clip0_0_477">
<rect width="34" height="34" fill="white"/>
</clipPath>
</defs>
</svg>
